<?xml version="1.0" encoding="utf-8"?>
<!-- Generator: Adobe Illustrator 24.0.1, SVG Export Plug-In . SVG Version: 6.00 Build 0)  -->
<svg version="1.1" id="Layer_1" xmlns="http://www.w3.org/2000/svg" xmlns:xlink="http://www.w3.org/1999/xlink" x="0px" y="0px"
	 viewBox="0 0 1080 1080" style="enable-background:new 0 0 1080 1080;" xml:space="preserve">
<style type="text/css">
	.st0{clip-path:url(#SVGID_2_);fill:#142F21;}
	.st1{clip-path:url(#SVGID_2_);}
	.st2{fill:#FFFFFF;}
	.st3{font-family:'CloudyAurora-Serif';}
	.st4{font-size:87.5577px;}
	.st5{letter-spacing:5;}
	.st6{letter-spacing:-6;}
	.st7{fill:none;}
	.st8{fill:#093020;}
</style>
<g>
	<defs>
		<circle id="SVGID_1_" cx="540" cy="540" r="380.75"/>
	</defs>
	<clipPath id="SVGID_2_">
		<use xlink:href="#SVGID_1_"  style="overflow:visible;"/>
	</clipPath>
	<rect x="-0.82" y="-9.86" class="st0" width="1080" height="1080"/>
	<g class="st1">
		<g>
			<g>
				<path class="st2" d="M569.52,469.83c-0.32,0.53-0.64,1.06-0.96,1.6c-0.27,0.46-0.27,1.06,0,1.51c0.4,0.68,0.98,1.35,1.72,1.67
					c0.22,0.1,0.44,0.2,0.68,0.26c0.25,0.06,0.52,0.09,0.78,0.1c0.41,0.02,0.83-0.05,1.23-0.16c0.24-0.06,0.49-0.21,0.66-0.39
					c0.23-0.23,0.37-0.54,0.41-0.86c0.04-0.27,0.01-0.52-0.1-0.78c-0.04-0.13-0.1-0.24-0.19-0.33c-0.11-0.16-0.25-0.29-0.42-0.39
					c-0.59-0.44-1.17-0.88-1.76-1.32c-0.29-0.22-0.82-0.24-1.16-0.15c-0.35,0.1-0.73,0.36-0.9,0.69c-0.18,0.35-0.28,0.77-0.15,1.16
					c0.05,0.12,0.1,0.24,0.15,0.36c0.13,0.23,0.31,0.4,0.54,0.54c0.59,0.44,1.17,0.88,1.76,1.32c0.12-0.91,0.24-1.83,0.36-2.74
					c-0.14,0.04-0.28,0.07-0.43,0.09c0.13-0.02,0.27-0.04,0.4-0.05c-0.2,0.02-0.41,0.03-0.61,0c0.13,0.02,0.27,0.04,0.4,0.05
					c-0.17-0.03-0.33-0.07-0.49-0.14c0.12,0.05,0.24,0.1,0.36,0.15c-0.16-0.07-0.31-0.16-0.45-0.26c0.1,0.08,0.2,0.16,0.3,0.23
					c-0.18-0.14-0.33-0.3-0.47-0.48c0.08,0.1,0.16,0.2,0.23,0.3c-0.09-0.12-0.18-0.25-0.26-0.39c0,0.5,0,1.01,0,1.51
					c0.32-0.53,0.64-1.06,0.96-1.6c0.2-0.33,0.25-0.78,0.15-1.16c-0.1-0.35-0.36-0.72-0.69-0.9c-0.35-0.18-0.77-0.28-1.16-0.15
					C570.04,469.26,569.72,469.48,569.52,469.83L569.52,469.83z"/>
			</g>
		</g>
		<text transform="matrix(1 0 0 1 203.3947 644.7006)"><tspan x="0" y="0" class="st2 st3 st4 st5">T</tspan><tspan x="60.5" y="0" class="st2 st3 st4 st5">IFLIS</tspan><tspan x="286.22" y="0" class="st2 st3 st4 st5"> </tspan><tspan x="313.54" y="0" class="st2 st3 st4 st6">P</tspan><tspan x="358.46" y="0" class="st2 st3 st4 st5">AL</tspan><tspan x="489.18" y="0" class="st2 st3 st4">A</tspan><tspan x="557.04" y="0" class="st2 st3 st4 st5">C</tspan><tspan x="618.85" y="0" class="st2 st3 st4">E</tspan></text>
		<rect x="118.11" y="361.72" class="st7" width="842.14" height="400.83"/>
		<path class="st8" d="M627.91,450.46c0,49.01-39.73,88.73-88.73,88.73c-49.01,0-88.73-39.73-88.73-88.73
			c0-49.01,39.73-88.73,88.73-88.73C588.19,361.72,627.91,401.45,627.91,450.46"/>
		<path class="st8" d="M619.83,450.46c0,44.54-36.11,80.65-80.65,80.65c-44.54,0-80.65-36.11-80.65-80.65s36.11-80.65,80.65-80.65
			C583.72,369.81,619.83,405.92,619.83,450.46"/>
		<g>
			<path class="st2" d="M539.18,532.13c-45.04,0-81.67-36.64-81.67-81.67s36.64-81.68,81.67-81.68s81.68,36.64,81.68,81.68
				S584.22,532.13,539.18,532.13z M539.18,370.83c-43.9,0-79.62,35.72-79.62,79.62s35.72,79.62,79.62,79.62s79.62-35.72,79.62-79.62
				S583.08,370.83,539.18,370.83z"/>
		</g>
		<path class="st2" d="M537.67,492.77l-3.56-0.16c-6.05-0.27-14.82-1.87-22.23-8c-4.38-3.62-10.31-10.54-13.74-22.98
			c-0.41-1.47-0.68-2.72-0.93-3.92c-0.52-2.4-0.93-4.29-2.25-7.15c-1.68-3.64-4.02-7.01-6.94-10.02l-7.13-7.33l10.09,1.66
			c7.07,1.17,20.61,4.93,31.85,17.05c13.11,14.15,14.72,30.79,14.81,37.29L537.67,492.77z M499.09,443.98
			c0.72,1.22,1.38,2.47,1.98,3.76c1.63,3.54,2.18,6.09,2.72,8.55c0.24,1.11,0.49,2.26,0.85,3.55c2.97,10.75,7.91,16.58,11.54,19.59
			c4.61,3.81,9.99,5.46,14.51,6.11c-0.67-7.01-3.29-18.78-12.8-29.04C511.79,449.93,504.92,446.15,499.09,443.98"/>
		<path class="st2" d="M537.48,492.77l0.05-3.56c0.08-6.5,1.69-23.14,14.81-37.29c11.24-12.12,24.78-15.88,31.85-17.05l10.09-1.66
			l-7.13,7.33c-2.93,3.01-5.26,6.38-6.94,10.02c-1.32,2.86-1.73,4.75-2.25,7.15c-0.26,1.2-0.53,2.45-0.94,3.92
			c-3.43,12.44-9.37,19.37-13.74,22.98c-7.41,6.13-16.18,7.73-22.23,8L537.48,492.77z M576.05,443.98
			c-5.83,2.17-12.69,5.95-18.78,12.52c-9.51,10.26-12.14,22.03-12.8,29.04c4.52-0.65,9.9-2.29,14.51-6.11
			c3.63-3,8.58-8.83,11.54-19.59c0.36-1.29,0.6-2.44,0.85-3.55c0.53-2.47,1.08-5.02,2.71-8.55
			C574.67,446.46,575.33,445.2,576.05,443.98"/>
		<path class="st2" d="M512.9,450.82l-3.51-21.41l-1.16-7.08l6.19,3.63l0,0l0.48,0.33l0.46,0.32l0.92,0.65
			c0.61,0.44,1.21,0.88,1.8,1.32c1.19,0.89,2.37,1.8,3.53,2.73c1.16,0.93,2.3,1.88,3.43,2.86c1.12,0.98,2.23,1.98,3.32,3
			c1.08,1.03,2.14,2.09,3.16,3.18c0.51,0.55,1.01,1.11,1.51,1.68c0.49,0.57,0.96,1.16,1.43,1.75c0.92,1.2,1.78,2.45,2.5,3.81
			c0.35,0.68,0.69,1.38,0.88,2.13c0.05,0.19,0.09,0.38,0.12,0.57c0.01,0.1,0.03,0.19,0.04,0.29c0.01,0.1,0.01,0.2,0.02,0.29
			c0.02,0.39-0.02,0.79-0.12,1.17c-0.38-0.68-0.75-1.28-1.14-1.86c-0.39-0.58-0.77-1.15-1.21-1.69c-0.87-1.09-1.87-2.08-2.93-3.02
			c-2.12-1.87-4.42-3.56-6.8-5.14c-1.19-0.79-2.39-1.56-3.61-2.31c-1.22-0.75-2.45-1.48-3.69-2.19c-1.24-0.71-2.49-1.41-3.75-2.09
			c-0.63-0.34-1.26-0.68-1.89-1.01l-0.94-0.5l-0.47-0.24l-0.45-0.23l5.02-3.45l3.51,21.41L512.9,450.82z"/>
		<path class="st2" d="M556.24,449.73l3.51-21.41l5.02,3.45l-0.45,0.23l-0.47,0.24l-0.94,0.49c-0.63,0.33-1.26,0.67-1.89,1.01
			c-1.26,0.68-2.51,1.38-3.75,2.09c-1.24,0.71-2.47,1.44-3.7,2.18c-1.22,0.74-2.43,1.51-3.62,2.3c-2.38,1.58-4.69,3.26-6.81,5.13
			c-1.05,0.94-2.06,1.94-2.93,3.03c-0.43,0.55-0.85,1.1-1.24,1.69c-0.39,0.58-0.75,1.19-1.08,1.88c-0.15-0.75-0.07-1.55,0.12-2.3
			c0.19-0.75,0.49-1.47,0.85-2.14c0.71-1.35,1.58-2.6,2.5-3.8c0.46-0.6,0.94-1.18,1.42-1.75c0.49-0.57,0.99-1.13,1.5-1.68
			c1.02-1.1,2.08-2.15,3.16-3.18c2.17-2.05,4.42-4,6.74-5.87c1.16-0.94,2.33-1.84,3.52-2.74c0.6-0.45,1.2-0.89,1.8-1.32
			c0.3-0.22,0.61-0.43,0.91-0.65l0.46-0.32l0.48-0.33l0,0l6.19-3.63l-1.16,7.08l-3.51,21.41L556.24,449.73z"/>
		<path class="st2" d="M546.11,438.7c-0.92-2.86-2.05-5.69-3.35-8.4c-1.51-3.16-3.27-6.21-5.27-9.11c-1.98,2.87-3.7,5.9-5.14,9.05
			c-1.23,2.69-2.27,5.5-3.09,8.35l-6.47-1.87c0.91-3.17,2.07-6.29,3.44-9.28c2.28-4.99,5.2-9.71,8.65-14.02l2.65-3.31l2.62,3.33
			c3.4,4.32,6.32,9.01,8.68,13.94c1.42,2.98,2.66,6.08,3.68,9.23L546.11,438.7z"/>
		<rect x="118.11" y="361.72" class="st7" width="842.14" height="400.83"/>
	</g>
</g>
</svg>
