<?xml version="1.0" encoding="utf-8"?>
<!-- Generator: Adobe Illustrator 23.0.1, SVG Export Plug-In . SVG Version: 6.00 Build 0)  -->
<svg version="1.1" id="Layer_1" xmlns="http://www.w3.org/2000/svg" xmlns:xlink="http://www.w3.org/1999/xlink" x="0px" y="0px"
	 viewBox="0 0 200 200" style="enable-background:new 0 0 200 200;" xml:space="preserve">
<style type="text/css">
	.st0{fill:#333333;}
</style>
<path class="st0" d="M91.3,0.1L92.7,0v29.4H81.3v-17c-8.7,1.6-17,4.4-24.6,8.5c-8,4.3-15.3,9.8-21.5,16.3
	c-6.2,6.5-11.5,14-15.5,22.4C15.8,67.5,13.2,76.1,12,85h69.3V63.7H51.7V52.4h41v43.9H0V95c0-8.5,1.1-16.7,3.2-24.6
	s5.2-15.3,9.1-22.2s8.7-13.3,14.2-19S38.3,18.5,45,14.4c6.7-4.2,14.1-7.5,21.9-10C74.6,1.9,82.9,0.4,91.3,0.1z M196.8,70.5
	c-2.1-7.9-5.2-15.3-9.1-22.2c-3.9-6.9-8.7-13.3-14.2-19s-11.7-10.7-18.4-14.9s-14.1-7.5-21.9-10c-7.8-2.5-16-3.9-24.5-4.3L107.3,0
	v29.4h11.4v-17c8.7,1.6,17,4.4,24.6,8.5c8,4.3,15.3,9.8,21.5,16.3s11.5,14.1,15.5,22.4c3.9,7.9,6.4,16.5,7.7,25.5h-69.3V63.7h29.6
	V52.4h-41v43.9H200V95C200,86.6,198.9,78.3,196.8,70.5z M107.3,147.6h41v-11.3h-29.6V115H188c-1.2,9-3.8,17.5-7.7,25.5
	c-4.1,8.3-9.3,15.9-15.5,22.4s-13.5,12-21.5,16.3c-7.6,4.1-15.8,6.9-24.6,8.5v-17h-11.4V200l1.4-0.1c8.5-0.4,16.7-1.8,24.5-4.3
	s15.1-5.9,21.9-10c6.7-4.2,12.9-9.2,18.4-14.9s10.3-12.1,14.2-19s7-14.4,9.1-22.2c2.1-7.9,3.2-16.1,3.2-24.6v-1.3h-92.7V147.6z
	 M0,105c0,8.5,1.1,16.7,3.2,24.6c2.1,7.9,5.2,15.3,9.1,22.2s8.7,13.3,14.2,19s11.7,10.7,18.4,14.9s14.1,7.5,21.9,10s16,3.9,24.5,4.3
	l1.4,0.1v-29.4H81.3v17c-8.7-1.6-17-4.4-24.6-8.5c-8-4.3-15.3-9.8-21.5-16.3s-11.5-14.1-15.5-22.4c-3.9-7.9-6.4-16.5-7.7-25.5h69.3
	v21.3H51.7v11.3h41v-43.9H0V105z"/>
</svg>
