<?xml version="1.0" encoding="utf-8"?>
<!-- Generator: Adobe Illustrator 20.1.0, SVG Export Plug-In . SVG Version: 6.00 Build 0)  -->
<svg version="1.1" id="Layer_1" xmlns="http://www.w3.org/2000/svg" xmlns:xlink="http://www.w3.org/1999/xlink" x="0px" y="0px"
	 viewBox="0 0 285.4 283.2" style="enable-background:new 0 0 285.4 283.2;" xml:space="preserve">
<style type="text/css">
	.st0{fill:#FFFFFF;}
	.st1{fill:#D1D3D4;}
</style>
<g>
	<g>
		<g>
			<path class="st0" d="M151.2,245.8c-0.1,0-0.1,0.1-0.2,0.2l-2.6,6.3c-0.1,0.1,0,0.2,0.1,0.2h5.3c0.1,0,0.2-0.1,0.1-0.1l-2.6-6.3
				C151.2,245.9,151.2,245.8,151.2,245.8z"/>
			<path class="st0" d="M225.5,226.5c7.3-3.6,12.1-8.3,14.4-14.4c1.6,2.8,3.9,4.2,6.9,4.2c7.2,0,10.8-6,10.8-18h-25v-31.4
				c0-7.1,2.1-11.7,6.3-13.8c6.2-4.1,10.1-8,11.7-11.6c1.4,3.6,5.4,7.5,12.1,11.6c3.7,2.2,5.6,6.8,5.6,13.8v6.6h-10.8v-4.3
				c0-4.7-2.3-7-6.9-7s-6.9,2.3-6.9,6.9v18.3h24.6v13.2c0,4.4-0.6,8.3-1.8,11.6c12-20.8,18.9-44.8,18.9-70.5
				C285.4,63.4,221.6,0,142.8,0C91.4,0,46.3,27.1,21.2,67.6h114.4c-0.8,2.5-3.3,4.5-7.8,6c-6.9,1.9-10.7,4.1-11.4,6.6
				c-0.9,11-4,16.3-9.3,15.9c1.4-2.2,2.1-4.6,2.1-7.2c0-7-3.4-10.5-10.2-10.5l-6.3-0.3c-4.8,0-8.1,1.3-9.9,3.9v116.5H36.4
				c12.3-5.3,20.6-11.4,24.8-18.3c0.6,4.6,2.5,6.9,5.7,6.9s4.8-1.2,4.8-3.6V81.8c-2-2.6-5.4-3.9-10.2-3.9l-8.4,0.3
				c-3.4,0-5.9,2.1-7.5,6.3L45,88.7c0,2.6,0.7,5,2.1,7.2c-4.3,0-6.9-3.8-7.8-11.4c-0.5-4.3-2.2-7-5.1-8.1c-7.5-2.4-12.3-4.8-14.4-7
				C7.2,90.5,0,115.2,0,141.5c0,78.3,63.8,141.7,142.6,141.7c49.3,0,92.8-24.9,118.4-62.8c-1.9,1.9-4.2,3.5-7,4.8
				C249.4,227.4,239.8,227.8,225.5,226.5z M201.5,187.3h6.9v-46.4c0-5.4-2.3-8.8-6.9-10.2c7.8-5,13.8-13.2,18-24.6v81.1h6.9v11.1
				h-24.8v-11H201.5z M126.1,151.2h12.6v-15.9c0-10.9,2.5-17.7,7.6-20.6c4.6-2.7,8-6.1,10-10c1.8,3.7,5,7,9.6,9.9
				c5.6,3.1,8.4,8.2,8.4,15.3v6.9h-10.7v-3.6c0-5.2-2.4-7.8-7.2-7.8c-4.4,0-6.6,2.6-6.6,7.8v18h15.6v11.1h-15.6v37.5
				c0,19.3-8.4,28.4-25.2,27.3c4.2-1.3,8-4.4,11.4-9.3c2-5.2,2.9-9.1,2.7-11.7v-43.8h-12.6L126.1,151.2L126.1,151.2z M99.9,187.3
				h6.9v-46.4c0-5.4-2.3-8.8-6.9-10.2c7.8-5,13.8-13.2,18-24.6v81.1h6.9v11.1H99.9L99.9,187.3L99.9,187.3z M96.4,260.2
				c-1.8,0-3.8-0.1-4.5-0.1c-0.6,0-2.4,0.1-3.5,0.1c-0.3,0-0.5-0.1-0.5-0.3c0-0.1,0.1-0.3,0.4-0.3c0.4,0,0.7,0,1-0.1
				c0.6-0.1,0.7-0.6,0.8-1.3c0.1-1.1,0.1-3.1,0.1-5.4v-4.4c0-3.8,0-4.5,0-5.3c-0.1-0.9-0.3-1.1-1.2-1.4c-0.2-0.1-0.7-0.1-1.1-0.1
				c-0.3,0-0.5-0.1-0.5-0.3s0.2-0.2,0.6-0.2c1.4,0,3.2,0.1,4,0.1c1.1,0,3.3-0.1,4.5-0.1c3.4,0,4.7,1.1,5.1,1.4
				c0.6,0.5,1.4,1.7,1.4,3c0,3.6-3,6.1-6.9,6.1c-0.1,0-0.7,0-0.8,0c-0.2,0-0.3-0.1-0.3-0.3s0.3-0.3,0.9-0.3c1.5,0,3.7-1.5,3.7-4.1
				c0-0.8-0.1-2.5-1.6-3.7c-1-0.8-2.1-0.9-2.7-0.9c-0.4,0-0.9,0-1.2,0.1c-0.2,0.1-0.2,0.2-0.2,0.5v10c0,2.3,0,4.3,0.1,5.4
				c0.1,0.7,0.2,1.2,1.1,1.3c0.4,0.1,1,0.1,1.4,0.1c0.3,0,0.4,0.1,0.4,0.3C96.9,260.1,96.6,260.2,96.4,260.2z M121.7,260.2
				c-1,0-3,0-5.3-0.1c-0.5,0-0.8,0-0.8-0.2c0-0.1,0.1-0.2,0.3-0.3c0.2,0,0.4-0.3,0.2-0.6l-2.1-5.1c-0.1-0.1-0.2-0.2-0.3-0.2h-6.4
				c-0.2,0-0.2,0-0.2,0.2l-1.5,3.4c-0.3,0.6-0.4,1.2-0.4,1.5c0,0.4,0.2,0.7,1.1,0.7h0.4c0.3,0,0.4,0.1,0.4,0.3s-0.2,0.3-0.4,0.3
				c-0.9,0-2.2-0.1-3.1-0.1c-0.3,0-1.7,0.1-3.2,0.1c-0.3,0-0.5-0.1-0.5-0.3c0-0.1,0.1-0.3,0.3-0.3s0.6,0,0.8,0
				c1.2-0.2,1.7-0.9,2.3-2.2l7.2-15.7c0.3-0.7,0.5-1,0.8-1c0.4,0,0.5,0.2,0.8,0.8c0.7,1.4,5.2,11.6,7,15.4c1.1,2.3,1.8,2.6,2.3,2.7
				c0.4,0.1,0.7,0.1,1,0.1c0.2,0,0.4,0.1,0.4,0.3C122.9,260.2,122.8,260.2,121.7,260.2z M138.9,259.6c-0.2,0.6-0.3,0.7-1.7,0.7
				c-2,0-3.5,0-4.9-0.1c-1.4,0-2.5-0.1-3.6-0.1c-0.3,0-0.9,0-1.6,0s-1.3,0.1-1.9,0.1c-0.3,0-0.5-0.1-0.5-0.3c0-0.1,0.1-0.3,0.4-0.3
				c0.4,0,0.7,0,1-0.1c0.6-0.1,0.7-0.6,0.8-1.3c0.1-1.1,0.1-3.1,0.1-5.4v-4.4c0-3.8,0-4.5,0-5.3c-0.1-0.9-0.3-1.1-1.2-1.4
				c-0.2-0.1-0.6-0.1-0.9-0.1s-0.5-0.1-0.5-0.3s0.2-0.2,0.6-0.2c1.3,0,3,0.1,3.8,0.1c0.7,0,2.9-0.1,4-0.1c0.4,0,0.6,0.1,0.6,0.2
				c0,0.2-0.2,0.3-0.5,0.3s-0.7,0-1.1,0.1c-0.7,0.1-1,0.5-1,1.4c-0.1,0.8-0.1,1.5-0.1,5.3v4.4c0,3.2,0,4.8,0.6,5.3
				c0.5,0.4,1.5,0.5,3.6,0.5c1.5,0,2.5,0,3.2-0.7c0.3-0.3,0.6-1,0.7-1.5c0-0.2,0.1-0.4,0.3-0.4c0.2,0,0.2,0.3,0.2,0.6
				C139.3,257,139.1,258.9,138.9,259.6z M156.7,259.1l-2.1-5.1c-0.1-0.1-0.2-0.2-0.3-0.2h-6.4c-0.2,0-0.2,0-0.2,0.2l-1.5,3.4
				c-0.3,0.6-0.4,1.2-0.4,1.5c0,0.4,0.2,0.7,1.1,0.7h0.4c0.3,0,0.4,0.1,0.4,0.3s-0.2,0.3-0.4,0.3c-0.9,0-2.2-0.1-3.1-0.1
				c-0.3,0-1.7,0.1-3.2,0.1c-0.3,0-0.5-0.1-0.5-0.3c0-0.1,0.1-0.3,0.3-0.3c0.2,0,0.6,0,0.8,0c1.2-0.2,1.7-0.9,2.3-2.2l7.2-15.7
				c0.3-0.7,0.5-1,0.8-1c0.4,0,0.5,0.2,0.8,0.8c0.7,1.4,5.2,11.6,7,15.4c1.1,2.3,1.8,2.6,2.3,2.7c0.4,0.1,0.7,0.1,1,0.1
				c0.2,0,0.4,0.1,0.4,0.3s-0.2,0.3-1.2,0.3s-3,0-5.3-0.1c-0.5,0-0.8,0-0.8-0.2c0-0.1,0.1-0.2,0.3-0.3 M179.9,259.3
				c-0.1,0.4-0.2,0.6-0.7,0.7c-1.1,0.4-3.2,0.6-4.9,0.6c-3.7,0-6.9-0.7-9.4-2.7c-2.7-2.2-3.4-5-3.4-7.4c0-1.7,0.6-4.7,3.2-6.9
				c2-1.7,4.6-2.7,8.7-2.7c1.7,0,2.7,0.1,4,0.3c1,0.1,1.9,0.3,2.7,0.4c0.3,0,0.4,0.1,0.4,0.3s-0.1,0.5-0.1,1.4
				c-0.1,0.8-0.1,2.2-0.1,2.7c0,0.4-0.1,0.6-0.4,0.6c-0.2,0-0.3-0.2-0.3-0.5c0-0.8-0.4-1.7-1.1-2.3c-0.9-0.9-2.8-1.5-5.3-1.5
				c-2.4,0-3.9,0.4-5.2,1.4c-2,1.7-2.5,4.1-2.5,6.5c0,6,4.9,8.8,8.5,8.8c2.4,0,3.8-0.2,4.9-1.3c0.5-0.5,0.8-1.2,0.9-1.7
				c0.1-0.4,0.1-0.5,0.3-0.5c0.2,0,0.3,0.2,0.3,0.4C180.5,256.2,180.2,258.4,179.9,259.3z M197.6,259.6c-0.2,0.7-0.4,0.7-1.5,0.7
				c-2.1,0-3.7,0-5-0.1c-1.3,0-2.4-0.1-3.2-0.1c-0.3,0-0.9,0-1.6,0s-1.3,0.1-1.9,0.1c-0.3,0-0.5-0.1-0.5-0.3c0-0.1,0.1-0.3,0.4-0.3
				c0.4,0,0.7,0,1-0.1c0.6-0.1,0.7-0.6,0.8-1.3c0.1-1.1,0.1-3.1,0.1-5.4v-4.4c0-3.8,0-4.5,0-5.3c-0.1-0.9-0.3-1.1-1.2-1.4
				c-0.2-0.1-0.7-0.1-1.1-0.1c-0.3,0-0.5-0.1-0.5-0.3s0.2-0.2,0.6-0.2c1.4,0,3.2,0.1,4,0.1c0.9,0,6.9,0,7.5,0c0.5,0,0.9-0.1,1.2-0.1
				c0.2,0,0.3-0.1,0.4-0.1c0.2,0,0.2,0.1,0.2,0.2c0,0.2-0.2,0.5-0.2,1.6c0,0.3-0.1,1.4-0.2,1.7c0,0.1-0.1,0.4-0.3,0.4
				c-0.2,0-0.2-0.1-0.2-0.3s0-0.6-0.2-0.9c-0.2-0.4-0.4-0.8-1.8-0.9c-0.5-0.1-3.7-0.1-4.3-0.1c-0.1,0-0.2,0.1-0.2,0.2v6.2
				c0,0.1,0,0.3,0.2,0.3c0.6,0,4.2,0,4.8-0.1c0.7-0.1,1-0.1,1.3-0.4c0.2-0.2,0.3-0.3,0.4-0.3s0.2,0.1,0.2,0.3c0,0.1-0.1,0.6-0.2,1.8
				c-0.1,0.5-0.1,1.5-0.1,1.7s0,0.6-0.3,0.6c-0.2,0-0.2-0.1-0.2-0.2c0-0.3,0-0.6-0.1-0.9c-0.2-0.5-0.5-0.9-1.5-1
				c-0.5-0.1-3.6-0.1-4.3-0.1c-0.1,0-0.2,0.1-0.2,0.3v2c0,0.9,0,3,0,3.7c0.1,1.7,0.9,2.1,3.7,2.1c0.7,0,1.9,0,2.6-0.3s1-0.8,1.2-1.9
				c0.1-0.3,0.1-0.4,0.3-0.4c0.2,0,0.2,0.3,0.2,0.6C198,257.4,197.8,259.1,197.6,259.6z M202.3,227c-8.4,0-14.6-5.9-18.6-17.7
				c-1.4-4.5-2.1-9.6-2.1-15.3l-0.1-100.4c0-5.2-2.4-9.4-7.2-12.6c7.8-4.4,13.9-12.6,18.3-24.6l0.1,140.2c0,15.4,4.7,25.3,14.1,29.7
				L202.3,227z"/>
			<path class="st0" d="M110.7,245.8c-0.1,0-0.1,0.1-0.2,0.2l-2.6,6.3c-0.1,0.1,0,0.2,0.1,0.2h5.3c0.1,0,0.2-0.1,0.1-0.1l-2.6-6.3
				C110.8,245.9,110.7,245.8,110.7,245.8z"/>
		</g>
		<g>
			<path class="st1" d="M143.4,93c0.3,0.3,0.5,0.6,0.5,0.9c0.9-0.3,1.4-0.9,1.4-1.8C144,92.1,143.4,92.4,143.4,93z"/>
			<path class="st1" d="M145.6,115.1h-3.5c-3.3,0-6.5-0.5-9.5-1.6s-5.9-2.3-8.6-3.8c-0.9-0.9-1.4-1.8-1.4-2.7
				c0.6-1.5,1.7-4.6,3.2-9.2c1.5-4.7,2.4-7.7,2.7-9.3c0.6-1.5,1.3-3.8,2.1-7c0.8-3.2,1.3-5,1.6-5.6l0.6-4.8c-1,0.7-2.1,1.3-3.5,1.8
				c-0.2,1-0.4,2-0.7,2.9c-0.6,1.5-1.1,2.5-1.4,2.9c-0.3,0.5-0.5,1.4-0.5,2.9c0,0.6-0.1,1.3-0.2,2c-0.2,0.8-0.2,1.3-0.2,1.6
				c-0.3,0-0.8,1.1-1.4,3.4s-1.1,3.7-1.4,4.3l-0.5,0.5l-0.5,0.4v2.3c-0.9,2.1-2,3.5-3.2,4.1v0.4c0,0.9,0.1,1.4,0.5,1.4
				c0,0.3-0.1,0.4-0.2,0.4c-0.2,0-0.2,0.2-0.2,0.5l-0.5,0.5c-0.3,0-0.5,0.5-0.5,1.6s0,1.7,0,2c0,1.8,1.1,3.3,3.4,4.5
				s3.6,2.6,3.9,4.1c0.9-0.6,2-0.6,3.2,0c0.6,0,0.9,0.5,0.9,1.4h1.4l1.4,0.9l0.9-0.4h0.5c0,0.3,0.1,0.4,0.5,0.4h0.9
				c0.3,0.3,0.6,0.5,0.9,0.5c0.3,0.3,0.6,0.5,0.9,0.5h0.5c0.6,0,1.3,0.1,2,0.2c0.8,0.2,1.4,0.2,2.1,0.2c0.1,0,0.2,0,0.3,0
				C142.9,117.5,144.1,116.1,145.6,115.1z"/>
			<path class="st1" d="M144.8,101.2l-1.4,1.4h2.3C145.7,101.6,145.4,101.2,144.8,101.2z"/>
			<path class="st1" d="M137.5,33.5L138,33c0.3,0,0.8,0,1.6,0c0.8,0,1.1,0.2,1.1,0.5v26.2c0,0.3-0.1,0.9-0.2,1.8
				c-0.2,0.9-0.2,1.5-0.2,1.8c-0.6,0.6-1.2,1.7-1.8,3.4c-0.6,1.7-1.2,2.8-1.8,3.4c0,2.1-0.2,3.5-0.7,4.3s-1.1,2-2,3.8
				c-2.1,5.7-3.2,11.3-3.2,16.7c0,2.4,0.4,5.3,1.1,8.6c0.8,3.3,2.5,5.7,5.2,7.2c0.3,0.3,0.5,0.4,0.7,0.4c0.1,0,0.4,0.2,0.7,0.4
				l0.9,0.9h5.9c2.4,0,4.3-1.5,5.7-4.5c1.4-3,2.3-5.4,3-7.2v-4.5c0-4.8-0.7-9.3-2-13.5c-1.4-4.2-3-8.6-4.8-13.1
				c-0.6-1.2-1.3-2.3-2-3.4c-0.8-1.1-1.3-2.3-1.6-3.8c0-0.9-0.1-2.4-0.2-4.5c-0.2-2.1-0.3-4.4-0.5-6.8s-0.2-4.7-0.2-6.8
				c0-2.1,0-3.6,0-4.5v-1.4c0-1.2,0.1-1.9,0.2-2.3c0.1-0.3,0.2-1.2,0.2-2.7c0-0.3,0.5-0.5,1.4-0.5c1.2,0,1.8,1.1,1.8,3.2
				c0,0.9,0.1,2.3,0.2,4.3c0.2,2,0.4,4.1,0.7,6.3c0.3,2.3,0.6,4.4,0.9,6.3c0.3,2,0.5,3.4,0.5,4.3c1.5,7.8,3.4,15.7,5.7,23.7
				c2.3,8,5.1,15.9,8.4,23.7v0.5c0,0.9-0.7,1.9-2,2.9c-0.4,0.3-0.8,0.6-1.3,0.9c0.7,0.9,1.6,1.7,2.5,2.5c0.4-0.3,0.8-0.6,1.2-0.9
				c2.4-1.8,3.6-4.2,3.6-7.2c0-0.3-0.4-0.9-1.1-1.8c-0.8-0.9-1.3-1.5-1.6-1.8V98c-0.3-0.9-0.6-1.7-0.9-2.5c-0.3-0.7-0.6-1.6-0.9-2.5
				l-0.9-1.8l0.5-1.4v-0.4c-0.6-0.3-1.1-0.8-1.4-1.4s-0.6-1.2-0.9-1.8c-0.3-0.6-0.3-1.5,0-2.7c-0.6-0.3-1.1-1.1-1.4-2.3
				c-0.3-1.2-0.5-2.1-0.5-2.7c0-0.3-0.2-1-0.7-2.3c-0.4-1.2-0.8-2.5-1.1-3.8c-0.3-1.4-0.9-3.2-1.8-5.6c0-1.8-0.2-3.5-0.7-5
				s-0.7-3-0.7-4.5c0-0.3,0.1-0.6,0.2-0.9s0.2-0.6,0.2-0.9c-0.9-1.2-1.4-2.3-1.4-3.2c0-0.9,0-2.1,0-3.6c0-0.6-0.2-1.3-0.5-2
				c-0.3-0.8-0.5-1.4-0.5-2v-0.4l0.5-1.4v-0.5c0-0.6-0.3-0.9-0.9-0.9c0-0.6,0-2.1,0-4.5s-0.2-3.9-0.5-4.5c0-0.9-0.2-1.8-0.5-2.7
				c-0.3-0.9-1.1-1.4-2.3-1.4c-0.6,0-1.1,0.2-1.4,0.7s-0.8,0.7-1.4,0.7c-1.5,0-2.8-0.2-3.9-0.7s-2.2-0.7-3.4-0.7h-2.3
				c-0.6,0.3-1.1,1.8-1.4,4.5s-0.6,5.7-0.9,9s-0.5,6.5-0.7,9.7s-0.4,5.5-0.7,7c-0.3,0.3-0.5,0.6-0.5,0.9l-0.5,0.4l0.5,0.9v0.9
				c-0.2,1.7-0.5,3.5-0.7,5.5h3.2L137.5,33.5z M146.6,107.9c-0.3,0-0.5-0.1-0.5-0.5c0-0.3,0.2-0.4,0.5-0.4s0.5,0.2,0.5,0.4
				C147.1,107.8,146.9,107.9,146.6,107.9z M145.2,74.5c1.2,0.6,1.8,1.3,1.8,2.2c0,0.3-0.1,0.5-0.2,0.5c-0.2,0-0.2,0.3-0.2,0.9
				s0.2,0.8,0.7,0.7c0.4-0.1,0.8,0.1,1.1,0.7c-1.8,0.6-2.7,2-2.7,4.1c1.8,0,2.7-1.1,2.7-3.2l0.5,0.4c0,0.9-0.1,1.7-0.2,2.5
				c-0.2,0.8-0.2,1.6-0.2,2.5c0.6,0,1.1,0,1.4,0s0.5,0.5,0.5,1.4c0,0.3-0.3,0.6-0.9,0.9l0.9,0.4c0,1.2-0.7,1.7-2,1.6
				c-1.4-0.2-2,0.4-2,1.6c2.1,0,3.8-0.3,5-0.9v0.5c-0.3,0.6-0.8,0.9-1.4,0.9h-1.4v0.9c0,0.9,0.4,1.4,1.1,1.4c0.8,0,1.4,0,2,0
				c0,0.9-0.5,1.4-1.4,1.6s-1.4,0.7-1.4,1.6c0,0.6,0.3,1.1,0.9,1.4s0.9,0.8,0.9,1.4s-0.5,0.9-1.4,0.9l-0.9-1.4
				c-0.3,0-0.5,0.1-0.5,0.2s-0.2,0.2-0.4,0.2H147l-0.5-0.5H146h-0.5c0.3,0.3,0.7,0.9,1.1,1.8c0.5,0.9,0.7,1.5,0.7,1.8
				c0,0.9-0.4,2-1.1,3.4c-0.8,1.3-1.6,2-2.5,2c-0.3,0-1.1-0.1-2.5-0.2s-2-0.4-2-0.7v-3.2c-1.2,0-1.8,0.9-1.8,2.7
				c-1.8-1.5-3-3.4-3.4-5.6c-0.5-2.3-0.7-4.6-0.7-7c0-0.9,0.2-2.4,0.5-4.5s0.7-4.3,1.1-6.5c0.5-2.3,1.1-4.2,1.8-5.9
				c0.8-1.6,1.6-2.5,2.5-2.5h0.9c0.3,0.3,0.6,0.4,0.9,0.4h0.9h0.5c0.3,0,0.7-0.2,1.1-0.7C144.1,74.8,144.6,74.5,145.2,74.5z
				 M143.9,68.2c0.6,1.5,0.9,2.6,0.9,3.2c-0.9-0.3-1.4,0-1.6,0.9s-0.5,1.4-1.1,1.4c-0.3,0-0.8-0.3-1.4-0.9c-0.3,0-0.6-0.2-0.9-0.5
				l-0.9-0.5v-0.5c0-0.9,0.2-2,0.7-3.4s1.3-2,2.5-2C142.7,66,143.3,66.7,143.9,68.2z"/>
			<path class="st1" d="M141.6,77.2c-0.6,0-0.9,0.5-0.9,1.4l0.9,0.9l1.4-1.3C142.4,77.6,141.9,77.2,141.6,77.2z"/>
			<path class="st1" d="M70.6,117c-0.9-0.3-1.5-0.8-1.8-1.4c-0.3-0.3-0.4-0.7-0.2-1.4c0.2-0.6,0.2-1.1,0.2-1.4h-2.7l0.5-0.4
				c-0.3-0.3-0.6-0.5-0.9-0.5c-0.3,0-0.8-0.1-1.4-0.5c0-0.3-0.2-0.4-0.5-0.4v-1.4c-0.3,0-0.6-0.1-0.9-0.2c-0.3-0.1-0.6-0.2-0.9-0.2
				c-0.6-0.3-0.9-1.1-0.9-2.3c-0.3-0.6-0.8-1.1-1.6-1.4s-1.4-0.7-2-1.4l-0.5-1.4l-0.5-0.5l-0.9-0.4V100c-0.3-0.3-0.9-0.5-1.8-0.5
				c0-0.3-0.3-0.7-0.9-1.1c-0.6-0.5-1.1-0.7-1.4-0.7c0.6-0.6,0.6-1.4,0-2.3l-1.4-0.5v-1.8l-1.8-0.5c-0.6-0.3-0.9-1-0.9-2
				c0-1.1-0.5-1.4-1.4-1.1v-2.7c-0.3,0.1-0.5,0.2-0.8,0.2L45,88.3c0,2.6,0.7,5,2.1,7.2c-0.4,0-0.8,0-1.1-0.1c0.5,0.8,1,1.6,1.6,2.4
				c2.9,4.4,6,8.2,9.3,11.5l14.8,13.3V117C71.4,117.3,71.1,117.1,70.6,117z"/>
			<path class="st1" d="M144.3,97.1c0,0.3,0.6,0.4,1.8,0.4c0-0.9-0.2-1.4-0.5-1.4C144.8,96.2,144.3,96.5,144.3,97.1z"/>
			<path class="st1" d="M142.1,88.1c0,1.2,0.6,1.8,1.8,1.8C143.9,88.7,143.3,88.1,142.1,88.1z"/>
			<path class="st1" d="M186.3,249.9c-2.5-0.6-5-1.3-7.4-2.3c-3.1-1.3-5.8-3-8.3-5.2c-1.1,0.2-1.9,0.6-2.6,1.2c-0.6,0.5-1,1-1.4,1.6
				c0.2,0.2,0.5,0.4,0.9,0.8c0.3,0.3,0.6,0.4,0.9,0.4l0.5,0.9c0.3,0.3,0.5,0.6,0.5,0.9h1.4l0.5,1.3c0.3,0.3,0.6,0.5,0.9,0.5h0.9v0.5
				l0.5,0.9h0.9c0.3,0,0.5-0.2,0.5-0.4h0.5c0.3,0,0.5,0.1,0.5,0.4l0.5,0.4l1.8,0.5c0,0.3,0.1,0.5,0.2,0.5c0.2,0,0.2,0.2,0.2,0.5
				s0.1,0.4,0.5,0.4l0.5,0.5c0-0.3,0.1-0.5,0.5-0.5c0.3,0,0.5-0.1,0.5-0.4h0.5c0,0.3,0.1,0.4,0.5,0.4l0.5,0.5h2.3l0.5,0.9l1.4-0.4
				h0.5c0,0.1,0,0.2,0.1,0.4c0-0.6,0-1.3,0-2v-3.2H186.3z"/>
			<path class="st1" d="M259.9,72.3c0.1-0.1,0.1-0.2,0.1-0.4C259.9,72,259.9,72.1,259.9,72.3z"/>
			<path class="st1" d="M214.4,115.1l-0.9,0.5v1.4c-0.3,0-0.6,0.1-0.9,0.2s-0.6,0.2-0.9,0.2v0.4c-0.3,0.3-0.5,0.6-0.5,0.9
				c-0.3,0-0.5,0.1-0.7,0.2c-0.2,0.2-0.4,0.2-0.7,0.2h-0.9v0.9l-0.5,0.4c0,0.3-0.6,0.5-1.8,0.5l-0.5,1.4l-0.5,0.5l-1.4-0.5h-0.9
				c0,0.3,0.1,0.6,0.2,0.9s0.2,0.6,0.2,0.9s-0.8,1.1-2.3,2.3c-1.5,1.2-2.6,2.1-3.2,2.7s-1.2,0.8-1.8,0.7c-0.6-0.1-1.2,0.1-1.8,0.7
				c-0.3,0-0.5,0.3-0.5,0.9v0.5c-0.3,0.6-0.5,0.7-0.5,0.2s-0.3-0.4-0.9,0.2c-0.1,0-0.3,0.1-0.4,0.2v6l0.4-0.4l3.2-3.2
				c0.3-0.3,0.8-0.6,1.4-0.9c0.3-0.3,0.6-0.5,0.9-0.7c0.3-0.1,0.6-0.4,0.9-0.7l0.9-0.4h0.5v1.8h2.3c-0.6,0.9-0.6,1.3,0,1.1
				c0.6-0.2,1.2-0.1,1.8,0.2c0,0.3,0.1,0.5,0.2,0.5c0.2,0,0.2,0.2,0.2,0.4c0,0.3,0.1,0.6,0.5,0.9l1.4,0.5c0.3,0.3,0.5,0.6,0.5,0.9
				s0.2,0.5,0.5,0.5c0.1,0,0.1,0,0.2,0c-0.5-4.4-2.7-7.2-6.8-8.4c5.5-3.6,10.2-8.7,13.9-15.5l0,0L214.4,115.1L214.4,115.1z"/>
			<path class="st1" d="M38.4,80.5c-0.4,0.4-0.7,0.8-1,1.3c-0.6,1.2-1.2,2.1-1.8,2.7c-2.4,1.8-5.1,2.8-8,2.9
				c-2.9,0.2-5.1,1.3-6.6,3.4s-2.7,3.7-3.4,4.7c-0.8,1.1-1.1,2.8-1.1,5.2c0,3.3,1.1,6.1,3.4,8.3c2.3,2.3,5.1,3.4,8.4,3.4
				c2.4,0,4.3-0.8,5.7-2.5s2-3.5,2-5.6c0-1.2-0.2-2-0.5-2.3c-0.3-0.6-0.8-1.2-1.6-1.8c-0.8-0.6-1.3-1.1-1.6-1.4h0.9
				c1.5,0,2.7,0.8,3.4,2.5c0.8,1.7,1.1,3.2,1.1,4.7c0,2.1-0.3,3.5-0.9,4.1c-0.3,0.3-1,0.9-2,1.8c-1.1,0.9-1.7,1.7-2,2.3
				c-1.5,0-2.3,0.2-2.5,0.7s-0.7,0.7-1.6,0.7c-0.6,0-2-0.4-4.1-1.1s-3.3-1-3.6-0.7l-5-4.5c-0.9-0.9-1.4-2-1.6-3.4
				c-0.2-1.4-0.2-2.8-0.2-4.3v-2.3c0-0.6,0.2-2,0.5-4.3s0.6-3.7,0.9-4.3c0.3-0.6,0.7-1.4,1.1-2.3c0.5-0.9,0.8-1.8,1.1-2.7
				c0-0.6,0.1-1.6,0.2-2.9c0.1-1.4,0.8-1.7,2-1.1l-0.9-1.8c0-0.9,0.6-1.2,1.8-0.9c-0.6-2.1-0.3-3.8,0.9-5l1.4-0.5l0.9-0.5l-0.5-0.9
				V72c-1.6-0.9-2.8-1.7-3.7-2.6c-0.5,1-1.2,2.4-2,4.2c-1.4,3.2-2.4,5.3-3,6.5c-0.6,0.6-1.2,1.9-1.8,3.8c-0.6,2-0.9,3.2-0.9,3.8
				c-0.9,2.1-1.4,4.1-1.6,6.1c-0.2,2-0.2,4.1-0.2,6.5c0,4.8,1.5,9,4.5,12.6s7.1,5.4,12.3,5.4c4.2,0,7.6-1.3,10-3.8
				c2.4-2.6,3.6-5.9,3.6-10.2c0-2.4-1-4.6-3-6.5s-4.2-2.9-6.6-2.9c-1.2,0-2.6,0.5-4.1,1.4s-2.3,2.1-2.3,3.6c0,0.6,0.3,0.9,0.9,0.9h5
				c0.6,0,1,0.6,1.1,1.8c0.2,1.2,0.2,2.1,0.2,2.7c0,2.4-1.2,3.6-3.6,3.6c-1.5,0-3.3-0.5-5.2-1.4c-2-0.9-3-2.4-3-4.5v-5.4v-0.9
				c0-0.3,0.1-0.5,0.2-0.5c0.1,0,0.2-0.1,0.2-0.5c1.5-2.1,3-3.2,4.6-3.4c1.5-0.1,3.3-0.7,5.5-1.6c3.1-1.1,6-2.8,8.6-5
				c-0.1-0.5-0.2-1.1-0.2-1.7C39.3,82.9,38.9,81.6,38.4,80.5z"/>
			<path class="st1" d="M192.6,86.8v7.7c2.4-3.5,3.6-7.3,3.6-11.4c0-2.1-1.1-3.2-3.2-3.2c-0.1,0-0.3,0-0.4,0v2.7c0.1,0,0.3,0,0.4,0
				C193,84.1,192.9,85.5,192.6,86.8z"/>
			<path class="st1" d="M26.1,66H27c0.3,0,0.5-0.1,0.5-0.4c0.6-0.6,0.9-1.4,0.9-2.3h0.5c0.3,0.6,0.6,1.4,0.9,2.5
				c0.2,0.7,0.4,1.2,0.7,1.7h19.7v-0.1h0.5c0.6-0.6,1.1-1.6,1.6-2.9c0.5-1.4,0.7-2.5,0.7-3.4c0-0.3-0.3-1.8-0.9-4.5
				c-0.6-2.7-1.5-3.9-2.7-3.6v-2.3c0,0.3-0.2,0.5-0.5,0.5H48c-0.3,0-0.5-0.1-0.5-0.5v-0.9H47c0,0.3-0.2,0.4-0.5,0.4h-0.9
				c-0.3-0.3-0.5-0.6-0.5-0.9c-0.6-0.3-1.4-0.4-2.3-0.4c-0.9,0-1.5-0.3-1.8-0.9c0.6-2.1,2.1-2.9,4.5-2.3l-1.4-2.3h3.2l-0.9-0.9
				c0-0.3,0.2-0.4,0.5-0.4h0.9l0.5-1.4c0.9-0.6,1.8-1.4,2.7-2.3c0.6-0.6,1.2-1.1,1.8-1.6s1.2-0.8,1.8-1.1c0.3,0,0.5-0.2,0.5-0.5
				s0.1-0.5,0.5-0.5H57c0.3,0,0.5-0.1,0.5-0.5v-0.9c0.3-0.3,0.6-0.5,0.9-0.5c0.3,0,0.6-0.1,0.9-0.5c0-0.3,0.2-0.5,0.5-0.5
				s0.6-0.1,0.9-0.4c0.6-0.6,1.2-0.9,1.8-0.9s1.2-0.3,1.8-0.9c1.2,0,1.8-0.6,1.8-1.8c2.1-1.5,4.6-2.5,7.3-3.2
				c2.7-0.6,5.3-0.9,7.7-0.9c4.2,0,8.3,1.4,12.3,4.3c3.9,2.9,5.9,6.7,5.9,11.5c0,4.2-1.2,8.3-3.6,12.2c-0.3,0.6-0.5,0.8-0.7,0.7
				c-0.1-0.1-0.5,0.1-1.1,0.7v0.4c-0.6,1.2-1.4,2.1-2.3,2.7c-0.9,0.6-1.7,1.4-2.3,2.3c0,0.3-0.1,0.5-0.2,0.7
				c-0.2,0.2-0.2,0.4-0.2,0.7c-0.3,0.3-0.5,0.6-0.5,0.9s-0.2,0.5-0.7,0.7S87,61.9,87,62.2l0.5,0.9L87,64c0,0.3-0.1,0.8-0.2,1.6
				c-0.2,0.8-0.2,1.3-0.2,1.6v0.1h4.6c0.2-2.2,0.7-4.1,1.8-5.8c1.2-2,2.6-3.8,4.1-5.6c1.5-1.8,2.9-3.8,4.1-5.9s1.8-4.8,1.8-8.1
				c0-0.9,0-2,0-3.2s-0.2-2.3-0.5-3.2c-1.5-4.2-4.2-7.8-8-10.8s-8-4.5-12.5-4.5c-8.8,0-17.1,2.9-24.8,8.8S42.7,40.8,37,46.8
				c-0.6,0.3-1.1,0.8-1.4,1.6c-0.3,0.8-0.5,1.4-0.5,2c0,1.5,1.3,2,3.9,1.6c2.6-0.4,4.3-0.2,5.2,0.7c0.3,0.3,0.8,0.8,1.6,1.6
				c0.8,0.8,1.3,1.4,1.6,2c0.6,1.8,0.9,3,0.9,3.6c0,2.4-0.8,4.2-2.3,5.4c-1.5,1.2-3.5,1.8-5.9,1.8h-2.7c-2.4-1.2-3.9-2.9-4.3-5.2
				c-0.5-2.3-1.3-4.4-2.5-6.5h-0.5c-0.6,0-1.1,0.4-1.6,1.1c-0.5,0.8-1.4,1.9-1.4,1.9s-2,3.2-3.6,5.6c-1,1.5-1.8,2.6-2.2,3.3H26V66
				H26.1z"/>
			<path class="st1" d="M206,154.6c-1.4-1-2.2-1.7-2.5-2v-1.8h-1.4c-0.6,0-1.8-1.1-3.6-3.2c-1.8-2.1-3-3.3-3.6-3.6
				c0.3,0-0.2-0.6-1.4-1.8c-0.3-0.3-0.6-0.6-0.8-0.8v6.4c1.2,1.1,2.1,1.8,2.6,2c0.6,0.6,2.6,2.2,5.9,4.7c3.3,2.6,5.6,4.3,6.8,5.2
				c0.1,0.1,0.2,0.1,0.3,0.2v-3.7C207.7,155.9,206.9,155.4,206,154.6z"/>
			<path class="st1" d="M169.3,241.2c-1.4-1.4-2.8-3-4-4.7c-1.5-2.1-2.9-4.2-4.1-6.3c-1.2-2.1-2.1-4.4-2.7-6.8
				c-0.3-1.2-0.7-3-1.1-5.4c-0.5-2.4-0.7-3.8-0.7-4.1v-18.5c0-0.3,0-0.7,0-1.4c0-0.6,0.1-1,0.5-1.4c0.6-3.6,1.4-7.1,2.3-10.4
				s2.1-6.6,3.6-9.9l0.5-0.5c1.5,0.6,2.8,0.9,3.9,0.9s2.3,0,3.9,0c2.1,0,4.2-0.2,6.1-0.7c1.4-0.3,2.8-0.5,4.3-0.6v-1.9
				c-2.8,0.9-5.9,1.4-9,1.4c-8.8,0-15.2-2.9-19.3-8.6c-0.1-0.1-0.1-0.2-0.2-0.3H150v1.7c0.2,0,0.3-0.1,0.5-0.1
				c0.3,0,1.5,0.8,3.6,2.5s3.6,2.8,4.5,3.4v0.5h0.5c0,0.6-0.4,1.3-1.1,2c-0.8,0.8-1.1,1.4-1.1,2v1.4c-0.6,1.5-1.1,3-1.4,4.5
				s-0.8,3-1.4,4.5v0.9v0.5c-0.9,3.3-1.2,6.5-0.9,9.5c-0.6,0.6-0.9,1.1-0.9,1.4c0,0.6,0.1,1,0.2,1.1c0.2,0.2,0.2,0.5,0.2,1.1
				c0,0.3-0.2,0.5-0.5,0.5s-0.5,0.3-0.5,0.9s0.1,0.9,0.2,0.9s0.2,0.2,0.2,0.5s-0.1,0.5-0.2,0.7c-0.2,0.2-0.2,0.5-0.2,1.1v0.5h0.9
				v0.5l-0.5,1.8l0.5,0.9v0.4v0.9l-0.5,0.9c0,0.6,0.2,1.4,0.5,2.3s0.5,1.7,0.5,2.3c0,0.3-0.1,0.5-0.2,0.5c-0.2,0-0.2,0.2-0.2,0.5
				v0.5v0.4l0.5,0.9c0,0.6-0.2,0.9-0.7,0.9c-0.4,0-0.7,0.3-0.7,0.9c0,0.3,0.2,0.5,0.7,0.5s0.7,0.2,0.7,0.4v0.5v1.4
				c0,0.3,0.2,0.5,0.7,0.5s0.7,0.3,0.7,0.9s-0.2,0.8-0.7,0.7c-0.5-0.1-0.7,0.1-0.7,0.7c0.3,0.3,0.7,0.6,1.1,0.9s0.7,0.6,0.7,0.9v0.5
				l-0.5,0.9c0,0.3,0.2,0.5,0.5,0.5h0.5c0.6,0.6,0.9,1.4,0.9,2.5s0.3,1.9,0.9,2.5l1.4,0.9c0,0.3-0.1,0.8-0.2,1.4
				c-0.2,0.6-0.2,1.1-0.2,1.4h1.8v2.7c0.6,0,1-0.1,1.1-0.2c0.2-0.1,0.4,0.1,0.7,0.7v0.9v0.5l1.4,0.5v1.8c0.6,0.6,1,0.9,1.2,1
				c0.1-0.1,0.2-0.2,0.4-0.3C165.8,242.4,167.3,241.7,169.3,241.2z"/>
			<path class="st1" d="M204.7,226.7c-0.2,0.7-0.3,1.4-0.3,2.2c0,2.7,1.4,5.1,4.1,7.2H208c-1.8,0-3.3-0.7-4.6-2.3
				c-1.2-1.5-1.8-3-1.8-4.5c0-0.8,0.1-1.6,0.2-2.3c-1,0-2-0.1-2.9-0.3v5.8c0,1.5,1,3.1,2.9,4.7c2,1.7,3.7,2.5,5.2,2.5
				c2.1,0,4.2-0.6,6.4-1.8c2.1-1.2,3.2-2.9,3.2-5c0-0.9-0.2-1.4-0.5-1.4c-0.9,0-1.7,0.3-2.5,0.9c-0.8,0.6-1.6,0.9-2.5,0.9
				c-2.7,0-4.1-1.5-4.1-4.5c0-2.1,0.7-3.5,2-4.1c1.4-0.6,2.8-0.9,4.3-0.9c2.4,0,4.3,0.8,5.7,2.5c1.4,1.7,2,3.7,2,6.1
				c0,3-0.8,5.6-2.5,7.9c-1.7,2.3-3.7,4.2-6.1,5.9s-5.1,2.9-8,3.6c-2.7,0.7-5.4,1.1-8,1.1c-0.1,0.5-0.1,1.3-0.1,1.4
				c0,0.2,0,0.6-0.3,0.6c-0.2,0-0.2-0.1-0.2-0.2c0-0.3,0-0.6-0.1-0.9c-0.1-0.4-0.4-0.7-1-0.9c-1.1,0-2.2-0.1-3.3-0.2
				c-0.7,0-1.3,0-1.5,0c-0.1,0-0.2,0.1-0.2,0.3v2c0,0.5,0,1.6,0,2.5c0.5,0,0.8,0.3,0.8,0.9c0.3-0.3,0.6-0.5,0.9-0.5h0.9h0.9l0.9,0.5
				l1.4-0.5l1.4,0.5h0.4c0-0.1,0.1-0.1,0.2-0.1s0.1,0,0.1,0.1c0.1,0,0.1-0.1,0.1-0.2c0-0.1,0.2-0.2,0.5-0.2h0.5l0.9,0.5h0.5
				c0.9-0.9,1.2-1.4,0.9-1.4h0.5c0.3,0,0.5,0.2,0.5,0.5s0.3,0.4,0.9,0.4h0.5l0.5-1.3h1.8l1.4-0.9h0.5h0.5l1.4,0.5h0.5
				c-0.6-0.3-0.5-0.9,0.5-1.8l1.4-0.5l0.5-0.4l0.5-0.4c0.3,0,0.7-0.1,1.1-0.2c0.5-0.1,0.8-0.2,1.1-0.2l0.5-1.3h0.5
				c0.6,0,0.9-0.2,0.9-0.5l0.5-1.4c0.3,0,0.5-0.1,0.5-0.4c0-0.3,0.1-0.5,0.5-0.5h1.8v-0.9c0-0.3,0.2-0.6,0.5-0.9l0.5-0.4
				c0.3,0,0.5-0.1,0.5-0.2c0-0.2,0.2-0.2,0.5-0.2v-2.2l1.4-0.4c0.9-1.5,1.4-3.2,1.6-5s0.2-3.4,0.2-5c0-0.6-0.2-1.2-0.5-1.8
				c-1.2-2.4-2.6-4.6-4.1-6.5s-3.8-2.9-6.8-2.9c-2.4,0-4.6,0.8-6.4,2.5c-0.9,0.8-1.6,1.8-2,2.8c0.6,0.3,1.1,0.6,1.7,0.9L204.7,226.7
				z"/>
			<path class="st1" d="M138,82.7v0.4l0.5,0.5c0,0.3,0.2,0.5,0.5,0.5l0.5-0.5l0.9-0.5v-0.4c-0.3,0-0.8-0.3-1.4-0.9L138,82.7z"/>
			<path class="st1" d="M196.2,162.5c1.8,0,3.7,0.4,5.7,1.1c2,0.8,3,2.3,3,4.7v1.4c-0.6-1.5-1.4-2.9-2.3-4.1s-2.3-1.8-4.1-1.8
				c-1.2,0-2.3,0.1-3.2,0.4c-0.9,0.3-1.7,0.6-2.6,0.9v2.3c2-0.6,3.6-0.9,4.9-0.9c3,0,4.5,1.1,4.5,3.2c0,1.2-0.5,2-1.4,2.5
				s-1.7,1-2.3,1.6h-0.5c0,0.6,0.4,0.9,1.1,0.9c0.8,0,1.3,0,1.6,0c4.2,0,6.4-2,6.4-5.9s-2.1-6.9-6.4-9H197c-1.5,0-3,0.1-4.3,0.2
				h-0.1v2.9C193.8,162.7,195,162.5,196.2,162.5z"/>
			<path class="st1" d="M193,196.4v0.9c0-0.2-0.1-0.4-0.3-0.6v0.1c0,0.9,0,1.8,0.1,2.7c0.5-0.1,0.7-0.9,0.7-2.2v2.7h-0.7
				c0,0.9,0.1,1.8,0.2,2.7h0.5c0.3,0.3,0.5,0.6,0.5,0.9l1.4-0.9c-0.3,0-0.5-0.2-0.5-0.5s0.2-0.5,0.5-0.5s0.5,0.2,0.5,0.5
				s-0.2,0.5-0.5,0.5h0.5c0,1.2-0.8,1.7-2.3,1.3c-0.1,0-0.2,0-0.4,0c0.1,0.5,0.1,0.9,0.2,1.4h0.2c1.2,0,2.1,0.6,2.7,1.8
				c-0.3,0.3-0.7,0.5-1.1,0.7c-0.5,0.2-0.7,0.4-0.7,0.7c0,0.6,0.2,1,0.5,1.1c0.3,0.2,0.5,0.5,0.5,1.1c-0.4,0-0.7-0.1-0.9-0.2
				c0.3,1,0.6,2,0.9,2.9l0,0l0,0c0.6,1.5,1.3,3,2,4.3c1.1-2.2,1.6-5,1.6-8.4c0-1.8-0.4-4.3-1.1-7.4c-0.8-3.2-1.8-6.3-3.2-9.5
				c-0.6-1.4-1.3-2.8-1.9-4.2v7.2C192.9,195.7,193,195.9,193,196.4z"/>
			<path class="st1" d="M225.3,165.7c-0.9-0.6-2.1-1.2-3.6-1.8c-0.6-0.3-0.9-0.9-0.9-1.8c-0.3,0-0.7-0.1-1.4-0.2v5.3
				c3,1.6,6,2.9,9.1,4c1.4,0.5,2.7,0.9,4.1,1.3v-3.8c-2.2-0.5-3.6-0.8-4.1-1.1C227.3,166.9,226.2,166.3,225.3,165.7z"/>
			<path class="st1" d="M137.3,124.6c-0.8-0.3-1.6-0.6-2.5-0.9h-0.5c-0.6,0-0.9,0.2-0.9,0.4c0,0.9,0.5,2.4,1.4,4.5s1.7,3.8,2.3,5
				c0.6,2.1,1,4.4,1.1,6.8c0.2,2.4,0.2,4.8,0.2,7.2c0,1.2-0.1,2.4-0.3,3.5h0.5v-15.9c0-1.3,0-2.5,0.1-3.7c-0.5-1.3-0.8-2.5-0.8-3.8
				h1.2c0.1-1,0.3-1.9,0.5-2.7c-0.1,0-0.2,0-0.3,0C138.7,125.1,138,124.9,137.3,124.6z"/>
			<path class="st1" d="M146.8,249.2c-2.3-0.3-4-0.5-5.2-0.5c0,0.3-0.2,0.5-0.5,0.5h-0.9h-0.5l-0.9-0.5c-0.3,0.3-0.5,0.6-0.5,0.9
				c0,0.3-0.2,0.5-0.5,0.5h-2.3c-0.3,0-0.5,0.2-0.5,0.5l-0.5,0.9c-0.3,0.3-1.2,1-2.7,2c-0.6,0.4-1.1,0.7-1.5,1
				c0,2.2,0.1,3.4,0.6,3.7c0.3,0.3,1,0.4,2.1,0.5c0.3-0.7,0.7-1.3,1.2-1.9c1.8-2.4,4.8-3.6,9.1-3.6c0.8,0,1.6,0.1,2.3,0.2l1.9-4.1
				C147.3,249.2,147.1,249.2,146.8,249.2z"/>
			<path class="st1" d="M123.9,164.8c-0.6,0-1.4-0.5-2.3-1.6c-0.9-1-1.8-2.2-2.5-3.4c-0.4-0.7-0.9-1.4-1.3-2.1v6.4
				c0.1,0.1,0.1,0.1,0.2,0.2c0.9,0.9,1.4,2,1.4,3.2l-0.5,0.4h-1.1v2.8c4.5-0.8,8.5-3,12-6.6c0.6-0.6,1.1-1.2,1.7-1.9h-3.4
				C126.4,164.2,125,165.1,123.9,164.8z"/>
			<path class="st1" d="M135.7,140.9c-0.6-2.1-1.4-4.4-2.3-6.8v-2.3c-0.3,0-0.6-0.2-0.9-0.5s-0.5-0.6-0.5-0.9
				c-0.3-0.3-0.5-0.6-0.5-0.9v-0.9c-0.3-0.3-0.8-0.5-1.4-0.5c0-0.3,0-0.7,0-1.4c0-0.6-0.2-0.9-0.5-0.9l-1.8-0.9
				c-0.6-0.6-0.8-1.1-0.7-1.6c0.2-0.5-0.1-1-0.7-1.6l-1.4-0.4c-0.6-0.3-0.9-0.5-0.9-0.7s-0.2-0.4-0.5-0.7c-1.5-0.9-3.2-2.2-5-3.8
				c-0.4-0.3-0.7-0.6-1.1-0.9v4c1.2,0.7,2.7,2,4.5,3.9c2.9,3,4.6,5,5.2,5.9l5.9,10.8v1.8c0.3,0.3,0.5,1.1,0.5,2.5s0,2.3,0,2.9
				s0,1.4,0,2.3s-0.2,1.4-0.5,1.4v0.4h3c0.1-1,0.2-2,0.2-3.1C136.6,145.4,136.3,143,135.7,140.9z"/>
			<path class="st1" d="M95,259.6c0.2,0,0.5,0.1,0.7,0.1c0.2-0.1,0.5-0.1,0.9-0.1h0.5c0.3,0.3,0.6,0.5,0.9,0.5
				c0.3,0.3,0.8,0.4,1.4,0.4v-0.9h0.5h0.5h0.5l0.1,0.1c0.1,0,0.2,0,0.3,0l0,0c0-0.3,0.1-0.6,0.2-1c0.2-0.6,0.5-0.9,1.1-0.9h0.5
				c0,0.2,0,0.3,0.1,0.4c0.1-0.2,0.2-0.4,0.3-0.6l2-4.5c-3.6,1.4-7.4,2.2-11.6,2.4c0,1.2,0,2.2,0.1,2.9C94,259,94.2,259.5,95,259.6z
				"/>
			<path class="st1" d="M178.9,107c0,1.2,0.4,1.9,1.1,2s1.1,0.4,1.5,0.9v-8.7C179.8,103,178.9,104.9,178.9,107z"/>
			<path class="st1" d="M83.8,271c0.6,0.2,1.1,0.2,1.4,0.2c4.8,1.8,10,2.7,15.5,2.7c1.5,0,2.8-0.1,3.9-0.5c1.1-0.3,2.2-0.4,3.4-0.4
				h0.5c5.1,6,12.1,9,20.9,9h0.9c0.6,0,1.7-0.2,3.4-0.7c1.7-0.5,2.8-1,3.4-1.6h0.9c-0.6-1.8-1.7-3.3-3.2-4.5s-2.6-3-3.2-5.4v-3.6
				c0-2.3,0.3-4.3,1-6.1c-0.1,0-0.3,0-0.4,0c-1.4,0-2.5-0.1-3.6-0.1c-0.2,0-0.5,0-0.9,0c-0.2,1.2-0.3,2-0.6,2.5l-0.9,0.9
				c-0.3,0.6-0.2,1.2,0.2,1.8c0.5,0.6,0.7,1.2,0.7,1.8v0.9c-0.3,0.3-0.5,0.6-0.5,0.9v0.5h0.5l0.5,0.4v0.5v0.9l-0.5,0.5
				c0,0.6,0.5,0.9,1.4,0.9c0.6,0.6,1.1,1.5,1.4,2.7s0.6,2.1,0.9,2.7h-2.3c-2.1,0-3.9-0.2-5.5-0.5c-0.3-0.6-1.2-1-2.7-1.1
				c-1.5-0.2-2.6-0.2-3.2-0.2v-0.5l-0.5-0.7c0-0.3-0.5-0.5-1.4-0.5V274c0-0.3-0.1-0.5-0.2-0.5c-0.2,0-0.2-0.1-0.2-0.4h-0.5
				c-0.6,0-0.9-0.2-0.9-0.5c-1.2-0.9-2-1.7-2.5-2.5s-0.7-1.9-0.7-3.4c0-3.6,2-6.2,5.9-7.8l-0.9-2.1c-0.3,0-0.6-0.1-1-0.1
				c-3,0-5.2,1.4-6.4,4.3c-1.2,2.9-1.8,5.5-1.8,7.9h-0.9l-0.9-0.4h-0.5v0.4c-0.6,0-1.5,0.1-2.7,0.2c-1.2,0.1-2.1,0.4-2.7,0.7h-0.5
				c-0.9,0-1.4-0.1-1.4-0.4h-4.1c-0.6-0.6-0.9-1.1-0.9-1.4h-0.5l-0.9,0.5h-0.5H89c-0.6-0.6-1.1-0.8-1.4-0.7
				c-0.3,0.2-0.9-0.4-1.8-1.6h-0.5c0,0.3-0.5,0.4-1.4,0.4l-0.9-0.4c-0.3-0.3-0.7-0.4-1.1-0.2c-0.5,0.2-0.8,0.2-1.1,0.2
				c-2.1-0.6-4.5-1.7-7.3-3.4c-2.7-1.7-4.9-3.2-6.4-4.7l-1.8-2.7c-0.6-0.6-1.2-1.4-1.8-2.3h-1.8c0-0.3-0.1-0.6-0.2-0.9
				c-0.2-0.3-0.2-0.6-0.2-0.9c0-0.3-0.5-0.8-1.4-1.6c-0.9-0.7-1.5-1.3-1.8-1.6c-0.6-1.2-1.1-2.7-1.6-4.5s-0.7-3.3-0.7-4.5v-0.4
				c0-0.6,0.1-1.7,0.2-3.2c0.1-1.5,0.2-2.6,0.2-3.2c0.6-0.3,1.1-0.9,1.6-1.8s0.8-1.5,1.1-1.8c1.2-2.4,3.1-4.2,5.7-5.4
				c2.6-1.2,5.1-1.8,7.5-1.8c1.5,0,3.2,0.3,5,0.9s3,1.7,3.6,3.2c0,0.6,0.3,1.2,0.9,1.8c0.3,0.6,0.6,1.1,0.9,1.4v6.3
				c0,0.9-0.8,1.7-2.3,2.3s-2.6,0.9-3.2,0.9c0.6-0.6,1.3-1.1,2-1.6c0.8-0.5,1.3-1.1,1.6-2v-2.3c0-1.2-0.3-2.9-0.9-5
				c-0.6-2.1-1.5-3.5-2.7-4.1h-1.4h-0.9h-6.4c-0.6,0-1.6,0.3-3,0.9s-2.2,1.2-2.5,1.8c-1.2,2.1-2,3.8-2.3,5s-0.5,3-0.5,5.4
				c0,3,0.7,5.7,2,8.1c1.4,2.4,2.8,4.8,4.3,7.2l0.5,0.5c0.3,0.3,0.7,0.5,1.1,0.5c0.5,0,0.7,0.2,0.7,0.5l0.4,0.4
				c0,0.3,0.1,0.5,0.5,0.5c0.3,0.6,0.5,0.8,0.7,0.5c0.1-0.3,0.5-0.3,1.1,0c0.3,0,0.7,0.3,1.1,0.9c0.5,0.6,0.8,0.9,1.1,0.9h0.9
				c0.3-0.3,0.5-0.3,0.5,0l0.5,0.5c0,0.3,0.1,0.4,0.5,0.4c0.6,0.6,1.2,0.8,1.8,0.7s1.2,0.1,1.8,0.7c0.6,0,1.5,0.1,2.7,0.2
				c1.2,0.2,2.1,0.4,2.7,0.7h0.5l0.5,0.5h1.3l0,0c0-0.1,0.1-0.3,0.4-0.3c0.4,0,0.7,0,1-0.1c0.6-0.1,0.7-0.6,0.8-1.3
				c0.1-0.6,0.1-1.6,0.1-2.8c-2.7-0.1-5.5-0.4-8.4-1.1c-3.2-0.7-6.1-2-8.9-3.6c-2.7-1.6-4.9-3.7-6.6-6.1c-1.7-2.4-2.5-5.4-2.5-9
				v-3.2c1.2-3.9,4.1-5.9,8.6-5.9c3.9,0,5.9,1.8,5.9,5.4c0,0.6-0.2,1.4-0.7,2.3c-0.5,0.9-1.1,1.4-2,1.4c-1.5,0-2.6-0.4-3.2-1.1
				c-0.6-0.8-1.2-1.1-1.8-1.1s-1,0.4-1.1,1.1c-0.2,0.8-0.2,1.4-0.2,2c0,1.5,0.7,2.9,2.3,4.1c1.5,1.2,3,1.8,4.6,1.8
				c1.5,0,3.2-0.3,5-0.9c1.8-0.6,3.2-1.7,4.1-3.2c0-0.3,0.3-1,0.9-2.3c0.3-0.6,0.5-1.1,0.5-1.4v-6.9c-0.3-0.3-0.5-0.6-0.5-0.9
				s-0.1-0.5-0.2-0.5c-0.2,0-0.2-0.1-0.2-0.4c-2.4-5.4-6.7-8.1-12.7-8.1c-6.4,0-11.4,2.3-15,6.8s-5.5,9.8-5.5,15.8
				c0,6.3,2.8,12,8.4,16.9c5.6,5,11,8.7,16.1,11.1c1.8,0.6,2.8,1,3.2,1.2"/>
			<path class="st1" d="M138.6,168.6c-0.1,0.1-0.1,0.3,0,0.6V168.6C138.6,168.6,138.7,168.6,138.6,168.6z"/>
			<path class="st1" d="M175.6,258.9c-0.2-0.3-0.4-0.5-0.6-0.8c-1.1-1.2-2.7-1.8-4.8-1.8c-1,0-1.6,0.2-1.7,0.6c1.6,1.4,3.7,2,5.5,2
				C174.6,259,175.2,259,175.6,258.9z"/>
			<path class="st1" d="M136.1,100.3c1.2,0,1.8-0.5,1.8-1.4C136.8,98.9,136.1,99.4,136.1,100.3z"/>
			<path class="st1" d="M128.2,146.3c-1.1-1.8-2.7-3.9-4.8-6.3l-5.6-5.6v6.5h1.1l0.9,1.4c1.5,1.2,2.4,2,2.7,2.5
				c0.3,0.5,0.5,1.6,0.5,3.4c0.3,0,0.6-0.1,0.9-0.2c0.3-0.2,0.8-0.2,1.4-0.2v0.9c0.6,0.9,1.4,1.7,2.3,2.5c0.1,0,0.1,0.1,0.1,0.1h5.1
				C130.6,149.5,129.1,147.9,128.2,146.3z"/>
			<path class="st1" d="M228,235.2c0,6-1.8,11-5.2,14.9c-3.5,3.9-7.2,7.5-11.1,10.8c-0.6-0.6-1.2-0.6-1.8,0l-0.5,0.5v0.5l-1.4,0.4
				c-2.4,1.2-4.9,2.5-7.5,3.8c-2.6,1.4-5.2,2-8,2h-0.9c-0.3-0.3-0.6-0.5-0.9-0.5s-0.5-0.1-0.5-0.4c-0.6,0-1.3,0.2-2,0.4
				c-0.8,0.3-1.4,0.5-2,0.5s-1.2-0.1-1.8-0.5c-0.6-0.3-1.2-0.4-1.8-0.4l-1.4,0.9c-0.9,0-1.6-0.6-2-1.8c-0.5-1.2-1-2.6-1.6-4.1
				c-0.3-0.6-0.6-1.2-0.9-1.8c-0.8,0.1-1.7,0.1-2.5,0.1c-0.3,0-0.7,0-1,0c0.1,0.1,0.2,0.2,0.3,0.4c0.6,0.6,1.1,1.6,1.4,2.9
				c0.3,1.4,0.5,2.3,0.5,2.9c0,1.5-0.4,2.4-1.1,2.7c-0.8,0.3-1.1,0.8-1.1,1.4c-1.5,3.3-4.4,5.6-8.6,6.8l-0.5,0.5
				c-0.3,0.3-0.6,0.5-0.9,0.5l-0.9-0.5h-0.7c-0.3,0-0.6,0.2-0.9,0.5s-0.6,0.5-0.9,0.5h-4.6v-0.5l1.4-1.4c0.3-0.6,0.6-1,0.9-1.4
				c0.3-0.3,0.6-0.7,0.9-1.4c0.6-0.6,0.8-1.3,0.7-2.3c-0.2-0.9-0.1-1.7,0.2-2.3c0-0.3,0.1-0.4,0.5-0.4l0.4-0.5l-0.4-0.9
				c0-0.3,0.1-0.5,0.4-0.7c0.3-0.1,0.5-0.4,0.5-0.7v-0.4c0-0.3-0.2-0.5-0.5-0.5s-0.4-0.3-0.4-0.9v-0.4c0.6,0,0.9-0.3,0.9-0.9
				c-0.3,0-0.6-0.1-0.9-0.5c-0.3-0.3-0.5-0.6-0.5-0.9v-1.8c-0.2,0-0.4-0.1-0.5-0.2c-0.6,0-1.2,0-1.9,0c-0.5,0-0.8,0-0.8-0.2
				c0-0.1,0.1-0.2,0.3-0.3c0.2,0,0.4-0.3,0.2-0.6l-2.1-5.1c-0.1-0.1-0.2-0.2-0.3-0.2h-6.4l0,0c1.8,0.6,3.3,1.6,4.5,3
				c2,2.4,3,5.4,3,9c0,3-0.6,5.4-1.8,7.2c-1.2,1.8-2.9,3.9-5,6.3v0.5c0.6,0.6,1.4,1.1,2.3,1.4c0.9,0.3,1.7,0.6,2.3,0.9
				c1.5,0,2.8,0.2,3.9,0.5c1.1,0.1,8.2-0.9,10.9-1.4c2.3-1.2,4.2-2.5,5.7-4c0.6-0.6,1.4-1.7,2.3-3.2s1.7-2.3,2.3-2.3
				c1.5,0,2.9,0.1,4.1,0.2c1.2,0.2,2.6,0.2,4.1,0.2c4.9,0,9.9-0.8,15.2-2.5c5.3-1.6,10.2-4.1,14.8-7.2c4.5-3.2,8.3-6.9,11.1-11.3
				c2.9-4.4,4.3-9.3,4.3-14.7c0-1.8-0.5-3.9-1.4-6.3c-0.5-1.2-1-2.3-1.5-3.4c-1-0.1-2.1-0.2-3.1-0.3
				C227.2,229.2,228,232.1,228,235.2z"/>
			<path class="st1" d="M193.9,207.9c0.3,0.2,0.6-0.1,0.9-0.7v-0.5l-0.5-0.5h-1c0.1,0.5,0.2,1,0.3,1.6
				C193.7,207.8,193.8,207.8,193.9,207.9z"/>
			<path class="st1" d="M158,151.2c0-0.2,0.1-0.4,0.2-0.4c0.2,0,0.2-0.1,0.2-0.5h0.5c-0.3-1.2,0-1.7,0.9-1.6
				c0.9,0.2,1.5-0.2,1.8-1.1v-0.9l1.4-0.9c0.3,0,0.5-0.1,0.5-0.4v-0.9h0.9c0.3,0,0.6,0.2,0.9,0.5c0-0.3-0.1-0.8-0.2-1.4
				c-0.2-0.6-0.2-1-0.2-1.4c0.3,0,0.8-0.3,1.4-0.9s0.9-1,0.9-1.4c0-0.3,0.3-0.6,0.9-0.9h0.9c0.3,0,0.5-0.1,0.5-0.5
				c0-0.3,0.1-0.6,0.2-0.9c0.2-0.3,0.2-0.6,0.2-0.9l0,0h-4.4c-0.6,0.7-1.2,1.3-1.8,2.1c-2,2.3-3.8,4.3-5.5,6.1
				c-1.7,1.8-2.8,3.2-3.4,4.1c-0.9,0.9-1.5,1.4-1.8,1.4c-0.6-1.5-1-2.7-1.1-3.6c-0.2-0.9-0.2-2.1-0.2-3.6c0-3.6,0.8-6.9,2.3-9.9
				c0.3-1.2,1-2.7,2-4.5c0.6-1.1,1.3-2.1,2.1-3.2c-0.5-0.1-1.1-0.1-1.7-0.1c-0.7,0-1.4,0.1-2,0.2c-1.4,2.3-2.6,4.5-3.4,6.5
				c-0.5,1.1-0.9,2.4-1.2,3.7v15.3L158,151.2L158,151.2z"/>
			<path class="st1" d="M108.4,198.6c0,1.8-0.6,2.9-1.8,3.2c0,0.3,0.1,0.6,0.5,0.9h1.8c0.6,0.6,1,1.7,1.1,3.2
				c0.2,1.5,0.2,2.6,0.2,3.2v0.5l-0.9-0.9c-0.3-0.3-0.5-0.6-0.5-0.9h-0.5l0.5-0.4c0-0.9-0.5-1.4-1.4-1.4c-0.9,0.9-1.4,2.1-1.4,3.6
				v0.5c0,0.6,0.2,0.9,0.5,0.9l1.4-1.4c0.3,0.3,0.5,0.6,0.5,0.9c0,0.6-0.1,1-0.2,1.1c-0.2,0.2-0.2,0.4-0.2,0.7h0.9h0.5v0.4
				c-0.3,0.3-0.6,0.5-0.9,0.5l-0.5,0.4l-0.5,0.5c0,0.9,0.5,1.4,1.4,1.4l-2.7,1.3l2.3,1.4H104v0.9c0,0.3,0.1,0.4,0.5,0.4
				c0.3,0.3,0.6,0.5,0.9,0.5v0.4l-0.5,0.5c0,0.3-0.2,0.5-0.5,0.5c-0.6-0.5-0.9-0.9-1-1.1l-1.3,3.8c0,0.3,0.1,0.5,0.5,0.5h0.9
				c0,0.6-0.5,0.9-1.4,0.9h-0.5c-0.6-0.9-1.1-1.8-1.6-2.7c-0.5-0.9-0.7-2-0.7-3.2h-0.5c-0.9,0-1.3,0.7-1.1,2c0.1,1.4-0.2,2-1.1,2
				c-0.9,0-1.7-0.5-2.5-1.4s-1.1-1.8-1.1-2.7c0-0.3,0.1-0.4,0.4-0.4h0.5c-0.3-1.2-0.8-1.7-1.6-1.4c-0.8,0.3-1.1-0.1-1.1-1.4
				c0-0.3,0.2-0.5,0.7-0.7c0.5-0.1,0.7-0.5,0.7-1.1c-0.3-0.3-0.6-0.5-0.9-0.5c-0.4,0-0.7,0-0.9,0.1v-2.8c0-3.9,0.6-7.7,1.8-11.3
				c1.2-3.6,2.7-7.1,4.5-10.4c0.8-1.3,1.7-2.1,2.8-2.2v-0.1h6.9V187c-0.2-0.4-0.4-0.8-0.6-1.2c-1.5-3.2-2.3-4.9-2.3-5.2l-3.2-3.6
				v-6.8c0.3,0.3,1.1,0.7,2.3,1.1c1.2,0.5,2,0.8,2.3,1.1c0.3,0.2,0.8,0.4,1.5,0.6v-2.7c-1-0.4-1.9-0.9-2.8-1.5
				c-0.6-0.6-1.9-1.5-3.9-2.7s-3.3-2-3.9-2.3c-1.2-0.9-3.2-1.4-5.9-1.4H88c-2.3,1.1-4,2.5-5.1,4.2v7.5c0,0,0,0,0.1,0
				c1.8,0.6,3.5,0.9,5,0.9c0-1.5-0.5-2.5-1.4-3.2c-0.9-0.6-1.4-1.6-1.4-3.2c0-2.4,1.2-3.6,3.6-3.6c2.4,0,4.8,0.4,7.1,1.1
				c2.3,0.8,3.4,2.5,3.4,5.2c0,0.3-0.3,1.4-0.9,3.2c0.6,0.6,0.9,1.1,0.9,1.4v0.5l-5.5,9.9c-0.9,4.2-2.1,8.3-3.6,12.4
				s-2.3,8.5-2.3,13.3c0,3.3,1,6.8,3,10.6c2,3.8,5.1,5.6,9.3,5.6c3.6,0,6.5-1.3,8.6-3.8c2.1-2.6,3.6-5.5,4.5-8.8v-5.7
				c0-3.3-0.3-6.2-0.9-8.6c-0.2-0.9-0.6-1.9-0.9-3h-3.2v0.3H108.4z M98.2,181.9c0.1-0.6,0.8-0.9,2-0.9c2.1,0,3.2,1.2,3.2,3.6
				c-0.6,0-1.1-0.1-1.6-0.4s-1-0.5-1.6-0.5c-1.2,0-2.1,0.3-2.7,0.9C97.8,183.4,98,182.5,98.2,181.9z M108.9,221.2h-0.5l-1.4-1.4h1.8
				v1.4H108.9z"/>
			<path class="st1" d="M174.3,129.9v2.5c0.4-0.3,0.8-0.5,1.2-0.3c0.5,0.2,1,0.2,1.6,0.2c-0.3-0.3-0.4-0.6-0.4-0.9v-0.9h1.4v-1.8
				c0.3-0.3,1.1-0.5,2.3-0.5v-1.3c0-0.3,0.2-0.6,0.5-0.9s0.5-0.5,0.8-0.6v-4.7c-1.8,1.7-3.1,2.6-4,2.6h-1.1c-0.6-0.6-1-1.1-1.1-1.6
				c-0.2-0.5-0.5-0.8-1.1-1.1c-0.6-0.6-1-1.4-1.1-2.5c-0.2-1-0.2-1.9-0.2-2.5l-0.5-0.5c-0.3-0.3-0.8-0.6-1.4-0.9s-1.2-0.6-1.8-0.9
				l-0.5-0.5h-0.5c-0.9,0-1.9,0.4-3,1.1c-0.1,0.1-0.2,0.1-0.2,0.2c0.2,0.1,0.4,0.3,0.7,0.4C171.5,117.8,174.3,122.9,174.3,129.9z"/>
			<path class="st1" d="M53.6,200c2.1,3.3,3.2,7.1,3.2,11.3c-1.2,3.9-2.7,6.9-4.3,9c-1.7,2.1-4.9,3.2-9.8,3.2s-8.9-1.7-12.3-5
				c-0.6-0.6-1.7-1.8-3.4-3.6c-1.7-1.8-2.8-3-3.4-3.6c-0.9-1.2-1.4-2.3-1.6-3.2c-0.2-0.9-0.5-1.8-1.1-2.7c-0.3,0-0.6-0.1-0.9-0.5
				c-0.3,0-0.5-0.2-0.5-0.4v-1.8H19c-0.6-0.6-1-1.2-1.1-1.8c-0.2-0.6-0.4-1.2-0.7-1.8c-0.6-0.9-1.2-1.9-1.8-2.9s-1.1-2.2-1.4-3.4
				v-1.9c-0.3,0-0.6-0.1-0.9-0.4c-0.3-0.3-0.5-0.6-0.5-0.9v-1.8c-0.9-0.3-1.4-1.4-1.4-3.2c0.6,0,1.4,0.2,2.3,0.5
				c0.9,0.3,1.8,0.4,2.7,0.4c0-0.9,0.2-1.5,0.5-1.8h0.9H19l0.5-1.4l1.8-0.5v-0.4c0-0.3,0.1-0.5,0.2-0.5c0.1,0,0.2-0.1,0.2-0.4
				l0.9-0.5l-0.5-0.9l0.9-0.4v-0.5v-0.3c-0.3-0.3-0.5-0.6-0.5-0.9v-0.9l0.9-0.9l-0.9-1.3l1.4-1.4c0.3-1.5,0-2.5-0.9-2.9
				s-1.7-1.1-2.3-2c-0.6-0.3-1.5-0.8-2.7-1.4s-2.1-1.1-2.7-1.4c-0.3,0-0.6-0.1-0.9-0.2c-0.3-0.1-0.6-0.2-0.9-0.2
				c-0.3,0-1.3,0.2-3,0.7s-2.8,0.8-3.4,1.1c-0.3,0-0.4,0.2-0.2,0.4c0.1,0.3-0.1,0.5-0.7,0.5c-0.6,0-0.9-0.3-0.9-0.9s0.1-1,0.5-1.1
				c0.3-0.1,0.5-0.5,0.5-1.1c-0.6-1.8-0.9-3.6-0.9-5.4s0-3.8,0-5.9v-4.5l0.9-2.3l-0.9-0.4l0.5-0.9c-0.3-0.3-0.5-0.6-0.5-0.9v-0.4
				v-0.5l0.9-0.9l-0.5-1.4V140c0-1.2,0.2-2.2,0.7-2.9c0.5-0.7,0.8-1.6,1.1-2.5c1.2-3.9,2.3-6.1,3.4-6.5c1.1-0.5,3.1-1.4,6.1-2.9h6.8
				c0.3,1.2,1.2,1.9,2.7,2c1.5,0.2,2.3,1,2.3,2.5v5.4l-0.3,0.8c-0.6,1.8-1.3,3.2-2,4.3c-0.8,1.1-2.4,1.6-4.8,1.6
				c0-1.5,0.6-2.6,1.8-3.4c1.2-0.7,1.8-2,1.8-3.8c0-4.8-2.1-7.2-6.4-7.2c-0.3,0-1,0-2,0c-1.1,0-1.8,0.2-2,0.5
				c-1.8,1.2-3.3,2.9-4.6,5.2c-1.2,2.3-1.8,4.4-1.8,6.5c0,2.4,0.5,4.5,1.6,6.3s2.3,3.8,3.9,5.9l0.5,0.5l0.9,0.4
				c0.6,0,0.9,0.3,0.9,0.9s0,1.1,0,1.4c0-0.3,0.2-0.5,0.5-0.5h0.5h0.5c0,0.3,0.1,0.5,0.5,0.5c0.3,0.3,0.6,0.4,0.9,0.4
				c0.3,0.6,1.4,1,3.4,1.1c2,0.2,3.3,0.5,3.9,1.1c0.3,0.3,0.5,0.6,0.5,0.9s0.1,0.4,0.5,0.4c0.6,0,1.1-0.3,1.4-0.9
				c0,1.2,0.3,1.8,0.9,1.8c0.6,0,0.8-0.3,0.7-0.9c-0.2-0.6-0.1-0.9,0.2-0.9h0.9l0.5,0.5c0,0.3,0.2,0.4,0.5,0.4l0.9-0.9h0.9h0.9
				l1.4,0.9c0.6,0,1.2-0.1,1.8-0.4s1.2-0.5,1.8-0.5h1.4h0.9c0.3,0.3,0.6,0.5,0.9,0.5c0.3,0.3,0.6,0.4,0.9,0.4
				c0.3-0.3,0.8-0.6,1.4-0.9c0.6-0.6,1.2-0.9,1.8-0.9c0.9,0,1.5,0.2,1.8,0.4v-0.9h0.9c0.6,0,1.1-0.2,1.4-0.5l0.5-1.3h2.3l0.9-0.5
				c0.6-0.6,1.4-1.1,2.5-1.6s1.9-0.8,2.5-1.1c1.2-0.6,2.2-1,3-1.1c0.7-0.1,1.4-0.5,2-1.1l0.5-0.5h1.8c0.3,0,0.5-0.2,0.5-0.4v-0.9
				h1.4c0.3-0.3,0.5-0.7,0.5-1.4c0-0.6,0.1-0.9,0.5-0.9h0.5c0,0.3,0.1,0.4,0.4,0.4h0.9c0-1.2,0.3-1.8,0.9-1.8l0.2,0.1v-5.4
				c-2.8,1.9-5,3.4-6.6,4.4c-0.3,0.6-1.1,1.2-2.3,1.8c-1.2,0.6-2,1.1-2.3,1.3c-1.2,0.6-3.5,1.7-6.8,3.2s-5.6,2.6-6.8,3.2
				c-4.5,1.5-8.8,2.3-12.7,2.3c-2.4,0-5-0.3-7.7-0.9s-5.2-1.5-7.5-2.7s-4.2-2.8-5.7-4.7c-1.5-2-2.3-4.4-2.3-7.4
				c0-0.6,0.3-2.1,0.9-4.5c0.6-2.4,1.4-3.6,2.3-3.6h5c0.6,0,1.1,0.5,1.4,1.4c0.3,0.9,0.5,1.7,0.5,2.2c0,0.6-0.2,1.4-0.5,2.3
				s-1.1,1.4-2.3,1.4c-0.6,0-1.1-0.1-1.6-0.2c-0.5-0.2-1-0.2-1.6-0.2l-0.5,0.5l-0.5,0.4c0,2.1,0.9,3.7,2.7,4.7
				c1.8,1.1,3.5,1.6,5,1.6c3,0,5.5-1.3,7.3-3.8c1.8-2.6,2.7-5.3,2.7-8.3c0-3.6-1.4-6.5-4.3-8.6c-2.9-2.1-6-3.2-9.3-3.2
				c-3.6,0-6.6,1.1-8.9,3.2c-2.3,2.1-4.1,4.7-5.5,7.7s-2.3,6.2-2.7,9.5c-0.5,3.3-0.7,6.3-0.7,9c0,1.2,0.2,3.6,0.4,6.3
				c0.2,2.7,0.9,5.1,1.3,7.8c0.4,2.7,0.8,5.1,1.1,7.2s0.8,3.2,1.4,3.2c1.2,0,1.5-1.1,2-3.1s2.3-2.9,5.7-2.9c3.6,0,5.5,2.1,5.5,6.3
				c0,1.8-0.8,3.2-2.3,4.3c-1.5,1.1-3,1.6-4.6,1.6c-0.9,0-1.7-0.2-2.5-0.7c-0.8-0.4-1.6-0.7-2.5-0.7c-0.3,0-0.5,0.5-0.5,1.4v0.5
				c0,0.6,0.2,1.7,0.7,3.4c0.4,1.7,0.8,2.6,1.1,2.9c0,0.6,0.5,2.2,1.4,4.7c0.9,2.6,1.5,4.1,1.8,4.7c1.2,3.3,2.9,6.7,5,10.2
				s4.5,6.7,7.3,9.7c2.7,3,5.8,5.4,9.1,7.2c3.3,1.8,7.1,2.7,11.4,2.7s8-1.6,11.1-4.7c3.2-3.2,4.8-6.8,4.8-11.1
				c0-1.5-0.2-3.1-0.5-4.7c-0.3-1.7-0.8-3.2-1.4-4.7c-0.5-1.2-1.1-2.3-1.8-3.4h-4.7C52.9,198.9,53.2,199.5,53.6,200z"/>
			<path class="st1" d="M175.9,196.1c-1.7,3.8-2.5,7.8-2.5,12c0,9,3.8,15.2,11.4,18.5h1.4c2.4,0,4.1-0.4,5-1.3
				c0.6-0.5,1.1-1,1.6-1.5c-1.7-1.3-3.2-3-4.6-5c-1.1,1-2.4,1.5-3.8,1.5v-0.9h-0.9l-0.9,0.9c-2.1,0.3-3.5-0.5-4.1-2.5
				s-1.2-3.7-1.8-5.2v-4.1c0-0.9,0.1-2.6,0.4-5s0.8-4.8,1.4-7.2c0.6-2.4,1.4-4.5,2.5-6.3c0.2-0.3,0.4-0.6,0.7-0.9v-7.9
				c-0.7,1-1.1,2.2-1.3,3.5C179.1,188.5,177.6,192.4,175.9,196.1z M187.1,221.2c0.3,0,0.5,0.2,0.5,0.5s0.2,0.4,0.5,0.4l0.9,0.5
				c-0.3,0.3-0.5,0.6-0.5,0.9H188c-0.3-0.3-0.5-0.7-0.5-1.4v-0.4c0,0.3-0.2,0.4-0.5,0.4s-0.5-0.2-0.5-0.4
				C186.6,221.3,186.8,221.2,187.1,221.2z"/>
			<path class="st1" d="M178,146.3c-0.3,0.3-0.6,0.5-0.9,0.5s-0.4,0.2-0.4,0.4l-3.6,3.6c-0.9,0-1.7,0.5-2.3,1.6
				c-0.6,1.1-1.2,1.9-1.8,2.5l-1.4,0.4c0,1.2-0.3,2.1-0.9,2.7c0,0.8-0.4,1.4-1.3,1.6v2.6h-1.2c-0.3,0.6-0.8,1.1-1.6,1.6
				c-0.9-0.4-1.9-0.9-3-1.6h-3.4c0.2,0.2,0.5,0.5,0.7,0.7c4.1,3.9,8.9,5.9,14.3,5.9c4.7,0,8.1-1.2,10.4-3.6v-3.6
				c-0.3,1.9-1.7,3.2-4.2,3.9c-2.9,0.8-5.1,1.1-6.6,1.1h-2.3c-1.2,0-1.8-0.3-1.8-0.9v-0.5c0.6-1.5,1.4-2.9,2.5-4.3s2-2.5,3-3.4
				c0.3-0.6,1.3-1.8,3-3.6c1.7-1.8,2.8-3,3.4-3.6c0.5-0.5,1.6-1.5,3.1-2.9v-4.3c-0.5,0.5-1,0.9-1.5,1.3
				C179,145.4,178.3,146,178,146.3z"/>
			<path class="st1" d="M178,157.1c1.2,0.3,2.1,0.6,2.7,0.9c0.4,0.2,0.7,0.8,0.8,1.6v-5.2C179.5,154.4,178.3,155.3,178,157.1z"/>
			<path class="st1" d="M265.8,179.7c1.5,0.6,2.7,1.3,3.4,2c0.7,0.8,1.7,1.1,2.9,1.1l1.4-0.5h2.3c0,0.6-0.5,2.2-1.6,4.7
				c-1.1,2.6-1.9,4.1-2.5,4.7c0,0.3-0.2,0.4-0.5,0.4l-0.9,0.5c0.9,0.9,1.2,1.4,0.9,1.4v0.4l-0.9,0.5v1.8l-0.9,0.9l-0.9,0.9v1.4
				c-0.1,0.3-0.2,0.7-0.3,1c0,3-0.4,5.8-1,8.4c0.8-1.2,1.6-2.4,2.4-3.7c3.2-5.3,5.8-10.7,7.7-16.3c2-5.6,3-10,3-13.3
				c-1.5,0-3,0.4-4.3,1.1c-1.4,0.8-2.8,1.1-4.3,1.1c-1.8,0-3.3-0.8-4.3-2.5c-0.5-0.8-0.9-1.6-1.2-2.4h-4.1
				C262.8,175.5,264,177.6,265.8,179.7z"/>
			<path class="st1" d="M133,221.4v-0.3l0.5-0.9c0.3-0.6,0.5-1.6,0.7-2.9c0.1-1.4,0.2-2.3,0.2-2.9s-0.1-1-0.2-1.1
				c-0.2-0.1-0.2-0.5-0.2-1.1c0-1.2,0.5-1.8,1.4-1.8c-0.3-0.3-0.5-0.6-0.5-0.9c-0.3-0.3-0.5-0.6-0.5-0.9v-0.9c0-0.6,0.1-0.8,0.5-0.7
				c0.3,0.2,0.5,0.1,0.5-0.2c0-0.6-0.1-0.9-0.2-0.9c-0.2,0-0.2-0.3-0.2-0.9c0-0.3,0.1-0.5,0.2-0.7c0.2-0.2,0.2-0.5,0.2-1.1v-0.4
				l-0.5-1.4l0.5-0.5v-0.4c0-0.6-0.2-0.9-0.5-0.9s-0.5-0.1-0.5-0.5c0-0.3,0.1-0.6,0.2-0.9s0.2-0.6,0.2-0.9c0-0.6-0.2-1.3-0.5-2
				s-0.5-1.4-0.5-2s0.1-0.9,0.5-0.9l-0.9-2.7l0.5-0.9l-0.5-0.9c-0.3-0.6-0.4-1.3-0.2-2c0.2-0.7-0.1-1.1-0.7-1.1l0.9-2.3h-0.9
				c-0.3,0-0.5-0.1-0.5-0.5l-0.5-0.4l0.9-1.8l-1.8-0.5v-0.4l0.5-0.9c0-0.6-0.5-0.9-1.4-0.9c-0.3-0.6-0.5-1.1-0.5-1.4
				s-0.1-0.5-0.2-0.7c-0.2-0.1-0.2-0.4-0.2-0.7l-0.5-0.4v-1c0-1.5,1.1-3.2,3.2-5.2s3.6-2.9,4.6-2.9h0.5c0,0.3,0.2,0.8,0.5,1.4
				s0.5,1.1,0.5,1.4c0.3,0,0.5,0.1,0.5,0.4c0.4,0.2,0.6,0.4,0.7,0.5v-6.2h-5c-0.5,0.7-1,1.4-1.6,2.1c-3.9,4.7-8.6,7.2-14.3,7.6v2.3
				h5.6l0.5,0.9c2.7,4.8,4.5,10.2,5.5,16c0.9,5.9,1.4,11.5,1.4,16.9c0,3.6-0.4,7.1-1.1,10.6c-0.5,2.4-1.2,4.7-1.9,7
				C129.5,224.6,131.3,223.2,133,221.4z"/>
			<path class="st1" d="M107.8,252.3c-0.1,0.1,0,0.2,0.1,0.2h5.3c0.1,0,0.2-0.1,0.1-0.1l-1.2-2.9c-1.3,0.9-2.7,1.7-4.2,2.4
				L107.8,252.3z"/>
			<path class="st1" d="M117.5,250.3c1.2-1.7,2.6-2.6,4.1-2.9c0.3-0.3,0.6-0.7,0.9-1.4c0.3-0.3,0.5-0.6,0.7-0.9
				c0.1-0.3,0.4-0.6,0.7-0.9c0-0.3,0.3-1,0.9-2c0.1-0.2,0.2-0.3,0.3-0.5c-0.1,0-0.2,0-0.3,0c-0.3,0-0.5-0.1-0.5-0.3s0.2-0.2,0.6-0.2
				c0.1,0,0.3,0,0.5,0c0.3-0.6,0.6-1.1,0.8-1.5l0.5-0.5c0-0.3,0.1-0.4,0.5-0.4c0.6,0,0.9-0.2,0.9-0.5c-0.3-0.6-0.5-1-0.5-1.4
				c0-0.6,0.5-0.7,1.4-0.4v-2.7l0.9-0.5c0.3-0.3,0.5-0.8,0.5-1.6c0-0.7,0-1.3,0-1.6h0.5c0.3,0,0.5-0.2,0.7-0.5s0.4-0.5,0.7-0.5
				c-0.6,0-0.9-0.4-0.9-1.4c0-0.6,0.4-1,1.1-1.2c-1.6,0.3-3.2,0.4-5,0.4c-0.2,0.6-0.4,1.2-0.6,1.8c-2.3,7.8-6.2,14-11.7,18.6
				c0.6,1.3,1.2,2.6,1.8,3.9C116.9,251.1,117.2,250.7,117.5,250.3z"/>
			<path class="st1" d="M185.5,214.6c0.1-0.4-0.4-0.7-1.6-0.7c0,1.5,0.1,2.2,0.5,2c0.3-0.1,0.8,0.1,1.4,0.7c0.3,0.3,0.5,0.6,0.5,0.9
				c0,0.6,0.1,0.9,0.5,0.9h1.3c-0.6-1-1.3-2.1-1.8-3.2C185.6,215.1,185.4,214.9,185.5,214.6z"/>
			<path class="st1" d="M93.8,214l0.5,0.5h0.5c0.9,0,1.4-0.5,1.4-1.4c-0.3,0-0.8,0-1.4,0C94.1,213.1,93.8,213.4,93.8,214z"/>
			<path class="st1" d="M125.2,67.1c0-0.8,0.3-1.4,0.9-2l0.9-5l0.5-0.4l-0.5-1.4c0-0.3,0.1-0.8,0.2-1.6c0.2-0.8,0.5-1.3,1.1-1.6v-5
				c0.6-1.2,0.9-2.5,0.9-4.1l-0.5-0.9c0-0.9,0.2-1.7,0.5-2.5c0.3-0.7,0.5-1.4,0.5-2c-0.3,0-0.5-0.1-0.5-0.5v-0.9v-0.3
				c0-0.3,0.1-0.5,0.2-0.5c0.2,0,0.2-0.1,0.2-0.4v-3.2v-3.2c0-0.6-0.1-2-0.2-4.1c-0.2-2.1-0.4-3.5-0.7-4.1h-0.5
				c-0.3,0-0.5-0.3-0.5-0.9v-0.9c-0.6-1.5-1.8-3.5-3.6-6.1c-1.8-2.6-3.8-3.8-5.9-3.8h-6.6l-0.9,0.5c-3,1.8-4.6,4.5-4.6,8.1V23
				c1.2,3,3.5,4.5,6.8,4.5c0.6,0,1.3-0.1,2-0.5c0.8-0.3,1.4-0.4,2-0.4c0.9,0,1.4,0.6,1.4,1.8c0,0.6-0.2,1-0.7,1.1
				c-0.5,0.2-0.7,0.5-0.7,1.1v0.5c0.9-0.3,1.4,0,1.6,0.9c0.1,0.9,0.2,1.7,0.2,2.3c0,0.3-0.1,0.6-0.2,0.9c-0.2,0.3-0.2,0.6-0.2,0.9
				h-0.5l-0.9-0.5c-0.6-0.3-1.4-0.9-2.5-1.8s-1.9-1.5-2.5-1.8H111l-0.9-0.4v-0.5c-1.2-1.5-2.6-2.5-4.1-3.2c-1.5-0.6-2.3-2.3-2.3-5
				c0-5.1,1.5-9.2,4.5-12.2c0.3-0.3,0.6-0.4,0.9-0.4s0.6-0.1,0.9-0.5c0.6-0.6,1.4-1.4,2.3-2.3s2.1-1.4,3.6-1.4h2.7
				c0.9,0,1.4-0.3,1.4-0.9h0.5c0,0.3,0.2,0.5,0.5,0.5h0.9c0.3,0,0.5-0.1,0.7-0.5c0.1-0.3,0.4-0.5,0.7-0.5h0.5h1.4
				c0.6,0,1.4-0.1,2.3-0.4s1.7-0.4,2.3-0.4h1.4c-0.3,0.6-0.7,1.4-1.1,2.5c-0.5,1.1-0.7,1.9-0.7,2.5c0,2.4,0.9,5,2.7,7.7
				c0.6,0.9,1.2,1.5,1.8,1.8c0.6,0.3,0.7,1.1,0.5,2.3c0.9-0.3,1.3-0.2,1.1,0.2c-0.2,0.4,0.1,0.8,0.7,1.1l1.4-0.4l0.5-0.5v0.5
				l0.5,0.4c0,0.3,0.2,0.5,0.5,0.5h0.9c0.3,0,0.5-0.1,0.5-0.5h0.9c0.9,0,1.5,0.5,1.8,1.4c0.3-0.6,1.6-1.4,3.9-2.3s3.7-1.7,4.3-2.3
				l0.5-1.8h0.5c0.6,0,0.9-0.1,0.9-0.4c0.6-0.6,1.1-1.7,1.4-3.4c0.3-1.7,0.5-2.8,0.5-3.4c0-1.2-0.4-2.3-1.1-3.2
				c-0.8-0.9-1.1-1.9-1.1-3.2c0.9,0,1.9,0.2,3,0.7s2,0.7,3,0.7l0.5-0.9h0.5h0.5l0.4,0.4c0,0.3,0.1,0.4,0.5,0.4h0.9h0.5h0.5h0.9h1.4
				h0.5c0.6,0,1.1,0.2,1.4,0.7s0.8,0.7,1.4,0.7l0.9-0.5c1.5,0,3.4,1.1,5.7,3.4s3.6,3.8,3.9,4.7c0.6,0.9,0.8,1.7,0.7,2.3
				c-0.2,0.6-0.2,1.4-0.2,2.3c0,2.7-0.8,5-2.3,7s-3.3,3.7-5.5,5.2c-1.2,0.9-2.1,2-2.7,3.2s-1.7,2.1-3.2,2.7
				c-0.6-0.3-0.9-0.9-0.9-1.8s0-1.6,0-2.3c0-0.6,0.3-2.2,0.9-4.7c0.6-2.6,1.1-3.8,1.4-3.8c1.2,1.2,2.3,1.8,3.2,1.8
				c1.8,0,3.5-0.7,5-2.3c1.5-1.5,2.3-3.2,2.3-5c0-0.6-0.1-1.3-0.2-2c-0.2-0.7-0.4-1.9-0.7-3.4c-2.1-2.1-4.9-3.2-8.2-3.2
				c-4.9,0-8,1.8-9.3,5.4c-1.4,3.6-2.8,7.1-4.3,10.4c0,0.6-0.1,2.3-0.2,5c-0.2,2.7-0.2,4.4-0.2,5V40v4.5c0.6,1.5,1,3.1,1.1,4.7
				s0.4,3.2,0.7,4.7v0.9c0,0.3,0.2,0.4,0.5,0.4c0.3,0.6,0.7,2.2,1.1,4.7c0.5,2.6,0.8,4.1,1.1,4.7c-0.6,1.8-0.2,3.5,1.1,5.2
				c1.4,1.7,1.7,3.4,1.1,5.2l0.9,0.4c-0.3,0-0.5,0.3-0.5,0.9v0.5v0.5c0,0.6,0.3,0.8,0.9,0.7c0.6-0.2,0.9,0.1,0.9,0.7
				c-0.3,0-0.5,0.2-0.5,0.4V80l0.5,0.4v0.9v0.9c0.9,0.9,1.4,1.2,1.4,0.9l0.5,1.8c0.3,0.3,0.5,0.6,0.7,0.9s0.4,0.6,0.7,0.9
				c0,0.3-0.1,0.5-0.2,0.5c-0.2,0-0.2,0.2-0.2,0.5v0.4v0.5c0,0.3,0.2,0.5,0.5,0.5h0.5c0.6,0.3,0.8,0.5,0.5,0.7s-0.2,0.5,0.5,1.1
				l0.9,1.3c0.6,0.9,0.9,1.7,0.9,2.5s0.8,1.1,2.3,1.1c1.2,0,2.2-0.6,3-1.8c0.8-1.2,1.4-2,2.1-2.3c0-0.6,0.4-0.9,1.4-0.9v-0.5
				l-0.5-1.4c0-0.6,0.1-1.3,0.2-2c0.2-0.7,0.2-1.4,0.2-2c0-0.4,0-0.8-0.1-1.2c-1-1.1-2.2-2.2-3.6-3.1c0.7-0.4,1.4-0.9,2.1-1.3
				c-0.9-1.5-1.8-2.9-2.9-4.3c-0.3,0-0.5-0.2-0.5-0.5s0.1-0.4,0.5-0.4V75l0.5-0.5c1.2,0,2.6,1,4.3,2.9c0.1,0.1,0.2,0.2,0.2,0.3
				c0.5-0.4,1.1-0.9,1.6-1.4c-0.3-0.3-0.6-0.6-0.9-0.9c-2.6-3-5.5-5.3-8.9-6.8c-2.4-0.6-4.7-0.9-6.8-0.9c-0.6-0.3-1.1-1.3-1.6-2.9
				c-0.5-1.7-0.7-2.8-0.7-3.4c0-0.9-0.2-2.4-0.7-4.5s-0.8-4.3-1.1-6.5c-0.3-2.3-0.7-4.4-1.1-6.3c-0.5-2-0.7-3.4-0.7-4.3V38
				c0-1.5,0-3.2,0-5.2c0-1.9,0.1-3.7,0.5-5.2c0.3-2.7,1.1-5.9,2.3-9.5c1.2-3.6,3.5-5.4,6.8-5.4c1.5,0,3,0.5,4.3,1.4
				c1.4,0.9,2.1,2.1,2.1,3.6c0,0.9-0.2,2-0.7,3.2s-1.3,1.8-2.5,1.8s-2-0.5-2.3-1.6c-0.3-1-1.1-1.6-2.3-1.6c-1.5,0-2.7,1.7-3.4,5
				c-0.8,3.3-1.1,5.7-1.1,7.2s0.5,3.8,1.4,7s2.1,4.7,3.6,4.7c0.3,0,0.7-1,1.4-2.9c0.6-1.9,1.2-3.2,1.8-3.8c1.5-1.8,3-3.3,4.6-4.5
				c1.5-1.2,2.9-2.4,4.1-3.6s2.2-2.6,3-4.3c0.8-1.7,1.1-3.8,1.1-6.5c0-6-2.2-10.1-6.6-12.2c-5.3-4.2-19.3-5.4-19.3-5.4
				c-1.5,0-3.1,0-4.8,0c-1.7,0-3.3,0.3-4.8,0.9v0.5c0.3,0.6,0.7,1.1,1.1,1.6c0.5,0.5,0.8,1,1.1,1.6c0.6,0.6,1,1.4,1.1,2.5
				c0.2,1.1,0.2,1.9,0.2,2.5c0,0.3-0.1,0.8-0.2,1.6c-0.2,0.8-0.2,1.3-0.2,1.6c-1.5,3.6-4.1,5.4-7.7,5.4c-2.4,0-4.4-0.9-5.9-2.7
				c-1.5-1.8-2.3-3.9-2.3-6.3c0-1.5,0.8-3.2,2.5-5s2.5-2.9,2.5-3.2l-0.9-0.9h-1.8c-3.3,0-7.1,0.2-11.1,0.7c-4.1,0.5-8,1.4-11.6,2.7
				c-3.6,1.4-6.7,3.4-9.1,6.1s-3.6,6.2-3.6,10.4c0,5.1,1.3,8.7,3.9,10.6c2.6,2,5.8,4.1,9.8,6.5v0.5c0.6,1.2,1.1,2.6,1.6,4.3
				c0.5,1.7,1.3,2.8,2.5,3.4c1.5-1.5,2.6-3.5,3.4-5.9s1.1-4.7,1.1-6.8c0-1.5-0.5-4-1.6-7.5c-1.1-3.4-2.5-5.2-4.3-5.2
				c-0.6,2.4-2,3.6-4.1,3.6c-2.7,0-4.1-1.2-4.1-3.6c0-3.6,1.8-5.4,5.5-5.4c4.8,0,8,2.3,9.3,7c1.4,4.7,2,9,2,12.9
				c0,6.9-0.6,13.2-1.8,18.9c-0.3,2.4-0.8,5.5-1.6,9.2c-0.4,2-0.7,3.5-1,4.4h4C125.2,67.3,125.2,67.2,125.2,67.1z M172.5,74.5h0.5
				C172.7,74.8,172.5,74.8,172.5,74.5z M170.3,72.3c0.3,0,0.5,0.2,0.5,0.5c0.3,0,0.5,0.2,0.5,0.4c0.6,0,0.9,0.2,0.9,0.5
				c0.3,0,0.5,0.2,0.5,0.5s-0.2,0.5-0.5,0.5c-0.6,0-0.9-0.2-0.9-0.5v-0.9c0,0.3-0.2,0.5-0.5,0.5s-0.5-0.1-0.5-0.5
				c-0.3,0-0.5-0.1-0.5-0.4C169.8,72.4,170,72.3,170.3,72.3z M169.3,72.3c0.3,0,0.5,0.1,0.5,0.2s-0.2,0.2-0.5,0.2s-0.5-0.1-0.5-0.2
				C168.9,72.4,169,72.3,169.3,72.3z M167.1,75c2.4,0,4.2,1,5.5,2.9c1.2,2,1.8,4.1,1.8,6.5s-0.6,4.7-1.8,6.8
				c-1.2-1.8-2.7-4.3-4.3-7.4c-1.7-3.2-2.5-5.8-2.5-7.9C165.7,75.3,166.2,75,167.1,75z"/>
			<path class="st1" d="M48.4,42.1c-0.3,0-0.5,0.1-0.5,0.4S48,43,48.4,43c0.3,0,0.5-0.1,0.5-0.5C48.8,42.2,48.7,42.1,48.4,42.1z"/>
			<path class="st1" d="M105.2,206.3c0.6,0,0.9-0.3,0.9-0.9c-0.3-0.6-1.1-0.9-2.3-0.9c0,0.3,0.1,0.8,0.2,1.4
				C104.2,206.4,104.6,206.6,105.2,206.3z"/>
			<path class="st1" d="M170.3,73.2c0.3,0,0.5-0.1,0.5-0.4C170.4,72.7,170.3,72.9,170.3,73.2z"/>
			<path class="st1" d="M153.6,251.8c-0.1-0.2-0.4-0.3-0.6-0.3h-0.9h-0.5l-0.5-0.4c-0.3-0.5-0.9-0.9-1.8-1.2l-1.1,2.5
				c-0.1,0.1,0,0.2,0.1,0.2h5.3c0.1,0,0.1,0,0.1-0.1v-0.1L153.6,251.8z"/>
			<path class="st1" d="M219.4,145.4c0,0.3,0.8,1,2.5,2c1.7,1.1,2.8,1.7,3.4,2h1.4c0.6,0,0.9,0.4,0.9,1.4c0.3,0,0.5-0.1,0.7-0.2
				c0.1-0.1,0.4-0.2,0.7-0.2c0.3,0.3,0.5,0.6,0.5,0.9s0.2,0.5,0.5,0.5h0.5h0.5c0.3,0,0.5-0.1,0.5-0.2s0.1-0.2,0.5-0.2l0.5,2.3
				c0.3-0.3,0.6-0.4,0.9-0.4s0.6-0.2,0.9-0.4l0.5,0.4c0,0.3,0.1,0.4,0.5,0.4h0.5c0.3,0,0.5-0.1,0.5-0.2s0.1-0.2,0.5-0.2
				c0-0.3,0.2-0.4,0.5-0.4l0.8,1.4c0.4-0.3,0.9-0.6,1.4-0.9c1.2-0.8,2.4-1.6,3.4-2.4c-5.7-2.1-10.8-4.1-15.4-6c-2.4-1-5-2.2-7.5-3.6
				L219.4,145.4L219.4,145.4z"/>
			<path class="st1" d="M59.9,78c0,0.1,0,0.1,0.1,0.2c0.2,0.6,0.4,1.1,0.7,1.3v1.4c0,0.3,0.1,0.5,0.5,0.5l0.5,0.5v0.4l-0.5,0.9
				l0.5,0.5c0.3,0.3,0.6,0.5,0.9,0.5h0.9V86c0.3,0.3,0.7,0.5,1.1,0.7c0.5,0.2,0.7,0.4,0.7,0.7c0,0.6-0.3,1.2-0.9,1.8h1.8l0.5,0.5
				c0.6,1.5,1.4,2.5,2.5,2.9c0.9,0.4,1.8,1.1,2.7,2.1v-5c-0.6-0.8-1.2-1.5-1.8-2.3c-2.2-2.8-4-5.9-5.6-9.1c-0.9-0.1-1.8-0.2-2.7-0.2
				L59.9,78z"/>
			<path class="st1" d="M103.3,220l0.1-0.2C103.3,219.8,103.3,219.9,103.3,220z"/>
			<path class="st1" d="M77,64.6v-0.5c0-0.9,0.2-1.3,0.5-1.3h-1.9v-2.3V60h-0.5l-0.9-0.4v-0.4l1.4-1.4C75,57.5,74.5,57,74,56.2
				c-0.5-0.7-0.7-1.3-0.7-1.6l0.5-0.5c0-0.3,0.1-0.5,0.2-0.5c0.1,0,0.2-0.1,0.2-0.4v-0.3v-1.8c0-0.3,0.3-1.3,0.9-2.9
				c0.6-1.6,1.1-2.5,1.4-2.5H77c1.8,4.8,5.5,7.2,10.9,7.2c1.5,0,3.4-1.1,5.7-3.4s3.4-4.1,3.4-5.6v-6.8c0-0.3-0.2-1-0.7-2
				c-0.4-1-0.8-1.9-1.1-2.5c-1.8-2.4-4.1-4.1-6.8-5.2s-5.5-1.6-8.2-1.6c-4.9,0-8.9,1.6-12.3,4.7c-3.3,3.2-6.2,6.4-8.6,9.7
				c-0.9,0-1.4,0.5-1.4,1.4c-0.6,0.9-1.1,2.6-1.6,5s-0.7,4.2-0.7,5.4v0.5v14.9l0.2,0.1h4.6c-0.7-3.1-1.1-6.3-1.1-9.6
				c0-6.9,1.7-13.3,5.2-19.2c3.5-5.9,9-8.8,16.6-8.8c3,0,5.9,0.8,8.6,2.3c2.7,1.5,4.1,4.1,4.1,7.7c0,2.1-0.5,4.1-1.6,5.9
				s-2.8,2.7-5.2,2.7c-5.5,0-7.7-2.9-6.8-8.6c-0.3,0-0.5-0.1-0.5-0.5l-0.5-0.5c-0.6,0-1.2,0.2-1.8,0.7s-1.1,0.8-1.4,1.1
				c-3.9,3.6-5.9,8.3-5.9,14c0,4.8,1.3,9,3.8,12.8h4.5C77.5,66.6,77,65.6,77,64.6z"/>
			<path class="st1" d="M107,198.6h0.5c0.2,0,0.4-0.1,0.4-0.3h-1.2C106.7,198.5,106.9,198.6,107,198.6z"/>
			<path class="st1" d="M87,161.2h3.2c3,0,6.7,1.1,10.9,3.2c0.6-0.6,1.2-1.3,1.8-2c0.6-0.7,1.4-1.4,2.3-2c-0.6,0.9-1,1.6-1.1,2
				c-0.2,0.5-0.2,1.1-0.2,2c0,1.5,0.7,2.9,2.3,4.1c0.2,0.2,0.4,0.3,0.6,0.4v-4.5c-0.1-0.3-0.1-0.6-0.1-0.9c0-0.5,0-0.8,0.1-1.1v-5.6
				c-0.2,0-0.4,0-0.6,0c-1.2,0-2.4,0.5-3.4,1.6c-1.1,1.1-1.9,1.9-2.5,2.5c-1.8-0.9-3.3-1.6-4.3-2c-1.1-0.4-2.5-0.7-4.3-0.7
				c-3,0-5.8,1-8.4,2.9c-0.1,0.1-0.2,0.2-0.3,0.2v3.4c0.2-0.3,0.5-0.6,0.7-0.9C84.7,162.6,85.8,161.8,87,161.2z"/>
			<path class="st1" d="M133.4,226.5c-0.2,0-0.3,0.1-0.5,0.1C133.1,226.6,133.2,226.6,133.4,226.5L133.4,226.5z"/>
			<path class="st1" d="M84.3,133.7c0.3-0.3,0.6-0.5,0.9-0.5h0.9c0.6-0.6,0.9-1.3,0.9-2.3l1.4-0.5h0.5c0.3-0.6,1.1-1.7,2.3-3.2
				s2.1-2.4,2.7-2.7c0-0.3,0.5-0.5,1.4-0.5v-1.8c0.9,0,1.5-0.1,1.8-0.5v-1.4c0-0.3,0.1-0.4,0.4-0.4c0.3-0.3,0.9-0.5,1.8-0.5v-1.5
				c0-0.3,0.3-0.7,0.9-1.4c0.6-0.6,1.1-0.9,1.4-0.9c0-0.3,0.1-0.5,0.5-0.5c0.3,0,0.6-0.1,0.9-0.4v-2.3c0.3-0.6,0.9-1.2,1.8-1.8
				c0.9-0.6,1.4-2,1.4-4.1v-0.4l-2.3-2.7v-0.5H103c-0.3,0-0.5-0.1-0.5-0.5c-0.3,0-0.5-0.6-0.5-1.8h-0.9c-0.3,0-0.5-0.1-0.5-0.4v-0.5
				l-0.5-0.9h-1.8c-0.3-0.3-0.5-0.6-0.5-0.9V97l-1.4-1.4c-0.9-0.3-1.4-0.8-1.4-1.4c-0.3,0-0.5-0.3-0.5-0.9s-0.2-1-0.5-1.4
				c-0.3-0.6-0.6-1.3-0.9-2c-0.3-0.8-0.4-1.6-0.4-2.5c0-0.6,0.3-0.9,0.9-0.9h2.7c0.3-0.9,0.8-1.3,1.6-1.1c0.7,0.2,1.4,0.1,2-0.2
				c0.3-0.6,0.6-1,0.9-1.4l1.4-1.4l1.4-0.9h0.5c0.3-0.7,0.7-1.3,1.1-1.9c-0.9-0.6-1.9-1-3.1-1.3c-0.2,0.2-0.3,0.3-0.5,0.5
				c-2.6,2.7-6.3,4.1-11.1,4.1c-0.3,0-0.5,0.5-0.5,1.4v2.3c0,1.8,0.2,3.8,0.7,5.9s1.4,3.9,3,5.4l8.2,9l-0.5,0.4
				c-0.3,0.6-1,1.7-2,3.4c-1.1,1.7-1.7,2.8-2.1,3.4c-0.3,0-0.6-0.1-0.9-0.4c-0.3,0-0.5-0.2-0.5-0.5c-0.3-0.3-0.9-0.8-1.8-1.4
				c-0.9-0.6-1.5-1.2-1.8-1.8c-3.2-2.9-6.4-5.9-9.6-9v6.4c0.2,0.2,0.3,0.3,0.5,0.3l0.9,0.5c0.6,0,0.9,0.6,0.9,1.8l2.7,1.8l2.7,1.8
				l0.5,0.4c0.6,0.9,1.2,1.4,1.8,1.6s0.9,0.8,0.9,2c0,0.3-0.3,0.8-0.9,1.6c-0.6,0.8-1.1,1.1-1.4,1.1c-0.6,0.6-1.8,1.8-3.6,3.6
				c-1.8,1.8-3,3-3.6,3.6c0-0.3-0.2-0.5-0.4-0.7c-0.3-0.1-0.5-0.4-0.5-0.7h-0.5v9.4c0.5-0.1,0.9-0.4,1.4-0.9v-0.9H84.3z"/>
			<path class="st1" d="M192.6,73.8c1.5-0.1,2.6-0.2,3.2-0.2c3,0,5.7-0.7,8-2.3c2.3-1.5,4.5-3.5,6.6-5.9c0.6-1.2,1.3-2.5,2-3.8
				c0.8-1.4,1.1-2.6,1.1-3.8v-9c0-2.1-0.9-4.3-2.7-6.5c-1.8-2.3-3.5-4-5-5.2c-0.3-0.3-0.9-0.4-1.8-0.4c-0.6,0-1.2,0.3-1.8,0.9
				c0.9,0.9,1.4,2.1,1.4,3.6c0,3.9-2,5.9-5.9,5.9c-2.4,0-4.3-1-5.7-2.9c-1.4-2-2.1-4-2.1-6.1c0-3,1.2-5.5,3.6-7.4
				c2.4-2,5-2.9,7.7-2.9c7.3,0,12.8,2.8,16.6,8.3c3.8,5.6,5.7,11.7,5.7,18.3c0,11.4-3,21.3-9.1,29.6c-6.1,8.3-12.7,16.3-20,24.1
				l-1.8,1.7v5.9h0.8v-1.8c0.3-0.6,0.8-0.8,1.4-0.7c0.6,0.1,1.2-0.1,1.8-0.7v-1.8c0.9,0,1.5-0.2,1.8-0.4l0.5-1.4l0.5-0.4h0.9
				c0.3,0,0.5-0.1,0.5-0.2s0.1-0.2,0.5-0.2v-0.9c0-0.6,0.2-0.9,0.5-0.9h0.5c0.3,0,0.6-0.2,0.9-0.5v-0.9c0-0.3,0.1-0.5,0.2-0.7
				c0.1-0.1,0.2-0.4,0.2-0.7h1.4l0.5-1.4c0-0.6,0.5-0.9,1.4-0.9v-1.4l1.4-0.5c0.3,0,0.5-0.1,0.5-0.5v-0.9c0-0.3,0.8-0.5,2.3-0.5V97
				c-0.3,0-0.5-0.1-0.5-0.5v-0.9v-0.5c0.9,0,2-0.6,3.2-1.8v-1.4c0.3-0.6,0.6-0.8,0.9-0.7c0.3,0.2,0.6-0.1,0.9-0.7v-0.6
				c0-0.3,0.1-0.4,0.2-0.4s0.2-0.1,0.2-0.5c0-0.3,0.2-0.5,0.5-0.5h0.5c0.3,0,0.5-0.1,0.5-0.4v-0.9c0.6-0.9,1-1.2,1.1-0.9
				c0.1,0.3,0.7,0.5,1.6,0.5c0-0.6-0.1-1.2-0.2-1.8c-0.2-0.6-0.2-1.1-0.2-1.4s0.2-0.5,0.7-0.5s0.7-0.1,0.7-0.4v-0.9
				c0-0.6,0.2-1.1,0.5-1.4c0.3-0.9,0.8-1.6,1.4-2c0.6-0.5,0.9-1.3,0.9-2.5h1.8c-0.3-0.3-0.5-0.6-0.5-0.9c-0.3-0.3-0.5-0.6-0.5-0.9
				v-0.5c0-0.6,0.2-0.9,0.7-0.9s0.8-0.2,1.1-0.5c0-0.6-0.1-1-0.2-1.1c-0.2-0.1-0.2-0.5-0.2-1.1c0-0.9,0.1-1.2,0.4-0.9v-2.2
				c0.6,0,0.9-0.3,0.9-0.9c0-0.9-0.2-1.5-0.5-1.8l0.9-0.4c0-0.6-0.1-1-0.2-1.1c-0.1-0.2-0.2-0.4-0.2-0.7v-0.9c0-0.3,0.1-0.6,0.5-0.9
				c0.6-0.6,0.9-1,0.9-1.3L228,58l0.5-0.9l-0.5-0.9c0.6-0.6,0.9-1.2,0.9-1.8c0-0.3-0.2-0.5-0.7-0.7c-0.5-0.1-0.7-0.4-0.7-0.7
				c0-0.6,0.1-1,0.2-1.1c0.2-0.2,0.2-0.5,0.2-1.1l-0.5-0.9v-0.5V49c0-0.3,0.1-0.5,0.2-0.5c0.2,0,0.2-0.1,0.2-0.5
				c0-1.5-0.2-2.7-0.7-3.6s-0.7-2.1-0.7-3.6l-0.4-0.5V38l-1.4-0.5l-0.5-0.5c-0.3-0.6-0.8-1.5-1.6-2.7c-0.8-1.2-1.4-1.8-2.1-1.8
				c-3.3-3.3-6.2-5.6-8.6-7c-2.4-1.3-6.1-2-10.9-2c-0.6,0-1.9,0.3-3.9,0.9s-3.1,1.1-3.4,1.4l-5.9,5.9c0,0.6-0.2,1.1-0.5,1.4
				s-0.6,0.8-0.9,1.3v6.8c0.3,0.6,0.6,1.1,0.9,1.4l0.9,1.8c1.2,2.1,3,3.8,5.5,5c2.4,1.2,4.8,1.8,7.3,1.8c-0.3,0,0-0.5,0.9-1.4
				c0.6-0.6,1-0.8,1.1-0.5s0.4,0.2,0.7-0.4c0.3-0.3,0.8-1,1.6-2.3c0.8-1.2,1.3-2.1,1.6-2.7c0.6,0.6,0.8,1.1,0.7,1.3
				c-0.2,0.3,0.2,0.5,1.1,0.5c0,0.3,0,0.8,0,1.6c0,0.8,0.3,1.1,0.9,1.1V52c-0.3,0-0.5,0.1-0.5,0.2c0,0.2-0.1,0.2-0.5,0.2l-0.5,0.4
				c0,0.3,0.2,0.6,0.5,0.9c0,0.3,0.1,0.5,0.5,0.5V56l0.5,0.9c0,0.6-0.5,2-1.4,4.1s-1.7,3.5-2.3,4.1l-1.4,0.5l-0.5,1.4
				c-0.6,0.6-1.9,1.4-3.9,2.3s-3.3,1.4-3.9,1.4s-0.9-0.3-0.9-0.9s0.3-1.4,0.9-2.5c0.6-1,0.9-1.9,0.9-2.5l-0.4-0.9
				c-0.3-0.3-0.5-0.6-0.5-0.9l0.5-0.9v-0.9c-0.3,0-0.5-0.2-0.5-0.5l-0.5-0.5v-0.4l0.5-0.9c-0.3-0.3-0.5-0.6-0.5-0.9
				c-0.3,0-0.5-0.2-0.5-0.4l-0.5-0.5l-7.3-7.7c-0.9-0.9-1.8-2.6-2.7-5.2c-0.9-2.5-1.4-4.6-1.4-6.1c0-5.1,1.9-9.2,5.7-12.2
				c3.8-3,8.1-4.5,13-4.5c3.9,0,7.6,0.8,10.9,2.5s6.7,3.5,10,5.6c1.5,0.9,2.7,1.8,3.4,2.7c0.8,0.9,1.7,1.7,3,2.3l0.5,0.5
				c0.6,0.9,1,1.4,1.1,1.4s0.4,0.3,0.7,0.9l0.5,0.9l1.4,0.4V40c0,0.3-0.2,0.6-0.4,0.9c0.3,0,0.7-0.1,1.4-0.2
				c0.6-0.1,1.1-0.2,1.4-0.2s0.6,0.3,0.9,0.9s0.8,1.1,1.4,1.4c0-0.3,0.3,0.2,0.9,1.4l0.9,1.8c-0.3,0-0.7,0.1-1.1,0.2
				c-0.5,0.1-1,0.2-1.6,0.2l-5,5.4c0,0.6-0.2,1.1-0.5,1.6s-0.5,1-0.5,1.6c0,0.3,0.1,0.5,0.2,0.7c0.2,0.2,0.2,0.4,0.2,0.7
				c0,0.6-0.2,1.4-0.7,2.3s-0.5,1.7-0.2,2.3c0.3,0.3,0.6,0.5,0.9,0.5v1.4c0,1.2,0.5,2.4,1.6,3.6s2,2,3,2.3h0.9l1.4,1.4h0.5
				c0.3,0,0.6-0.1,0.9-0.5l0.9,1.4c0.3-0.3,0.8-0.4,1.4-0.4h0.5l0.9,0.4l0.5-0.4c0.3,0,0.5-0.1,0.5-0.2s0.1-0.2,0.5-0.2
				c3.3-1.2,5.2-2.3,5.7-3.4s1.6-2.9,3.4-5.6h0.5c0.6,0.6,1,1.4,1.1,2.3c0.2,0.9,0.4,1.7,0.7,2.3l0.9,0.5c0.6,0.3,1.3,1.1,2,2.3
				c0.8,1.2,1.1,2,1.1,2.3c0,0.7-0.1,1.4-0.3,1.9c0.1-0.1,0.2-0.1,0.3-0.1h0.5c0.3,0,0.9,0.8,1.8,2.3s1.9,3.2,3,5.2s2,3.8,2.7,5.4
				c0.8,1.7,1.1,2.6,1.1,2.9c0.6,0.9,0.8,1.8,0.7,2.7c-0.2,0.9-0.1,1.7,0.2,2.3c0,1.2,0.3,2.1,0.9,2.7v2.3c0,3.9-1.3,7.2-3.9,9.7
				c-2.6,2.6-6,3.8-10.2,3.8h-0.4l-0.9-0.9h-1.8c-3-1.2-4.5-3.2-4.5-5.9c0-2.4,0.4-4.5,1.1-6.3c0.8-1.8,2.7-2.7,5.7-2.7v0.5
				c-0.6,0.3-1.3,0.9-2,1.8c-0.8,0.9-1.3,1.5-1.6,1.8c-0.3,0.6-0.5,1.5-0.5,2.7c0,4.5,2.6,6.8,7.7,6.8c2.7,0,4.9-1.1,6.6-3.4
				s2.5-4.6,2.5-7c0-3.6-1.4-6.5-4.1-8.8s-5.6-4-8.6-5.2c-0.9-0.6-1.4-0.8-1.4-0.7c0,0.1-0.5-0.1-1.4-0.7c-0.6-0.6-1.3-1.4-2-2.5
				c-0.8-1-1.6-1.4-2.5-1.1c-0.6-0.6-1.4-1.6-2.5-2.9s-1.9-2-2.5-2s-1.1,0.4-1.4,1.3s-0.5,1.9-0.7,2.9c-0.2,1.1-0.4,2-0.7,2.9
				c-0.3,0.9-0.8,1.2-1.4,0.9c0.3,0.3,0.4,0.9,0.4,1.8v0.5c-0.9,1.5-1.8,3.2-2.7,5.2c-0.9,2-1.8,3.7-2.7,5.2c-0.6,0.6-1.3,1.3-2,2
				c-0.8,0.8-1.3,1.7-1.6,2.9c-0.6,0.3-1.4,1.1-2.5,2.2c-1.1,1.2-1.9,2-2.5,2.3c-0.6,0.6-1.2,1.4-1.8,2.3c-0.6,0.9-1.5,1.6-2.7,2.3
				l-1.4,0.5l-0.5,1.4l-0.5,0.4l0,0v5.1c3.1-2.7,6.1-5.4,9.1-8c7.6-6.8,13-15.4,16.4-25.9c0-0.6,0.3-0.9,0.9-0.9h0.5
				c1.2,1.8,3,3.2,5.2,4.1c2.3,0.9,4.5,2,6.6,3.2s3.9,2.6,5.5,4.1c1.5,1.5,2.3,3.6,2.3,6.3c0,4.2-2.3,6.3-6.8,6.3h-0.5
				c-1.5-0.6-2.4-1-2.7-1.1c-0.3-0.1-0.5-1-0.5-2.5c0-2.1,0.9-3.2,2.7-3.2c0.6,0,1.1,0.1,1.6,0.2c0.5,0.2,1,0.2,1.6,0.2
				c0.3,0,0.5-0.5,0.5-1.4c0-1.5-0.7-2.8-2-3.8c-1.4-1.1-2.8-1.6-4.3-1.6c-2.4,0-4.6,0.9-6.6,2.7c-2,1.8-3,4.1-3,6.8
				c0,1.2,0,2.3,0,3.4s0.3,2,0.9,2.9c2.1,2.1,4,3.7,5.7,4.7c1.7,1.1,3.9,1.6,6.6,1.6c5.2,0,9-2.3,11.6-6.8s3.9-8.9,3.9-13.1
				c0-3.9-0.9-7.7-2.7-11.3c-2.4-4.8-5.2-10.2-8.4-16.2c-3.2-6-6.9-10.8-11.1-14.4c-0.9,0-1.4,0.7-1.6,2c-0.2,1.4-0.5,2.9-0.9,4.5
				c-0.5,1.7-1.2,3.2-2.3,4.5c-1.1,1.4-2.8,2-5.2,2c-3,0-5.2-1.7-6.4-5v-1.8c0-2.7,0.4-4.7,1.1-6.1c0.8-1.3,2.3-2.8,4.8-4.3l0.9-0.5
				c1.5-0.3,2.5-0.4,3-0.2c0.5,0.2,1.1-0.1,2-0.7c-0.3-0.6-0.6-1.1-0.9-1.6s-0.6-1-0.9-1.6c-2.4-2.4-4.9-4.9-7.5-7.4
				c-2.6-2.6-5.4-4.9-8.4-7c-2.7-1.8-5.9-3.8-9.6-6.1c-3.6-2.3-7.1-4-10.5-5.2c-1.5-0.3-3-0.4-4.3-0.4c-1.4,0-2.8,0-4.3,0h-4.9
				c-10.9,2.7-16.4,9.8-16.4,21.2c0,2.7,0.6,5.1,1.8,7.2c1.2,2.1,2.7,4.1,4.3,5.9c1.7,1.8,3.1,3.7,4.3,5.6c0.3,0.4,0.5,0.9,0.7,1.3
				c0.4-0.9,0.8-1.9,1.1-2.9L192.6,73.8z"/>
			<path class="st1" d="M108.4,255.9c0.9-0.6,1.8-1,2.7-1.1c0.8-0.1,1.7-0.4,2.7-0.9c0,0,0,0-0.1,0h-6.4c-0.2,0-0.2,0-0.2,0.2
				l-1.3,3c0.1-0.1,0.2-0.1,0.3-0.2C106.7,256.5,107.5,256.2,108.4,255.9z"/>
			<path class="st1" d="M284.2,136.6c-0.5-3.5-1.4-6.6-2.7-9.5c-1.4-2.9-3.3-5.3-5.7-7.2c-2.4-2-5.5-2.9-9.1-2.9
				c-4.3,0-7.7,1.3-10.2,3.8c-2.6,2.6-3.9,5.9-3.9,10.1c0,2.4,1.1,4.8,3.4,7.2c2.3,2.4,4.8,3.6,7.5,3.6c2.4-1.2,4.4-2.5,5.9-3.8
				c1.5-1.4,2.3-3.5,2.3-6.5c-1.2,0-2.2,0.3-3,0.9s-1.8,0.9-3,0.9c-1.8,0-2.7-0.9-2.7-2.7c0-1.5,0.5-2.6,1.6-3.4s2.3-1.1,3.9-1.1
				c2.7,0,4.6,1.1,5.5,3.4s1.4,4.6,1.4,7c0,3.9-1.9,7.4-5.7,10.4c-3.4,2.7-6.7,4.2-10,4.4c0.9,0.6,1.9,1.3,2.9,1.9
				c0.3,0.2,0.5,0.4,0.8,0.5c0.2-0.2,0.5-0.1,0.8,0.1c0.8,0.5,1.3,0.5,1.6,0.2c0.3,0,0.5-0.1,0.5-0.5c0-0.3,0.2-0.6,0.5-0.9h1.8
				c0.3,0,0.5-0.1,0.5-0.4s0.1-0.6,0.5-0.9c0.6-0.6,1-0.8,1.1-0.7c0.2,0.2,0.5,0.2,1.1,0.2c0-1.2,1-2.6,3-4.3c2-1.7,3.3-3.1,3.9-4.3
				v-2.3v-0.9c0-0.3,0.2-0.6,0.5-0.9v-0.9c0-3.3-0.8-6.5-2.5-9.7s-4.5-4.7-8.4-4.7c-3.3,0-5.8,0.9-7.3,2.7c-0.3,0.6-0.4,1.1-0.2,1.4
				c0.2,0.3-0.1,0.8-0.7,1.4v1.4c0,2.4,0.5,4,1.6,4.7c1.1,0.8,2.7,1.4,4.8,2c-0.6,1.2-1.7,1.8-3.2,1.8c-0.9,0-2.3-0.5-4.1-1.4
				c-1.8-0.9-2.7-2-2.7-3.2v-6.6c0-2.1,1.4-3.7,4.1-5c2.7-1.2,4.8-1.8,6.4-1.8c3.6,0,6.9,1.6,9.8,4.7c2.9,3.2,4.3,6.5,4.3,10.2v13.1
				c-0.3,0.6-0.4,1.3-0.2,2c0.2,0.8,0.2,1.3,0.2,1.6c0,0.3-0.2,0.5-0.7,0.7s-0.7,0.4-0.7,0.7c0,0.3,0.1,0.6,0.5,0.9l0.9,0.9
				l-0.5,0.9l-0.9,8.1c-0.6-1.2-1.7-2.1-3.2-2.7s-3-0.9-4.6-0.9c-0.9,0.3-1.8,0.5-2.7,0.5c-0.6,0-1,0.1-1.1,0.2c0,0-0.1,0.1-0.2,0.1
				c0.3,1.4,0.5,3,0.5,4.7c1.1-0.9,2.5-1.4,4-1.4c3,0,4.8,1,5.2,2.9c0.5,2,1.7,3.2,3.9,3.8c1.5-4.2,2.5-8.4,3-12.6s0.7-8.4,0.7-12.6
				C284.9,143.1,284.7,140,284.2,136.6z"/>
			<path class="st1" d="M86.3,203.6c-0.2,0-0.2,0.2-0.2,0.5h0.5C86.6,203.7,86.5,203.6,86.3,203.6z"/>
			<path class="st1" d="M171.2,74.1c0.6,0,0.9-0.2,0.9-0.5C171.5,73.6,171.2,73.8,171.2,74.1z"/>
			<path class="st1" d="M95.2,145.4c0-0.9,0.5-1.4,1.4-1.4c1.5,0.3,3.2,1.4,5,3.2l5.1,4.9v-5.5c-0.1-0.1-0.1-0.2-0.1-0.3v-0.5
				c-0.6-0.9-1.8-1.8-3.6-2.7c-1.8-0.9-2.7-2-2.7-3.2s1.1-3,3.2-5.4c0.3-0.4,0.7-0.7,1-1.1c-0.8-1-1.9-1.7-3.1-2.3
				c-0.2,0.1-0.4,0.2-0.6,0.2c0,0.9-0.2,1.5-0.5,1.8h-0.5l-0.5,0.5c-0.3,0-0.5,0.2-0.5,0.7s-0.2,0.7-0.5,0.7c0,0.3-0.3,0.5-0.9,0.5
				H97c-1.2,0.6-1.8,2-1.8,4.1c0-0.3-0.3-0.4-0.9-0.2c-0.6,0.2-0.9,0.4-0.9,0.7c-0.3,0-0.4,0.3-0.4,0.9v0.5c-0.6,0.6-1.2,1.3-1.8,2
				c-0.6,0.8-1.2,1.4-1.8,2c-0.6,0.3-1.1,0.4-1.4,0.4l-0.9,0.5c0,0.3-0.1,0.6-0.2,0.9c-0.2,0.3-0.2,0.6-0.2,0.9h-0.9
				c-0.3,0-0.5,0.1-0.5,0.2c0,0.2-0.2,0.2-0.5,0.2h-0.5v1.3h-1.4v6c1.2-1.1,2.5-2.2,3.7-3.3C89.3,150.2,92.2,147.8,95.2,145.4z
				 M96.6,137.3c0.3,0,0.5,0.2,0.5,0.5s-0.2,0.5-0.5,0.5s-0.5-0.2-0.5-0.5C96.1,137.4,96.3,137.3,96.6,137.3z"/>
			<path class="st1" d="M70.6,159.4c-0.3,0.3-0.8,1-1.6,2c-0.8,1.1-1.4,1.6-2,1.6c-0.3,0-0.6-0.1-0.9-0.4c-0.3-0.3-0.6-0.5-0.9-0.5
				c0.3,0.3,0.4,0.7,0.2,1.1c-0.2,0.5-0.2,0.8-0.2,1.1h-2.3c0,0.6-0.3,1.2-0.9,1.8c-0.6,0.3-1.5,0.6-2.7,0.9s-2.1,0.8-2.7,1.4
				c-0.6,0.3-1.1,0.6-1.4,0.9c-0.3,0.3-0.8,0.6-1.4,0.9c-0.6,0.6-1.4,0.9-2.3,0.9c-0.9,0-1.7,0.2-2.3,0.4c-0.3,0-0.5,0.2-0.5,0.5
				l-0.5,0.9c-1.5,0.9-3.5,1.4-5.9,1.4h-1.4h-0.3c-0.3,0.3-0.5,0.6-0.5,0.9s-0.2,0.5-0.5,0.5h-0.9c-0.3,0-0.5-0.1-0.5-0.5
				c-0.3,0-0.6,0.2-0.9,0.5c-0.3,0.3-0.6,0.5-0.9,0.5l-0.9-0.5H35c-0.9,0.6-2.2,1-3.9,1.1c-1.7,0.2-3.1,0.4-4.3,0.7l-0.5,0.5v0.4
				v0.5c0,0.3,0.3,0.9,0.9,1.8c0.6,0.9,0.9,1.5,0.9,1.8c0.3,0.6,0.4,1.1,0.2,1.4s0.1,0.8,0.7,1.4v6.3c-0.9,0-1.4,0.5-1.4,1.4v0.9
				c0,0.3,0.2,0.5,0.5,0.5l-0.5,0.4c-0.3,0-0.5,0.2-0.5,0.5l0.5,0.9v0.5c0,1.2-0.3,2.4-0.9,3.6c-0.6,1.2-0.9,2.6-0.9,4.1v0.5
				c0.6,4.5,1.2,7.4,1.8,8.6s2.6,3.2,5.9,5.9c1.8,1.8,3.9,2.7,6.4,2.7c3.6,0,5.9-0.6,6.8-1.8c0.9-1.2,2.3-3,4.1-5.4l1.4-0.9v-1.3
				c-0.6-2.4-1.6-4.7-3-6.8c-1.4-2.1-3.4-3.2-6.1-3.2c-1.2,0-2.9,0.5-5,1.3v-0.5v-0.4h0.5l0.9-0.9l-0.9-0.9c0-0.6,0.3-0.9,0.9-0.9
				c0.6,0,0.9-0.1,0.9-0.4v-0.5v-0.7h-4.2c2.7-1.2,5.1-2.3,7.4-3.6c0.3-0.8,1.1-1.6,2.4-2.5c2-1.2,3.4-2.1,4.3-2.7v1.1
				c2-1.4,3.9-2.9,5.4-4.4c0-1.1-0.5-1.7-1.4-1.7c-1.5,0-3.3,0.6-5.5,1.8c-2.1,1.2-4.2,2.6-6.4,4.3c-2.1,1.7-3.9,3.5-5.5,5.4
				c-1.5,2-2.3,3.7-2.3,5.2v6.3c0,0.3,0.1,0.8,0.5,1.4c0.6,1.2,1.1,1.7,1.4,1.4c1.8-0.6,2.7-1.6,2.5-2.9c-0.2-1.4,1.1-2,3.9-2
				c2.1,0,3.4,0.7,3.9,2c0.5,1.4,0.7,2.8,0.7,4.3v2.3c-0.9,1.2-1.9,2.3-3,3.2c-1.1,0.9-2.4,1.4-3.9,1.4c-3,0-5.6-1.3-7.7-3.8
				c-2.1-2.5-3.2-5.3-3.2-8.3c0-3.3,0.6-6.4,1.8-9.2c1.2-2.9,1.8-5.9,1.8-9.2c0-1.2-0.3-2.3-0.9-3.2c-0.6-0.9-0.9-1.8-0.9-2.7v-0.4
				l0.9-0.5c4.2-0.6,8.6-1.5,13.2-2.7c4.5-1.2,8.6-3,12.3-5.4l13.4-8.8v-5.1C71.4,159.1,71,159.2,70.6,159.4z"/>
			<path class="st1" d="M222.1,218.5c-1.8-1.5-3.6-2.3-5.5-2.3H208c-1.2,0-3,1.3-5.5,3.8c-0.8,0.8-1.4,1.5-1.9,2.1
				c0.7,0.7,1.4,1.3,2.1,1.8c0.5-0.9,1.1-1.7,1.8-2.4c2-1.8,4.5-2.7,7.5-2.7c4.8,0,8.7,1.7,11.6,5c0.7,0.8,1.3,1.7,1.9,2.5
				c0.8-0.4,1.6-0.8,2.3-1.2c-0.3-0.5-0.6-1-1-1.5C225.5,221.7,223.9,220,222.1,218.5z"/>
			<path class="st1" d="M39.7,86.2c1,5.8,3.1,9,6.4,9.6c-2.2-3.5-4.2-6.8-5.9-10C40,86,39.9,86.1,39.7,86.2z"/>
			<path class="st1" d="M174.3,132.4c-0.1,0.1-0.3,0.2-0.4,0.3c-0.6,0.9-1.3,1.6-2.1,2c-0.7,0.5-1.4,1.1-2,2h4.5V132.4z"/>
			<path class="st1" d="M124.6,227c0.9,0.1,1.8,0.1,2.6,0.1c0.2-0.5,0.3-0.9,0.5-1.4C126.7,226.2,125.6,226.7,124.6,227z"/>
			<path class="st1" d="M132.2,226.7c0.2,0,0.5-0.1,0.7-0.1C132.7,226.6,132.4,226.7,132.2,226.7z"/>
			<path class="st1" d="M138.7,168.4v0.1C138.7,168.5,138.7,168.5,138.7,168.4z"/>
			<path class="st1" d="M146.3,114.7c-0.2,0.1-0.5,0.3-0.7,0.5h0.6c0.9-0.3,2.3-0.8,4.1-1.6c1.8-0.7,3.6-1.6,5.5-2.5
				c1.3-0.6,2.5-1.3,3.5-2c-1.2-1.4-2.2-2.8-2.9-4.3C154.3,108.6,150.9,112,146.3,114.7z"/>
			<path class="st1" d="M181.6,160.7c0-0.4,0-0.8-0.1-1.1v1.9C181.6,161.3,181.6,161,181.6,160.7z"/>
			<path class="st1" d="M192.7,223.8c1.9,1.4,3.9,2.4,6.2,2.9v-1.9c0-0.4,0.6-1.3,1.7-2.6c-1.3-1.3-2.4-2.7-3.3-4.4
				c-0.1,0.1-0.1,0.3-0.2,0.4C196.1,220,194.7,221.9,192.7,223.8z"/>
			<path class="st1" d="M202.3,227l2.4-0.3c0.1-0.4,0.2-0.8,0.4-1.2c-0.8-0.5-1.5-1-2.3-1.5c-0.5,0.9-0.8,1.9-1,3
				C202,227,202.1,227,202.3,227z"/>
			<path class="st1" d="M188.5,218.5H188c0.1,0.1,0.1,0.2,0.2,0.3C188.3,218.7,188.4,218.6,188.5,218.5z"/>
			<path class="st1" d="M265.8,168.8v2.3c0,0.8,0.1,1.6,0.4,2.4h2v-6.6c0-0.4,0-0.8,0-1.2C267.3,166.5,266.5,167.5,265.8,168.8z"/>
			<path class="st1" d="M225.6,226.5L225.6,226.5c-0.1-0.1-0.2,0-0.2,0C225.5,226.5,225.6,226.5,225.6,226.5z"/>
		</g>
	</g>
</g>
</svg>
