<?xml version="1.0" encoding="utf-8"?>
<!-- Generator: Adobe Illustrator 20.1.0, SVG Export Plug-In . SVG Version: 6.00 Build 0)  -->
<svg version="1.1" xmlns="http://www.w3.org/2000/svg" xmlns:xlink="http://www.w3.org/1999/xlink" x="0px" y="0px"
	 viewBox="0 0 64 64" style="enable-background:new 0 0 64 64;" xml:space="preserve">
<style type="text/css">
	.st0{fill:#7E603B;}
</style>
<g id="Font">
	<g>
		<g>
			<path class="st0" d="M30.6,19.6c0.9,0.1,2.6,0.4,3.4,0.6c0.1,0,0.1-0.2,0.1-0.2c0-0.6,0-1.1,0-1.2c0-0.8-0.4-1.6-0.9-1.7
				l-1.8-0.3c-0.5-0.1-0.9,0.5-0.9,1.3c0,0.1,0,0.6,0,1.2C30.5,19.3,30.5,19.5,30.6,19.6z"/>
			<path class="st0" d="M35.8,28.4c-0.4-0.7-0.9-1.3-1.2-2.5c-0.1-0.2-0.3-0.2-0.4-3.6c0,0,0-0.3-0.2-0.3c-0.8-0.1-2.5-0.4-3.3-0.6
				c-0.2,0-0.2,0.3-0.2,0.3c-0.1,3.3-0.3,3.2-0.3,3.4c-0.4,1-0.8,1.4-1.2,1.9c-0.7,0.7-1.3,1.4-1.3,3.6v15.4c0,2.1,0.3,3.4,1,4.4
				c0.7,0.9,1.7,1.3,2.8,1.7c0.2,0.1,0.4,0.1,0.6,0.2c0.1,0,0.3,0.1,0.4,0.1c0.1,0.1,0.3,0.1,0.4,0.1c0.2,0.1,0.4,0.2,0.6,0.2h0
				c1.1,0.4,2.1,0.7,2.8,0.2c0.7-0.5,1-1.7,0.9-3.9l-0.1-16.3C37.1,30.4,36.5,29.4,35.8,28.4z"/>
			<path class="st0" d="M45,12.8l-3.8-1c0,0-0.1,0-0.1-0.4c0-2.2,0-9,0-9C41,1.1,40,0,38.7,0c-0.2,0-0.4,0-0.7,0.1L20.1,5.2
				c-1.4,0.4-2.6,1.8-2.6,3.3v0.6v43.8c0,1.5,1.1,2.9,2.6,3.2l24.4,7.8l0.1,0c0.2,0,0.3,0,0.5,0c1.4,0,2.5-1.1,2.5-2.6V15.9
				C47.7,14.3,46.5,13,45,12.8z M38.5,1.9c0.1,0,0.1,0,0.2,0c0.5,0,0.5,0.4,0.5,0.6c0,0,0,6.4,0,8.5c0,0.2-0.2,0.3-0.2,0.3l-15.4-4
				l-2.2-0.6L38.5,1.9z M45.8,61.5c0,0.5-0.3,0.8-0.8,0.7l-24.4-7.8l-0.1,0c-0.6-0.1-1.2-0.8-1.2-1.4V9.1c0-0.4,0.3-0.7,0.7-0.8
				c0.1,0,0.1,0,0.2,0L41,13.7l3.5,0.9l0.1,0c0.6,0.1,1.1,0.7,1.1,1.3L45.8,61.5L45.8,61.5z"/>
		</g>
	</g>
</g>
<g id="Facilities">
</g>
</svg>
