<?xml version="1.0" encoding="utf-8"?>
<!-- Generator: Adobe Illustrator 20.1.0, SVG Export Plug-In . SVG Version: 6.00 Build 0)  -->
<svg version="1.1" xmlns="http://www.w3.org/2000/svg" xmlns:xlink="http://www.w3.org/1999/xlink" x="0px" y="0px"
	 viewBox="0 0 64 64" style="enable-background:new 0 0 64 64;" xml:space="preserve">
<style type="text/css">
	.st0{fill:#7E603B;}
</style>
<g id="Font">
	<path class="st0" d="M64,36.8c-0.1-0.4-1.3-7.8-5.5-10.5c0.2-0.1,0.3-0.3,0.3-0.5c0.1-0.3,0-0.6-0.2-0.8c-0.1-0.1-2.2-2.4-6.1-3.6
		c-3.5-1.1-9.3-1.5-16.6,3.1c-0.3,0.2-0.5,0.5-0.4,0.9c0,0,0,0.2,0.1,0.4c-1.3,1-2.4,2-3.3,3c-0.7-0.2-1.6-0.3-2.6-0.5
		c1.3-2.9,2.9-8.2,1.9-14.5c0-0.2-0.2-0.4-0.3-0.5c-0.3-0.8-1.5-1.1-3.5-1.4c-0.2,0-0.3,0-0.5,0.1c-0.2-0.1-0.4-0.3-0.6-0.4
		c-1.4-1-3.2-2.3-7.6-2.3c-4.2,0-6.6,1.3-8.4,2.3c-0.4,0.2-0.7,0.4-1.1,0.6C9.6,12,9.4,12,9.2,12c-1.3,0.2-2.6,0.5-2.8,1.4
		c-0.1,0.1-0.1,0.2-0.1,0.3c-0.2,0.8-0.3,1.6-0.4,2.3c-0.1,0-0.1,0-0.2,0c-3-0.2-5.5,2.1-5.7,5.1c-0.2,3,2.1,5.5,5.1,5.7
		c0.1,0,0.2,0,0.3,0c0.6,0,1.2-0.1,1.8-0.3c0.2,0.6,0.5,1.1,0.7,1.6C3.1,28.7,1,29.3,1,30.9c0,1.8,3.3,2.9,7.4,3.6
		c0.1,0.3,0.2,0.6,0.5,0.9c1.3,1.4,4.6,2.1,9.7,2.1c5.3,0,8-0.9,9.4-1.7c-0.6,1.6-0.8,2.6-0.8,2.8c0,0.3,0.1,0.7,0.4,0.8
		c0.2,0.1,0.4,0.2,0.6,0.1c-0.9,4.9,3.1,11.1,3.3,11.3c0.2,0.2,0.4,0.4,0.7,0.4c0,0,0.1,0,0.1,0c0.3,0,0.5-0.2,0.7-0.5l3.3,2.2
		c0.1,0.1,0.2,0.1,0.2,0.1c0.1,0.2,0.2,0.3,0.4,0.4c1,0.4,3.6,1.3,5.7,1.3c1.1,0,2.1-0.3,2.6-1.1c0-0.1,0.1-0.2,0.1-0.2
		c0.1-0.3,0.2-1-2.2-4.3c0,0,0-0.1,0-0.1c0-0.1,1-3.2-0.7-5.8c0.5-0.8,0.9-1.8,1.2-2.5c0.7-0.2,1.7-0.5,2.7-0.9c0,0,0.1,0,0.1,0
		c0.8-0.3,1.6-0.7,2.1-1.1c0.6,0.3,1.7,0.7,2.6,0.8c0.8,3,3.7,4.4,3.8,4.4c0,0,0.1,0,0.1,0c0.9,3.9,1.5,4.2,1.8,4.4
		c0.1,0,0.2,0.1,0.2,0.1c0.1,0,0.2,0,0.4,0c2.4,0,4.3-4.9,4.9-6.4c0-0.1,0.1-0.2,0.1-0.3c0.1-0.1,0.1-0.2,0.1-0.3l0.6-3.9
		c0.3,0.1,0.6,0,0.8-0.1C63.9,37.4,64,37.1,64,36.8z M6,22.2c-0.2,0.1-0.4,0.2-0.6,0.2c-0.5,0-0.9-0.5-0.9-1c0-0.5,0.5-0.9,1-0.9
		c0.1,0,0.2,0,0.3,0.1C5.9,21.2,5.9,21.7,6,22.2z M5.1,25.1c-1-0.1-1.9-0.5-2.5-1.2c-0.7-0.7-1-1.7-0.9-2.7c0.1-2,1.9-3.6,3.9-3.5
		c0.1,0,0.1,0,0.2,0c0,0.7,0,1.4,0,2c-0.1,0-0.1,0-0.2,0c-0.5,0-0.9,0.1-1.3,0.4c-0.4,0.3-0.6,0.7-0.6,1.2c-0.1,1,0.7,1.8,1.7,1.9
		c0,0,0.1,0,0.1,0c0.2,0,0.5-0.1,0.7-0.2c0.1,0.6,0.3,1.2,0.4,1.8C6.1,25,5.7,25.1,5.1,25.1z M11.6,13c1.7-0.9,3.8-2.1,7.6-2.1
		c3.9,0,5.4,1.1,6.7,1.9c0.4,0.3,0.8,0.6,1.3,0.8c-0.9,0.1-1.9,0.3-2.9,0.4c-1.4,0.1-3.1,0.1-5,0.1c-1.8,0-3.5-0.1-4.9-0.1
		c-1.3-0.1-2.6-0.3-3.7-0.5C10.9,13.4,11.2,13.2,11.6,13z M7.8,14.9c0.7,0.2,1.6,0.4,2.9,0.5c1,0.1,2.2,0.2,3.4,0.3
		c1.8,0.2,3.6,0.3,5.2,0.3c1.5,0,3.2-0.1,4.8-0.3c3.2-0.2,5-0.5,6-0.8c0,0,0.1,0,0.1,0c0.5,3.7-0.1,7-0.8,9.6
		c-0.1,0-0.2,0.1-0.2,0.1l-5.7,5.7c-0.4,0.1-0.8,0.1-1.2,0.2l5.4-5.4c0.2-0.2,0.2-0.4,0-0.6c-0.2-0.2-0.4-0.2-0.6,0l-6.1,6.1
		c-0.4,0-0.7,0-1.1,0.1l4.1-4.1c0.2-0.2,0.2-0.4,0-0.6s-0.4-0.2-0.6,0l-4.6,4.6c0,0,0,0,0,0c-0.3,0-0.7,0-1,0l3-3
		c0.2-0.2,0.2-0.4,0-0.6c-0.2-0.2-0.4-0.2-0.6,0l-3.6,3.6c-0.3,0-0.6-0.1-0.9-0.1l2.4-2.4c0.2-0.2,0.2-0.4,0-0.6
		c-0.2-0.2-0.4-0.2-0.6,0l-2.9,2.8c-0.3-0.1-0.6-0.1-0.9-0.2l1-1c0.2-0.2,0.2-0.4,0-0.6s-0.4-0.2-0.6,0l-1.4,1.4c0,0,0,0.1-0.1,0.1
		c-0.3-0.1-0.6-0.1-0.9-0.2l1.1-1.1c0.2-0.2,0.2-0.4,0-0.6c-0.2-0.2-0.4-0.2-0.6,0l-1.4,1.4c-0.1,0-0.1,0-0.1,0
		c-0.1-0.2-0.4-0.5-0.6-1c0-0.2-0.1-0.3-0.2-0.4C8.5,25.8,6.7,21,7.8,14.9z M28.8,26.2c-0.6,1.7-1.2,2.9-1.5,3.4
		c-0.4,0.1-1.3,0.3-2.4,0.6L28.8,26.2z M18.6,35.8c-4.2,0-6.3-0.5-7.4-1c2.5,0.3,5.1,0.4,7.3,0.4c0,0,0,0,0,0c2.7,0,5.3-0.2,7.7-0.5
		C24.9,35.3,22.6,35.8,18.6,35.8z M29.1,32.6c-3.1,0.6-6.9,0.9-10.7,0.9c0,0,0,0,0,0c-9,0-14.8-1.7-15.7-2.6
		c0.5-0.4,2.5-0.8,5.9-1.3c0.4,0.7,0.7,1.1,0.8,1.1c0.1,0.1,0.3,0.2,0.4,0.3c0.2,0.1,4.1,1.3,9,1.3s9.1-1.3,9.2-1.3
		c0.2-0.1,0.4-0.2,0.5-0.4c0-0.1,0.2-0.4,0.5-0.9c0.8,0.1,1.5,0.2,2.1,0.3c-0.7,0.8-1.2,1.7-1.7,2.5C29.4,32.6,29.3,32.6,29.1,32.6z
		 M32.1,48.5c-1.2-2.3-3.3-6.8-1.9-9.9c2.4-0.8,6.9-1.5,11.6,1.7c-0.1,0.3-0.2,0.5-0.3,0.8L41.1,40c-0.1-0.2-0.4-0.3-0.6-0.2
		s-0.3,0.4-0.2,0.6l0.8,1.8c0,0.1-0.1,0.1-0.1,0.2c-0.1,0-0.3,0-0.4,0l-1.2-2.7c-0.1-0.2-0.4-0.3-0.6-0.2s-0.3,0.4-0.2,0.6l1.1,2.5
		c-0.2,0-0.3,0.1-0.5,0.1l-0.9-2.1c-0.1-0.2-0.3-0.3-0.6-0.2c-0.2,0.1-0.3,0.4-0.2,0.6l0.9,2c-0.2,0.1-0.4,0.2-0.6,0.3L37,41.3
		c-0.1-0.2-0.4-0.3-0.6-0.2s-0.3,0.4-0.2,0.6l0.8,1.8c-0.1,0.1-0.2,0.1-0.3,0.1c0,0-0.1,0.1-0.1,0.1L36,42.2
		c-0.1-0.2-0.4-0.3-0.6-0.2c-0.2,0.1-0.3,0.4-0.2,0.6l0.7,1.6c-0.2,0.1-0.4,0.3-0.6,0.5l-0.5-1c-0.1-0.2-0.4-0.3-0.6-0.2
		c-0.2,0.1-0.3,0.4-0.2,0.6l0.6,1.3C33.5,46.4,32.7,47.6,32.1,48.5z M36.5,51l-2.2-1.5c0.6-1.8,1.5-3,2.4-3.8
		c0.2-0.2,0.4-0.3,0.6-0.4l0,0c1.5-1,3-1.2,3.7-1.3c0.6,0.9,0.8,1.9,0.8,2.8L41,45.2c-0.1-0.2-0.4-0.3-0.6-0.2
		c-0.2,0.1-0.3,0.4-0.2,0.6l1,2.2c-0.1,0-0.3,0-0.4,0L40,46.2c-0.1-0.2-0.4-0.3-0.6-0.2s-0.3,0.4-0.2,0.6l0.7,1.5
		c-0.2,0.1-0.4,0.2-0.6,0.3l-0.4-0.9c-0.1-0.2-0.4-0.3-0.6-0.2c-0.2,0.1-0.3,0.4-0.2,0.6l0.4,1C37.7,49.5,36.9,50.4,36.5,51z
		 M43.5,53c-0.7,0.3-3.2-0.1-5.6-1c0.5-0.7,1.2-1.6,2-2.1c0.4-0.3,0.8-0.4,1.2-0.4C42.1,50.7,43.2,52.3,43.5,53z M43.2,39.1
		c-3.1-2.2-6.2-2.9-8.7-2.9c-2.1,0-3.9,0.5-5.2,0.9c0.7-2.1,2.5-6.1,6.9-9.6c0.3,1.1,0.8,2.4,1.5,3.8c1.6,3.5,3.7,6,6.2,7.6
		C43.6,39,43.4,39.1,43.2,39.1z M46.9,37.7c0.1-0.2,0.1-0.4,0-0.6c-0.2-0.2-0.4-0.2-0.6,0l-0.7,0.7c-0.2-0.1-0.4-0.2-0.5-0.3
		l1.3-1.3c0.2-0.2,0.2-0.4,0-0.6c-0.2-0.2-0.4-0.2-0.6,0l-1.5,1.5c-0.2-0.1-0.3-0.2-0.5-0.4l2-2c0.2-0.2,0.2-0.4,0-0.6
		c-0.2-0.2-0.4-0.2-0.6,0l-2,2c-0.1-0.1-0.3-0.3-0.4-0.4l2.3-2.3c0.2-0.2,0.2-0.4,0-0.6c-0.2-0.2-0.4-0.2-0.6,0l-2.3,2.3
		c-0.1-0.2-0.3-0.3-0.4-0.4l2.4-2.4c0.2-0.2,0.2-0.4,0-0.6s-0.4-0.2-0.6,0l-2.3,2.3c-0.1-0.2-0.2-0.3-0.3-0.5l2.4-2.4
		c0.2-0.2,0.2-0.4,0-0.6c-0.2-0.2-0.4-0.2-0.6,0l-2.3,2.3c-0.1-0.2-0.2-0.3-0.3-0.5l2.4-2.4c0.2-0.2,0.2-0.4,0-0.6s-0.4-0.2-0.6,0
		l-2.2,2.2c-0.1-0.2-0.2-0.4-0.3-0.5l2-2c0.2-0.2,0.2-0.4,0-0.6s-0.4-0.2-0.6,0L39,30.2c-0.1-0.2-0.2-0.4-0.3-0.6l1.4-1.4
		c0.2-0.2,0.2-0.4,0-0.6c-0.2-0.2-0.4-0.2-0.6,0l-1.1,1.1c-0.1-0.2-0.2-0.4-0.2-0.6l0.8-0.8c0.2-0.2,0.2-0.4,0-0.6
		c-0.2-0.2-0.4-0.2-0.6,0l-0.5,0.5c-0.2-0.7-0.4-1.3-0.5-1.7c10.1-6,16.7-2.2,19.1-0.3c-2.6,1.2-8.1,4.6-9,12.1
		C47.3,37.5,47.1,37.6,46.9,37.7z M57.5,46.8c-0.3-0.7-0.8-2.4-1.1-3.9c0.2-0.3,0.6-0.5,1.2-0.7c0.4-0.1,1-0.2,1.6-0.2
		c0.5,0,0.9,0,1.2,0.1C59.5,44.5,58.3,46.5,57.5,46.8z M60.8,40.5c-0.4-0.1-1-0.1-1.6-0.1c-0.7,0-1.4,0.1-2,0.2
		c-1.2,0.3-1.9,1-2.3,1.5c-0.7-0.5-1.7-1.4-2.2-2.7l1.1,1.5c0.1,0.1,0.2,0.2,0.3,0.2c0.1,0,0.2,0,0.3-0.1c0.2-0.1,0.2-0.4,0.1-0.6
		l-1.3-1.8c0.1-0.1,0.2-0.2,0.4-0.3l0.8,1.1c0.1,0.1,0.2,0.2,0.3,0.2c0.1,0,0.2,0,0.3-0.1c0.2-0.1,0.2-0.4,0.1-0.6l-0.8-1.1
		c0.2-0.1,0.4-0.2,0.6-0.3l0.5,0.7c0.1,0.1,0.2,0.2,0.3,0.2c0.1,0,0.2,0,0.3-0.1c0.2-0.1,0.2-0.4,0.1-0.6l-0.4-0.5
		c0.1,0,0.3-0.1,0.4-0.1c0.3-0.1,0.5-0.1,0.8-0.1c0.2,0,0.5-0.1,0.7-0.1c1.1,0,2.3,0.3,3.5,0.8L60.8,40.5z M56.9,35.3
		C56.9,35.3,56.9,35.3,56.9,35.3c-0.1,0-0.3,0-0.4,0c-0.3,0-0.5,0.1-0.8,0.1c0,0,0,0-0.1,0c0,0-0.1,0-0.1,0c-0.1,0-0.1,0-0.2,0
		c-2.4,0.6-3.6,1.8-4.2,2.4c-0.5-0.1-1.3-0.3-2.1-0.7c0-0.2,0.1-0.4,0.1-0.7l1.4,0.9c0.1,0.1,0.2,0.1,0.2,0.1c0.1,0,0.3-0.1,0.4-0.2
		c0.1-0.2,0.1-0.5-0.1-0.6l-1.6-1c0.1-0.2,0.1-0.4,0.2-0.6L51,36c0.1,0.1,0.2,0.1,0.2,0.1c0.1,0,0.3-0.1,0.4-0.2
		c0.1-0.2,0.1-0.5-0.1-0.6l-1.5-1c0.1-0.2,0.1-0.3,0.2-0.4l1,0.6c0.1,0.1,0.2,0.1,0.2,0.1c0.1,0,0.3-0.1,0.4-0.2
		c0.1-0.2,0.1-0.5-0.1-0.6l-1.1-0.7c0.1-0.2,0.2-0.4,0.3-0.6l0.6,0.4c0.1,0.1,0.2,0.1,0.2,0.1c0.1,0,0.3-0.1,0.4-0.2
		c0.1-0.2,0.1-0.5-0.1-0.6l-0.6-0.4c1.6-2.4,3.7-3.8,5.2-4.6l0,0c3.3,1,4.9,6,5.5,8.4C60.8,35.3,59,35,56.9,35.3z"/>
</g>
<g id="Facilities">
</g>
</svg>
