<?xml version="1.0" encoding="utf-8"?>
<!-- Generator: Adobe Illustrator 20.1.0, SVG Export Plug-In . SVG Version: 6.00 Build 0)  -->
<svg version="1.1" xmlns="http://www.w3.org/2000/svg" xmlns:xlink="http://www.w3.org/1999/xlink" x="0px" y="0px"
	 viewBox="0 0 64 64" style="enable-background:new 0 0 64 64;" xml:space="preserve">
<style type="text/css">
	.st0{fill:#7E603B;}
</style>
<g id="Font">
	<g>
		<g>
			<path class="st0" d="M45.5,17.5c0,0.7,0.1,1,0.1,1.2c0-0.1,0.3,0,1.1,0l2.2,0l2.2,0c0.7,0,1,0,1.1-0.1c0,0,0-0.3,0-1.1
				c0-1.5-1.3-4.4-3.4-7.7C47.1,12.7,45.5,15.9,45.5,17.5z"/>
			<path class="st0" d="M7.6,20.3c0,0,0.2,0,0.4,0c0.3,0,0.6-0.1,0.9-0.3h-2L7.6,20.3C7.6,20.3,7.6,20.3,7.6,20.3z"/>
			<path class="st0" d="M48.2,24.8H64c0-2.5-4.2-4.5-9.5-4.7c0.3-0.6,0.6-1.4,0.6-2.6c0-4.5-6.1-12.4-6.1-12.4s-6.1,7.9-6.1,12.4
				c0,1.2,0.2,2,0.5,2.5H23.8l9.1,3.7l-0.7,1.1H47l-15,15l-5.7-5.7l-0.5,0.7l5.6,5.6L15.1,56.7l0.6,0.6L32,41l16.3,16.3l0.6-0.6
				L32.6,40.4L48.2,24.8z M45.1,20.1c-0.2-0.1-0.4-0.1-0.5-0.2c-0.4-0.3-0.7-1.1-0.7-2.4c0-2.9,3.1-7.9,5-10.6c1.9,2.7,5,7.7,5,10.6
				c0,1.6-0.4,2.3-1.1,2.5L45.1,20.1L45.1,20.1z"/>
			<polygon class="st0" points="0,20.1 0,24.8 4.6,24.8 6.5,20.1 			"/>
			<path class="st0" d="M31.1,24.3l-10.5-4.2H10.5c-1.3,2.1-3.3,1.4-3.3,1.4l-2.4,6.1l4.1,10.1l4.6-2.3l0.1-2.4l8.7,5.3L31.1,24.3z"
				/>
		</g>
	</g>
</g>
<g id="Facilities">
</g>
</svg>
