<?xml version="1.0" encoding="utf-8"?>
<!-- Generator: Adobe Illustrator 20.1.0, SVG Export Plug-In . SVG Version: 6.00 Build 0)  -->
<svg version="1.1" xmlns="http://www.w3.org/2000/svg" xmlns:xlink="http://www.w3.org/1999/xlink" x="0px" y="0px"
	 viewBox="0 0 64 64" style="enable-background:new 0 0 64 64;" xml:space="preserve">
<style type="text/css">
	.st0{fill:#7E603B;}
</style>
<g id="Font">
	<g>
		<g>
			<path class="st0" d="M48.1,26.3c-0.2-1.2-1.1-2.1-2.2-2.4c-0.7-0.1-1.4,0-2,0.5c-0.6-0.4-1.3-0.6-2-0.5c-1.1,0.2-2,1.2-2.2,2.4
				c-0.1,0.9,0,3.2,3.7,5.2c0.1,0.1,0.3,0.1,0.4,0.1l0,0l0,0c0.2,0,0.3,0,0.4-0.1C48.1,29.5,48.2,27.2,48.1,26.3z M43.9,29.7
				c-2.4-1.4-2.4-2.7-2.3-3c0.1-0.5,0.4-0.8,0.7-0.8c0.4-0.1,0.7,0.2,0.8,0.5l0,0c0.1,0.1,0.2,0.2,0.3,0.3c0.4,0.3,1,0.1,1.3-0.3
				c0.2-0.3,0.4-0.6,0.8-0.5c0.3,0.1,0.6,0.3,0.7,0.8C46.3,27,46.3,28.2,43.9,29.7z"/>
			<path class="st0" d="M63.1,38.9h-4.8c0-0.2,0.1-0.4,0.1-0.6V22.7c0-1.4-1.1-2.5-2.5-2.5h-0.7c-2.4-3.5-5.6-5.3-9.7-5.3h-9.2V3.4
				c0-0.5-0.4-0.9-0.9-0.9H20.3c-0.5,0-0.9,0.4-0.9,0.9v5.6c0,0.5,0.4,0.9,0.9,0.9h11.1V15H14c-3.3,0-6.1,1.2-8.3,3.5
				C-0.7,25.2,0,39.3,0,39.9c0,0.5,0.4,0.9,0.9,0.9h23.7v20.3c0,0.5,0.4,0.9,0.9,0.9h6.1c0.5,0,0.9-0.4,0.9-0.9V40.8h30.4
				c0.5,0,0.9-0.4,0.9-0.9C64,39.4,63.6,38.9,63.1,38.9z M55.9,22.2c0.3,0,0.5,0.2,0.6,0.4c-1.7,1.5-9.1,8.1-10.4,9.2
				c-0.9,0.7-2,0.7-2.1,0.7c0,0,0,0,0,0c0,0,0,0,0,0c0,0,0,0,0,0h0c0,0-1.1,0-2.1-0.7c-0.7-0.5-3.1-2.6-6.8-5.9
				c0.4-1.3,1-2.6,1.6-3.7H55.9z M38.8,31.6l-5.4,4.5c0.1-2.3,0.4-5.3,1.2-8.2C36.3,29.4,37.7,30.7,38.8,31.6z M52.8,20.3H38
				c0.2-0.2,0.3-0.4,0.5-0.5c1.8-1.9,4.2-2.9,6.9-2.9C48.4,16.8,50.9,18,52.8,20.3z M21.3,8V4.3h13.1V8H21.3z M34.3,9.9V15h-1.1V9.9
				H34.3z M7.1,19.7c1.8-1.9,4.2-2.9,6.9-2.9h25c-0.7,0.5-1.3,1-1.9,1.6c-5.5,5.8-5.8,17.1-5.7,20.5H1.9C1.8,35.8,2.1,25,7.1,19.7z
				 M26.6,60.2V40.8h4.2v19.4L26.6,60.2L26.6,60.2z M33.3,38.9c0-0.1,0-0.3,0-0.4l6.9-5.7c0.2,0.2,0.4,0.3,0.5,0.4
				c1.4,1.1,3,1.1,3.2,1.1c0,0,0,0,0,0c0,0,0,0,0,0c0,0,0,0,0,0h0c0,0,0,0,0,0c0.2,0,1.8-0.1,3.2-1.1c0.1-0.1,0.3-0.2,0.5-0.4
				l7.4,6.1L33.3,38.9L33.3,38.9z M56.5,37.6l-7.4-6c2.2-1.9,5.4-4.8,7.4-6.5V37.6z"/>
		</g>
	</g>
</g>
<g id="Facilities">
</g>
</svg>
