<?xml version="1.0" encoding="utf-8"?>
<!-- Generator: Adobe Illustrator 20.1.0, SVG Export Plug-In . SVG Version: 6.00 Build 0)  -->
<svg version="1.1" xmlns="http://www.w3.org/2000/svg" xmlns:xlink="http://www.w3.org/1999/xlink" x="0px" y="0px"
	 viewBox="0 0 64 64" style="enable-background:new 0 0 64 64;" xml:space="preserve">
<style type="text/css">
	.st0{fill:#7E603B;}
</style>
<g id="Font">
	<g>
		<g>
			<path class="st0" d="M5.5,50.9h0.9v2.9c0,3,2.5,5.5,5.5,5.5h1.3c3,0,5.5-2.5,5.5-5.5v-2.9h26.9v2.9c0,3,2.5,5.5,5.5,5.5h1.3
				c3,0,5.5-2.5,5.5-5.5v-2.9h0.5c3,0,5.5-2.5,5.5-5.5V29.2c0-3-2.5-5.5-5.5-5.5h-0.3l-4-14.2c-0.2-0.7-0.9-1.3-1.7-1.3h-9.6
				c0-0.2,0-0.3,0-0.5c0-3-2.4-5.4-5.4-5.4H26.2c-3,0-5.4,2.4-5.4,5.4c0,0.2,0,0.3,0,0.5h-9.6c-0.8,0-1.5,0.5-1.7,1.3l-4,14.2H5.5
				c-3,0-5.5,2.5-5.5,5.5v16.1C0,48.4,2.5,50.9,5.5,50.9z M3.5,29.2c0-1.1,0.9-2.1,2.1-2.1h1.4c0.8,0,1.5-0.5,1.7-1.3l4-14.2h10.8
				c0.7,0,1.3-0.4,1.6-1c0.3-0.6,0.2-1.3-0.2-1.8c-0.2-0.2-0.4-0.6-0.4-1.2c0-1.1,0.9-1.9,1.9-1.9h11.4c1.1,0,1.9,0.9,1.9,1.9
				c0,0.5-0.2,0.9-0.4,1.2c-0.4,0.5-0.5,1.2-0.2,1.8c0.3,0.6,0.9,1,1.6,1h10.8l4,14.2c0.2,0.7,0.9,1.3,1.7,1.3h1.6
				c1.1,0,2.1,0.9,2.1,2.1v16.1c0,1.1-0.9,2.1-2.1,2.1h-2.2c-1,0-1.7,0.8-1.7,1.7v4.6c0,1.1-0.9,2.1-2.1,2.1h-1.3
				c-1.1,0-2.1-0.9-2.1-2.1v-4.6c0-1-0.8-1.7-1.7-1.7H17c-1,0-1.7,0.8-1.7,1.7v4.6c0,1.1-0.9,2.1-2.1,2.1H12c-1.1,0-2.1-0.9-2.1-2.1
				v-4.6c0-1-0.8-1.7-1.7-1.7H5.5c-1.1,0-2.1-0.9-2.1-2.1L3.5,29.2z"/>
			<path class="st0" d="M12.9,43.6c3.3,0,6-2.7,6-6c0-3.3-2.7-6-6-6s-6,2.7-6,6C6.9,40.9,9.6,43.6,12.9,43.6z M12.9,35.1
				c1.4,0,2.5,1.1,2.5,2.5c0,1.4-1.1,2.5-2.5,2.5c-1.4,0-2.5-1.1-2.5-2.5C10.4,36.2,11.5,35.1,12.9,35.1z"/>
			<path class="st0" d="M44.9,37.6c0,3.3,2.7,6,6,6c3.3,0,6-2.7,6-6c0-3.3-2.7-6-6-6C47.6,31.6,44.9,34.3,44.9,37.6z M53.4,37.6
				c0,1.4-1.1,2.5-2.5,2.5c-1.4,0-2.5-1.1-2.5-2.5c0-1.4,1.1-2.5,2.5-2.5C52.3,35.1,53.4,36.2,53.4,37.6z"/>
			<path class="st0" d="M13.8,27.3H50c0.5,0,1-0.2,1.4-0.7c0.3-0.4,0.4-1,0.3-1.5l-2.3-10c-0.2-0.8-0.9-1.3-1.7-1.3H16.2
				c-0.8,0-1.5,0.6-1.7,1.3l-2.3,10c-0.1,0.5,0,1.1,0.3,1.5C12.8,27.1,13.3,27.3,13.8,27.3z M17.5,17.3h28.7l1.5,6.5H16L17.5,17.3z"
				/>
		</g>
	</g>
</g>
<g id="Facilities">
</g>
</svg>
