<?xml version="1.0" encoding="utf-8"?>
<!-- Generator: Adobe Illustrator 20.1.0, SVG Export Plug-In . SVG Version: 6.00 Build 0)  -->
<svg version="1.1" xmlns="http://www.w3.org/2000/svg" xmlns:xlink="http://www.w3.org/1999/xlink" x="0px" y="0px"
	 viewBox="0 0 64 64" style="enable-background:new 0 0 64 64;" xml:space="preserve">
<style type="text/css">
	.st0{fill:#7E603B;}
</style>
<g id="Font">
	<g>
		<g>
			<path class="st0" d="M57.9,64h-5.2c-0.8,0-1.5-0.4-1.9-1.1c-0.4,0.7-1.1,1.1-1.9,1.1H44V47.5c0-2.3-1.9-4.2-4.2-4.2H24.2
				c-2.3,0-4.2,1.9-4.2,4.2V64h-4.8c-0.8,0-1.5-0.4-1.9-1.1c-0.4,0.7-1.1,1.1-1.9,1.1H6.1c-2.7,0-4.8-2.2-4.8-4.8v-7.4h11.6v-0.6
				H1.3v-3.6c0-3.4,2.8-6.1,6.1-6.1h3.9c0.6,0,1.2,0.3,1.6,0.7V29.4c0-0.7,0.4-1.4,0.9-1.8c-2-0.6-3.5-2.5-3.5-4.7V10
				c0-5.5,4.5-10,10-10h23.3c5.5,0,10,4.5,10,10v12.9c0,2.2-1.5,4.1-3.5,4.7c0.5,0.4,0.9,1.1,0.9,1.8v12.6c0.4-0.4,1-0.7,1.6-0.7
				h3.9c1.6,0,3.2,0.6,4.3,1.8c1.2,1.2,1.8,2.7,1.8,4.3v3.6H51.1v0.6h11.6v7.4C62.7,61.8,60.5,64,57.9,64z M52.4,53.7v8.1
				c0,0.2,0.1,0.3,0.3,0.3h5.2c1.6,0,2.9-1.3,2.9-2.9v-5.5H52.4z M45.9,62.1h2.9c0.2,0,0.3-0.1,0.3-0.3V29.4c0-0.2-0.1-0.3-0.3-0.3
				H44v-3.2h4.8c1.6,0,2.9-1.3,2.9-2.9V10c0-4.5-3.6-8.1-8.1-8.1H20.4c-4.5,0-8.1,3.6-8.1,8.1v12.9c0,1.6,1.3,2.9,2.9,2.9H20v3.2
				h-4.8c-0.2,0-0.3,0.1-0.3,0.3v32.3c0,0.2,0.1,0.3,0.3,0.3h2.9V47.5c0-3.4,2.8-6.1,6.1-6.1h15.5c3.4,0,6.1,2.8,6.1,6.1V62.1z
				 M3.2,53.7v5.5c0,1.6,1.3,2.9,2.9,2.9h5.2c0.2,0,0.3-0.1,0.3-0.3v-8.1H3.2z M52.4,49.1h8.4v-1.6c0-1.1-0.4-2.2-1.2-3
				c-0.8-0.8-1.8-1.2-3-1.2h-3.9c-0.2,0-0.3,0.1-0.3,0.3V49.1z M3.2,49.1h8.4v-5.5c0-0.2-0.1-0.3-0.3-0.3H7.4
				c-2.3,0-4.2,1.9-4.2,4.2V49.1z M43.3,64H20.7V51.7h22.6V64z M22.6,62.1h18.7v-8.4H22.6V62.1z M43.3,51.1H20.7v-3.6
				c0-2,1.6-3.6,3.6-3.6h15.5c2,0,3.6,1.6,3.6,3.6V51.1z M22.6,49.1h18.7v-1.6c0-0.9-0.7-1.6-1.6-1.6H24.2c-0.9,0-1.6,0.7-1.6,1.6
				V49.1z M43.3,33h-4.5V20.7h4.5V33z M40.7,31h0.6v-8.4h-0.6V31z M25.2,33h-4.5V20.7h4.5V33z M22.6,31h0.6v-8.4h-0.6V31z
				 M38.1,29.1H25.9v-3.2h12.3V29.1z"/>
		</g>
	</g>
</g>
<g id="Facilities">
</g>
</svg>
