<?xml version="1.0" encoding="utf-8"?>
<!-- Generator: Adobe Illustrator 20.1.0, SVG Export Plug-In . SVG Version: 6.00 Build 0)  -->
<svg version="1.1" id="Layer_1" xmlns="http://www.w3.org/2000/svg" xmlns:xlink="http://www.w3.org/1999/xlink" x="0px" y="0px"
	 viewBox="0 0 64 64" style="enable-background:new 0 0 64 64;" xml:space="preserve">
<style type="text/css">
	.st0{fill:#7E603B;}
</style>
<g id="Font">
	<g>
		<path class="st0" d="M59.1,35.9c-0.4-0.5-0.9-0.7-1.6-0.7H6.4c-0.6,0-1.2,0.3-1.6,0.7c-0.4,0.5-0.5,1.1-0.3,1.7L11,60
			c0.3,0.8,1,1.4,1.8,1.4h38.3c0.8,0,1.7-0.5,1.8-1.4l6.4-22.4C59.6,37,59.5,36.3,59.1,35.9z M49.7,57.5H14.3L9,39h46L49.7,57.5z"/>
		<path class="st0" d="M17.6,32.1h32c1.1,0,1.9-0.8,1.9-1.9V17.5c1.9-1.6,3.2-3.9,3.2-6.5c0-4.6-3.8-8.3-8.3-8.3h-32
			c-1.1,0-1.9,0.8-1.9,1.9v12.6c-1.9,1.6-3.2,3.8-3.2,6.5C9.3,28.3,13,32.1,17.6,32.1z M16.3,12.9h26.9c1.1,0,1.9-0.8,1.9-1.9
			s-0.8-1.9-1.9-1.9H16.3V6.5h30c2.5,0,4.5,2,4.5,4.5s-2,4.5-4.5,4.5h-30V12.9z M17.6,19.4h30v2.5H20.8c-1.1,0-1.9,0.8-1.9,1.9
			s0.8,1.9,1.9,1.9h26.9v2.5H17.6c-2.5,0-4.5-2-4.5-4.5S15.1,19.4,17.6,19.4z"/>
		<path class="st0" d="M14.1,43.2l3.2,11.2c0.3,0.8,1,1.4,1.8,1.4c0.2,0,0.4,0,0.6-0.1c1-0.3,1.6-1.4,1.4-2.4l-3.2-11.2
			c-0.3-1-1.4-1.6-2.4-1.4C14.5,41.1,13.8,42.2,14.1,43.2z"/>
		<path class="st0" d="M32,55.8c1.1,0,1.9-0.8,1.9-1.9V42.6c0-1.1-0.8-1.9-1.9-1.9s-1.9,0.8-1.9,1.9v11.3
			C30.1,54.9,30.9,55.8,32,55.8z"/>
		<path class="st0" d="M44.3,55.7c0.2,0.1,0.4,0.1,0.5,0.1c0.8,0,1.7-0.5,1.8-1.4l3.2-11.3c0.3-1-0.3-2.1-1.4-2.4
			c-1-0.3-2.1,0.3-2.4,1.4l-3.2,11.3C42.6,54.4,43.2,55.5,44.3,55.7z"/>
	</g>
</g>
<g id="Facilities">
</g>
</svg>
