<?xml version="1.0" encoding="utf-8"?>
<!-- Generator: Adobe Illustrator 20.1.0, SVG Export Plug-In . SVG Version: 6.00 Build 0)  -->
<svg version="1.1" xmlns="http://www.w3.org/2000/svg" xmlns:xlink="http://www.w3.org/1999/xlink" x="0px" y="0px"
	 viewBox="0 0 64 64" style="enable-background:new 0 0 64 64;" xml:space="preserve">
<style type="text/css">
	.st0{fill:#7E603B;}
</style>
<g id="Font">
	<g>
		<path class="st0" d="M62.7,37.1c-2.4,0-4.3-1.9-4.4-4.3c0-0.1,0-0.2,0-0.3c0-0.6-0.5-1.2-1.2-1.2h-0.6l4.3-2
			c0.3-0.1,0.5-0.4,0.6-0.7c0.1-0.3,0.1-0.6-0.1-0.9c-0.1-0.2-0.2-0.3-0.3-0.4c-0.5-1.1-0.5-2.3-0.1-3.4c0.4-1.1,1.2-2,2.2-2.4
			c0.3-0.1,0.6-0.3,0.8-0.6c0.2-0.3,0.2-0.7,0-1L57.4,6c-0.2-0.5-0.8-0.8-1.3-0.6c-0.1,0-0.3,0.1-0.4,0.2c-2.2,1-4.8,0-5.7-1.9
			c0-0.1-0.1-0.4-0.1-0.5c-0.3-0.6-0.9-0.8-1.5-0.5L4,23c-0.6,0.3-0.7,1.1-0.5,1.7C4,25.7,4,26.9,3.6,28c-0.4,1.1-1.2,2-2.4,2.5
			c-0.1,0-0.3,0.1-0.4,0.1c-0.3,0.1-0.6,0.3-0.7,0.6c-0.1,0.3-0.1,0.6,0,1L2.2,37c-0.3,0-0.6,0-0.9,0.3c-0.2,0.2-0.4,0.5-0.4,0.9
			v15.6c0,0.3,0.1,0.7,0.4,0.9c0.3,0.2,0.6,0.3,0.9,0.3c0,0,0.4-0.1,0.5-0.1c2.4,0,4.4,2,4.4,4.4c0,0.1-0.1,0.3-0.1,0.4
			c0,0.3,0.1,0.7,0.3,0.9c0.2,0.3,0.5,0.4,0.9,0.4h49c0,0,0,0,0,0c0,0,0,0,0,0c0.6,0,1.2-0.5,1.2-1.2c0-0.2-0.1-0.4-0.2-0.6
			c0-2.4,2-4.4,4.2-4.4c0.7,0.2,1.5-0.4,1.5-1.1V38.3C64,37.6,63.3,37.1,62.7,37.1z M5.8,28.9c0.5-1.4,0.5-2.8,0.1-4.2L48.3,5.1
			c1.6,2.5,4.7,3.6,7.5,2.8l5.5,12c-1.2,0.8-2.1,1.9-2.6,3.3c-0.6,1.5-0.6,3.1,0,4.6l-7.3,3.5c-0.1,0-0.1,0.1-0.1,0.1h-4.8l8.8-4.1
			c0.6-0.3,0.8-1,0.6-1.5L47.9,8.5C47.7,8,47,7.7,46.4,8L8.9,25.3c-0.3,0.1-0.5,0.4-0.6,0.7c-0.1,0.3-0.1,0.6,0,0.9l2.1,4.6H8.3
			c-0.6,0-1.2,0.5-1.2,1.2c0,0.1,0,0.2,0,0.3c0,1.7-1.1,3.1-2.6,3.8l-1.8-4.2C4.2,31.7,5.3,30.4,5.8,28.9z M34.7,31.4l-1.4-3.1
			l0.1-1.5l4.3,4.3l0.9-0.4l0.9-0.4l-5.9-5.8l0.5-6l-0.9,0.4l-0.9,0.4l-0.4,6l-2.2-4.9l-0.7,0.3L28.5,21l4.6,10.4h-2
			c0-0.7,0-1.3-0.3-2.2l-1.4,0.6c0.2,0.6,0.2,1.1,0.2,1.5h-2.9c-0.4-0.6-0.8-1-1.2-1.9c-0.6-1.3-0.9-2.4-0.9-3.2
			c0-0.9,0.2-1.4,0.7-1.6c0.4-0.2,0.8-0.1,1.3,0.1c0.4,0.3,0.8,0.7,1.1,1.3l1.4-0.6c-0.7-1.3-1.4-2.2-2.3-2.7
			c-0.8-0.5-1.7-0.6-2.4-0.3c-0.9,0.4-1.4,1.3-1.5,2.7c0,1.4,0.4,3,1.2,5c0.2,0.5,0.5,0.9,0.7,1.3h-1.3l-3-6.8l-0.7,0.3l-0.7,0.3
			l2.8,6.2h-3.2l-1.3-2.9l2-0.9l-0.5-1.1l-0.5-1.1l-5.3,2.4l0.5,1.1l0.5,1l2-0.9l1,2.3H13l-2.1-4.5l35.4-16.3l6.9,15.1l-12.4,5.7v0
			L34.7,31.4L34.7,31.4z M61.7,52.5c-3,0.5-5.4,3-5.7,6H9.5c-0.3-3.3-2.9-5.9-6.2-6.1v-13c3.2-0.2,5.7-2.7,6.2-5.8H56
			c0.4,2.9,2.7,5.2,5.6,5.6L61.7,52.5L61.7,52.5L61.7,52.5L61.7,52.5z M53.1,35.5H11.8c-0.7,0-1.2,0.5-1.2,1.2v19
			c0,0.6,0.5,1.2,1.2,1.2h41.3c0.7,0,1.2-0.5,1.2-1.2v-19C54.3,36,53.7,35.5,53.1,35.5z M51.9,54.5H13V37.8h39L51.9,54.5z
			 M16.6,42.2h-2.2v-1.2v-1.2h5.8v1.2v1.2h-2.2v10.7h-0.7h-0.8L16.6,42.2L16.6,42.2z M21.8,52.9h-0.7v-13h0.7h0.8v13L21.8,52.9
			L21.8,52.9z M24.5,51.4c-0.6-1.2-0.9-2.9-0.9-4.9c0-2.1,0.3-3.8,0.9-5c0.6-1.2,1.4-1.9,2.4-1.9c0.9,0,1.6,0.4,2.1,1.2
			c0.6,0.8,0.9,2,1,3.4h-1.5c0-0.7-0.2-1.3-0.5-1.7c-0.3-0.4-0.6-0.6-1.1-0.6c-0.5,0-1,0.4-1.3,1.2c-0.3,0.8-0.5,1.9-0.5,3.3
			c0,1.4,0.2,2.5,0.5,3.3c0.3,0.8,0.7,1.2,1.3,1.2c0.4,0,0.8-0.2,1.1-0.7c0.3-0.4,0.5-1.1,0.5-1.8H30c-0.1,1.5-0.4,2.7-1,3.6
			c-0.6,0.9-1.3,1.3-2.1,1.3C25.9,53.2,25.1,52.6,24.5,51.4z M32.1,52.9h-0.8v-13H32h0.7v5.4l2.8-5.4h1h0.9l-2.8,5.3l3,7.7h-1h-1
			l-2.2-5.7l-0.7,1.3v4.4L32.1,52.9L32.1,52.9L32.1,52.9z M43.9,52.9h-5.5v-13h5.3v1.2v1.2h-3.8V45h3.5v1.1v1.1h-3.5v3.4h4v1.2
			L43.9,52.9L43.9,52.9z M46.6,42.2h-2.2v-1.2v-1.2h5.8v1.2v1.2h-2.2v10.7h-0.7h-0.8L46.6,42.2L46.6,42.2z M40.3,30L35,18.1l4.8-2.1
			l0.5,1.1l0.5,1l-3.5,1.5l1.1,2.5l3.2-1.4l0.5,1l0.5,1l-3.2,1.4l1.4,3.1l3.6-1.6l0.5,1l0.5,1.1L40.3,30z M41,16.7l-0.5-1.1l5.3-2.3
			l0.5,1l0.4,1.1l-2,0.9l4.3,9.8l-0.7,0.3l-0.7,0.3l-4.3-9.8l-2,0.9L41,16.7z"/>
	</g>
</g>
<g id="Facilities">
</g>
</svg>
