<?xml version="1.0" encoding="utf-8"?>
<!-- Generator: Adobe Illustrator 20.1.0, SVG Export Plug-In . SVG Version: 6.00 Build 0)  -->
<svg version="1.1" id="Layer_1" xmlns="http://www.w3.org/2000/svg" xmlns:xlink="http://www.w3.org/1999/xlink" x="0px" y="0px"
	 viewBox="0 0 64 64" style="enable-background:new 0 0 64 64;" xml:space="preserve">
<style type="text/css">
	.st0{fill:#7E603B;}
</style>
<g id="Font">
	<g>
		<g>
			<path class="st0" d="M53.2,35.3c-1.2-0.3-2.4-0.5-3.8-0.5c-0.2,0-0.3,0-0.5,0c-7.7,0.3-14,6.6-14.1,14.3c0,0.1,0,0.2,0,0.3
				c0,1.6,0.3,3.1,0.7,4.5C37.4,59.7,43,64,49.5,64C57.5,64,64,57.5,64,49.5C64,42.6,59.5,37,53.2,35.3z M49.5,59
				c-5.3,0-9.7-4.3-9.7-9.7s4.3-9.7,9.7-9.7s9.7,4.3,9.7,9.7S54.8,59,49.5,59z"/>
			<polygon class="st0" points="50.9,42.8 47.6,42.8 47.6,48 42.4,48 42.4,51.2 47.6,51.2 47.6,56.4 50.9,56.4 50.9,51.2 56,51.2 
				56,48 50.9,48 			"/>
			<path class="st0" d="M16.6,14.8c0.9,0,1.6-0.8,1.6-1.6v-4V5.4c0-0.9-0.8-1.6-1.6-1.6h-1.4c-0.9,0-1.6,0.8-1.6,1.6v3.8v4
				c0,0.9,0.8,1.6,1.6,1.6H16.6z"/>
			<path class="st0" d="M42.4,14.8c0.9,0,1.6-0.8,1.6-1.6v-4V5.4c0-0.9-0.8-1.6-1.6-1.6H41c-0.9,0-1.6,0.8-1.6,1.6v3.8v4
				c0,0.9,0.8,1.6,1.6,1.6H42.4z"/>
			<path class="st0" d="M31.1,52.4c-0.2-1.1-0.4-2.3-0.4-3.5c0-0.4,0-0.8,0-1.1H11.4c-1.6,0-2.8-1.2-2.8-2.8V22.4H49v8.6
				c0.3,0,0.7,0,0.9,0c1.1,0,2.3,0.1,3.3,0.3V12.9c0-2.1-1.7-3.8-3.8-3.8h-3v4c0,2.2-1.8,4-4,4H41c-2.2,0-4-1.8-4-4v-4H20.6v4
				c0,2.2-1.8,4-4,4h-1.4c-2.2,0-4-1.8-4-4v-4h-3c-2.1,0-3.8,1.7-3.8,3.8v35.7c0,2.1,1.7,3.8,3.8,3.8H31.1z"/>
			<circle class="st0" cx="17.6" cy="29.4" r="3.8"/>
			<circle class="st0" cx="28.8" cy="29.4" r="3.8"/>
			<circle class="st0" cx="40.1" cy="29.4" r="3.8"/>
			<circle class="st0" cx="28.8" cy="40.6" r="3.8"/>
			<circle class="st0" cx="17.6" cy="40.6" r="3.8"/>
		</g>
	</g>
</g>
<g id="Facilities">
</g>
</svg>
