<?xml version="1.0" encoding="utf-8"?>
<!-- Generator: Adobe Illustrator 20.1.0, SVG Export Plug-In . SVG Version: 6.00 Build 0)  -->
<svg version="1.1" id="Layer_1" xmlns="http://www.w3.org/2000/svg" xmlns:xlink="http://www.w3.org/1999/xlink" x="0px" y="0px"
	 viewBox="0 0 64 64" style="enable-background:new 0 0 64 64;" xml:space="preserve">
<style type="text/css">
	.st0{fill:#7E603B;}
</style>
<g id="Font">
	<path class="st0" d="M58.5,22.8H37.6L34.2,8.1H5.4c-1.8,0-3.3,1.5-3.3,3.3v29.5c0,1.9,1.5,3.4,3.4,3.4h20.9l3.4,14.8h28.7
		c1.9,0,3.4-1.5,3.4-3.4V26.2C61.9,24.3,60.4,22.8,58.5,22.8z M6,40.4V12h25.1l6.5,28.4H6z M30.4,44.4h7.4l-5.5,8L30.4,44.4z
		 M58,55.2H35.1l4.2-6.2l0.7,1c2.5-1.6,4.6-3.5,6.2-5.3l5,5l2.1-2.1l-5.4-5.2c2.2-3.3,3.3-6.4,3.6-7.9h3.4v-2.9h-7v-1.7H45v1.7h-5.3
		l-1.1-4.8H58V55.2L58,55.2z M42.6,44.4L42.6,44.4l-0.9-4.2l2.5,2.6c-0.6,0.7-1.1,1.2-1.7,1.9L42.6,44.4L42.6,44.4z M42.6,37
		l-1.4,1.3l-0.8-3.7h8.3c-0.5,1.4-1.3,3.6-2.7,5.9L42.6,37z M19.8,24.3h9.7v2c0,5.3-4.4,9.7-9.7,9.7s-9.7-4.4-9.7-9.7
		s4.4-9.7,9.7-9.7c2.2,0,4.2,0.7,5.9,2.1l-2.4,3.1c-1-0.7-2.2-1.2-3.6-1.2c-3.2,0-5.8,2.6-5.8,5.8s2.6,5.8,5.8,5.8
		c2.5,0,4.7-1.6,5.4-3.8h-5.3V24.3z"/>
</g>
<g id="Facilities">
</g>
</svg>
