<?xml version="1.0" encoding="utf-8"?>
<!-- Generator: Adobe Illustrator 20.1.0, SVG Export Plug-In . SVG Version: 6.00 Build 0)  -->
<svg version="1.1" xmlns="http://www.w3.org/2000/svg" xmlns:xlink="http://www.w3.org/1999/xlink" x="0px" y="0px"
	 viewBox="0 0 64 64" style="enable-background:new 0 0 64 64;" xml:space="preserve">
<style type="text/css">
	.st0{fill:#7E603B;}
</style>
<g id="Font">
	<g>
		<g>
			<path class="st0" d="M31.3,25.1c-12.1,1.4-15.4,11.6-15.5,12.1c-0.2,0.6,0.2,1.2,0.8,1.4c0.1,0,0.2,0,0.3,0
				c0.5,0,0.9-0.3,1.1-0.8c0-0.1,3-9.2,13.6-10.5c0.6-0.1,1.1-0.6,1-1.3C32.5,25.5,31.9,25.1,31.3,25.1z"/>
			<path class="st0" d="M50.5,46.4h-4.2v-3.2h5.8c0.5,0,0.9-0.3,1.1-0.8c0.4-1.4,0.7-2.8,0.7-4.2c0-9.1-8.3-16.3-19.5-17.5l1.8-4.7
				c1.2-0.6,2.1-1.8,2.1-3.1c0-2-1.8-3.6-4.1-3.6h-5.8c-2.3,0-4.1,1.6-4.1,3.6c0,1.3,0.8,2.5,2,3.1l1.9,4.7C17.7,22.1,9,29.7,9,38.3
				c0,1.4,0.2,2.8,0.6,4.1c0.1,0.5,0.6,0.8,1.1,0.8h5.1v3.2h-3.5c-2.5,0-4.5,1.8-4.5,4v1.4c0,1.4,1.5,2.5,3.4,2.5h40.5
				c1.9,0,3.4-1.1,3.4-2.5v-1.4C55,48.2,53,46.4,50.5,46.4z M28.5,11.6h5.8c1,0,1.8,0.6,1.8,1.3c0,0.7-0.8,1.3-1.8,1.3h-5.8
				c-1,0-1.8-0.6-1.8-1.3C26.7,12.3,27.5,11.6,28.5,11.6z M29.1,16.6h4.6l-1.6,4c-0.2,0-0.4,0-0.6,0c-0.2,0-0.5,0-0.7,0L29.1,16.6z
				 M11.3,39.8c-0.1-0.5-0.1-1-0.1-1.6c0-8.2,9.4-15.4,20.2-15.4c11.3,0,20.2,6.8,20.2,15.4c0,0.5,0,1.1-0.1,1.6
				c-0.1,0.6-0.7,1.1-1.4,1.1H12.7C12,40.9,11.4,40.4,11.3,39.8z M18,43.2h26.1v3.2H18V43.2z M51.6,52.1H11.1
				c-0.7,0-1.1-0.3-1.1-0.3v-1.4c0-0.9,1-1.7,2.3-1.7h38.2c1.2,0,2.3,0.8,2.3,1.7l0,1.3C52.7,51.8,52.3,52.1,51.6,52.1z"/>
			<path class="st0" d="M8.9,25.9c0.3,0,0.7-0.2,0.9-0.5c0.4-0.5,0.3-1.2-0.2-1.6L1.8,18c-0.5-0.4-1.2-0.3-1.6,0.2S0,19.5,0.5,19.9
				l7.7,5.8C8.4,25.8,8.6,25.9,8.9,25.9z"/>
			<path class="st0" d="M14.9,18.6c0.2,0.3,0.6,0.4,0.9,0.4c0.2,0,0.5-0.1,0.7-0.2c0.5-0.4,0.6-1.1,0.2-1.6l-6-7.6
				C10.3,9.1,9.5,9,9,9.4C8.6,9.8,8.5,10.5,8.9,11L14.9,18.6z"/>
			<path class="st0" d="M48.4,19.2c0.3,0,0.7-0.2,0.9-0.5l5.8-7.7c0.4-0.5,0.3-1.2-0.2-1.6c-0.5-0.4-1.2-0.3-1.6,0.2l-5.8,7.7
				c-0.4,0.5-0.3,1.2,0.2,1.6C47.9,19.1,48.2,19.2,48.4,19.2z"/>
			<path class="st0" d="M63.8,18.2c-0.4-0.5-1.1-0.6-1.6-0.2l-7.6,6c-0.5,0.4-0.6,1.1-0.2,1.6c0.2,0.3,0.6,0.4,0.9,0.4
				c0.2,0,0.5-0.1,0.7-0.2l7.6-6C64.1,19.4,64.1,18.7,63.8,18.2z"/>
		</g>
	</g>
</g>
<g id="Facilities">
</g>
</svg>
