<?xml version="1.0" encoding="utf-8"?>
<!-- Generator: Adobe Illustrator 20.1.0, SVG Export Plug-In . SVG Version: 6.00 Build 0)  -->
<svg version="1.1" xmlns="http://www.w3.org/2000/svg" xmlns:xlink="http://www.w3.org/1999/xlink" x="0px" y="0px"
	 viewBox="0 0 64 64" style="enable-background:new 0 0 64 64;" xml:space="preserve">
<style type="text/css">
	.st0{fill:#7E603B;}
</style>
<g id="Font">
	<g>
		<path class="st0" d="M52,5c-5.5,0-10,4.5-10,10c0,1.5,0.3,2.9,0.9,4.2L52,37l9.1-17.8c0.6-1.3,0.9-2.7,0.9-4.2C62,9.5,57.5,5,52,5
			z M52,21c-3.3,0-6-2.7-6-6s2.7-6,6-6c3.3,0,6,2.7,6,6S55.3,21,52,21z M55,39.9l3.6,7.3l-9.2,4.6l-3.1-15.5l0.5-0.5l0.1-0.1L45,32
			l-1,1l-12-8l-12,8l-8-8L0,49l16,8l16-8l16,8l16-8l-6.8-13.5L55,39.9z M14.6,51.8l-9.2-4.6l7.7-15.5l4.1,4.1l0.5,0.5L14.6,51.8z
			 M30,45.5l-11.2,5.6l2.9-14.4l0.5-0.3l7.8-5.2V45.5z M34,45.5V31.1l7.8,5.2l0.5,0.3l2.9,14.4L34,45.5z"/>
	</g>
</g>
<g id="Facilities">
</g>
</svg>
