<?xml version="1.0" encoding="utf-8"?>
<!-- Generator: Adobe Illustrator 20.1.0, SVG Export Plug-In . SVG Version: 6.00 Build 0)  -->
<svg version="1.1" xmlns="http://www.w3.org/2000/svg" xmlns:xlink="http://www.w3.org/1999/xlink" x="0px" y="0px"
	 viewBox="0 0 64 64" style="enable-background:new 0 0 64 64;" xml:space="preserve">
<style type="text/css">
	.st0{fill:#7E603B;}
</style>
<g id="Font">
	<g>
		<path class="st0" d="M32,0H0.7C0.3,0,0,0.3,0,0.7v31.4c0,0.4,0.3,0.7,0.7,0.7H32c0.4,0,0.7-0.3,0.7-0.7V0.7C32.7,0.3,32.4,0,32,0z
			 M31.2,31.4H1.5V1.5h29.7L31.2,31.4L31.2,31.4z"/>
		<path class="st0" d="M20.3,10.7C20.3,10.7,20.2,10.7,20.3,10.7c-1.1-0.8-2.5-1.2-3.9-1.2s-2.8,0.4-3.9,1.2c0,0,0,0-0.1,0
			c0,0,0,0,0,0C10.8,12,9.7,13.9,9.7,16c0,3.6,3,6.5,6.7,6.5S23,19.6,23,16C23,13.9,22,12,20.3,10.7C20.3,10.8,20.3,10.7,20.3,10.7z
			 M16.4,18.2c-1.2,0-2.2-1-2.2-2.2s1-2.2,2.2-2.2s2.2,1,2.2,2.2S17.6,18.2,16.4,18.2z M18.8,11.5l-0.9,1.2c-0.5-0.2-1-0.3-1.5-0.3
			c-0.6,0-1.1,0.1-1.5,0.3l-0.9-1.2c0.7-0.4,1.5-0.6,2.4-0.6C17.2,10.9,18,11.1,18.8,11.5z M12.7,12.4l0.9,1.2c-0.6,0.6-1,1.5-1,2.4
			c0,0.1,0,0.3,0,0.4l-1.4,0.4c0-0.3-0.1-0.6-0.1-0.9C11.2,14.6,11.8,13.3,12.7,12.4z M11.7,18.2l1.4-0.4c0.5,0.9,1.4,1.5,2.5,1.8
			V21C13.9,20.8,12.5,19.7,11.7,18.2z M17.1,21v-1.5c1.1-0.2,2-0.9,2.5-1.8l1.4,0.4C20.3,19.7,18.8,20.8,17.1,21z M21.5,16
			c0,0.3,0,0.6-0.1,0.9L20,16.4c0-0.1,0-0.3,0-0.4c0-0.9-0.4-1.8-1-2.4l0.9-1.2C20.9,13.3,21.5,14.6,21.5,16z"/>
		<path class="st0" d="M3.7,25.3v2.3c0,0.4,0.3,0.7,0.7,0.7h23.8c0.4,0,0.7-0.3,0.7-0.7V11.2c0-0.4-0.3-0.7-0.7-0.7
			c-0.4,0-0.7,0.3-0.7,0.7v15.8H5.2v-1.6c0.7-0.3,1.2-1,1.2-1.7V20c0-0.8-0.5-1.4-1.2-1.7v-4.5c0.7-0.3,1.2-1,1.2-1.7V8.4
			c0-0.8-0.5-1.4-1.2-1.7V5.1h22.3v3.6c0,0.4,0.3,0.7,0.7,0.7S29,9.1,29,8.7V4.3c0-0.4-0.3-0.7-0.7-0.7H4.4C4,3.6,3.7,3.9,3.7,4.3
			v2.3C3,7,2.5,7.6,2.5,8.4V12c0,0.8,0.5,1.4,1.2,1.7v4.5c-0.7,0.3-1.2,1-1.2,1.7v3.6C2.5,24.4,3,25,3.7,25.3z M4.9,20v3.6
			c0,0.2-0.2,0.4-0.4,0.4S4,23.8,4,23.6V20c0-0.2,0.2-0.4,0.4-0.4S4.9,19.7,4.9,20z M4,12V8.4C4,8.2,4.2,8,4.4,8
			c0.2,0,0.4,0.2,0.4,0.4V12c0,0.2-0.2,0.4-0.4,0.4C4.2,12.5,4,12.3,4,12z"/>
	</g>
	<g>
		<path class="st0" d="M63.3,0H32c-0.4,0-0.7,0.3-0.7,0.7v31.4c0,0.4,0.3,0.7,0.7,0.7h31.3c0.4,0,0.7-0.3,0.7-0.7V0.7
			C64,0.3,63.7,0,63.3,0z M62.5,31.4H32.8V1.5h29.8V31.4z"/>
		<path class="st0" d="M51.6,10.7C51.5,10.7,51.5,10.7,51.6,10.7c-1.1-0.8-2.5-1.2-3.9-1.2c-1.4,0-2.8,0.4-3.9,1.2c0,0,0,0,0,0
			c0,0,0,0,0,0C42.1,12,41,13.9,41,16c0,3.6,3,6.5,6.7,6.5c3.7,0,6.7-2.9,6.7-6.5C54.3,13.9,53.3,12,51.6,10.7
			C51.6,10.8,51.6,10.7,51.6,10.7z M47.6,18.2c-1.2,0-2.2-1-2.2-2.2s1-2.2,2.2-2.2c1.2,0,2.2,1,2.2,2.2S48.9,18.2,47.6,18.2z
			 M50.1,11.5l-0.9,1.2c-0.5-0.2-1-0.3-1.5-0.3c-0.6,0-1.1,0.1-1.5,0.3l-0.9-1.2c0.7-0.4,1.5-0.6,2.4-0.6
			C48.5,10.9,49.3,11.1,50.1,11.5z M44,12.4l0.9,1.2c-0.6,0.6-1,1.5-1,2.4c0,0.1,0,0.3,0,0.4l-1.4,0.4c0-0.3-0.1-0.6-0.1-0.9
			C42.5,14.6,43.1,13.3,44,12.4z M43,18.2l1.4-0.4c0.5,0.9,1.4,1.5,2.5,1.8V21C45.2,20.8,43.7,19.7,43,18.2z M48.4,21v-1.5
			c1.1-0.2,2-0.9,2.5-1.8l1.4,0.4C51.5,19.7,50.1,20.8,48.4,21z M52.8,16c0,0.3,0,0.6-0.1,0.9l-1.4-0.4c0-0.1,0-0.3,0-0.4
			c0-0.9-0.4-1.8-1-2.4l0.9-1.2C52.2,13.3,52.8,14.6,52.8,16z"/>
		<path class="st0" d="M35,25.3v2.3c0,0.4,0.3,0.7,0.7,0.7h23.9c0.4,0,0.7-0.3,0.7-0.7V11.2c0-0.4-0.3-0.7-0.7-0.7
			c-0.4,0-0.7,0.3-0.7,0.7v15.8H36.5v-1.6c0.7-0.3,1.2-1,1.2-1.7V20c0-0.8-0.5-1.4-1.2-1.7v-4.5c0.7-0.3,1.2-1,1.2-1.7V8.4
			c0-0.8-0.5-1.4-1.2-1.7V5.1h22.4v3.6c0,0.4,0.3,0.7,0.7,0.7c0.4,0,0.7-0.3,0.7-0.7V4.3c0-0.4-0.3-0.7-0.7-0.7H35.7
			c-0.4,0-0.7,0.3-0.7,0.7v2.3c-0.7,0.3-1.2,1-1.2,1.7V12c0,0.8,0.5,1.4,1.2,1.7v4.5c-0.7,0.3-1.2,1-1.2,1.7v3.6
			C33.8,24.4,34.3,25,35,25.3z M36.2,20v3.6c0,0.2-0.2,0.4-0.4,0.4c-0.2,0-0.4-0.2-0.4-0.4V20c0-0.2,0.2-0.4,0.4-0.4
			C36,19.5,36.2,19.7,36.2,20z M35.3,12V8.4c0-0.2,0.2-0.4,0.4-0.4c0.2,0,0.4,0.2,0.4,0.4V12c0,0.2-0.2,0.4-0.4,0.4
			C35.5,12.5,35.3,12.3,35.3,12z"/>
	</g>
	<g>
		<path class="st0" d="M63.3,31.4H32c-0.4,0-0.7,0.3-0.7,0.7v31.2c0,0.4,0.3,0.7,0.7,0.7h31.3c0.4,0,0.7-0.3,0.7-0.7V32.1
			C64,31.7,63.7,31.4,63.3,31.4z M62.5,62.5H32.8V32.8h29.8V62.5z"/>
		<path class="st0" d="M51.6,42.7C51.5,42.7,51.5,42.7,51.6,42.7c-1.1-0.8-2.5-1.2-3.9-1.2c-1.4,0-2.8,0.4-3.9,1.2c0,0,0,0,0,0
			s0,0,0,0C42.1,44,41,45.9,41,48c0,3.6,3,6.5,6.7,6.5c3.7,0,6.7-2.9,6.7-6.5C54.3,45.9,53.3,44,51.6,42.7
			C51.6,42.8,51.6,42.7,51.6,42.7z M47.6,50.2c-1.2,0-2.2-1-2.2-2.2s1-2.2,2.2-2.2c1.2,0,2.2,1,2.2,2.2S48.9,50.2,47.6,50.2z
			 M50.1,43.5l-0.9,1.2c-0.5-0.2-1-0.3-1.5-0.3c-0.6,0-1.1,0.1-1.5,0.3l-0.9-1.2c0.7-0.4,1.5-0.6,2.4-0.6
			C48.5,42.9,49.3,43.1,50.1,43.5z M44,44.4l0.9,1.2c-0.6,0.6-1,1.5-1,2.4c0,0.1,0,0.3,0,0.4l-1.4,0.4c0-0.3-0.1-0.6-0.1-0.9
			C42.5,46.6,43.1,45.3,44,44.4z M43,50.2l1.4-0.4c0.5,0.9,1.4,1.5,2.5,1.8V53C45.2,52.8,43.7,51.7,43,50.2z M48.4,53v-1.5
			c1.1-0.2,2-0.9,2.5-1.8l1.4,0.4C51.5,51.7,50.1,52.8,48.4,53z M52.8,48c0,0.3,0,0.6-0.1,0.9l-1.4-0.4c0-0.1,0-0.3,0-0.4
			c0-0.9-0.4-1.8-1-2.4l0.9-1.2C52.2,45.3,52.8,46.6,52.8,48z"/>
		<path class="st0" d="M35,57.3v2.3c0,0.4,0.3,0.7,0.7,0.7h23.9c0.4,0,0.7-0.3,0.7-0.7V43.2c0-0.4-0.3-0.7-0.7-0.7
			c-0.4,0-0.7,0.3-0.7,0.7v15.8H36.5v-1.6c0.7-0.3,1.2-1,1.2-1.7V52c0-0.8-0.5-1.4-1.2-1.7v-4.5c0.7-0.3,1.2-1,1.2-1.7v-3.6
			c0-0.8-0.5-1.4-1.2-1.7v-1.6h22.4v3.6c0,0.4,0.3,0.7,0.7,0.7c0.4,0,0.7-0.3,0.7-0.7v-4.3c0-0.4-0.3-0.7-0.7-0.7H35.7
			c-0.4,0-0.7,0.3-0.7,0.7v2.3c-0.7,0.3-1.2,1-1.2,1.7V44c0,0.8,0.5,1.4,1.2,1.7v4.5c-0.7,0.3-1.2,1-1.2,1.7v3.6
			C33.8,56.4,34.3,57,35,57.3z M36.2,52v3.6c0,0.2-0.2,0.4-0.4,0.4c-0.2,0-0.4-0.2-0.4-0.4V52c0-0.2,0.2-0.4,0.4-0.4
			C36,51.5,36.2,51.7,36.2,52z M35.3,44v-3.6c0-0.2,0.2-0.4,0.4-0.4c0.2,0,0.4,0.2,0.4,0.4V44c0,0.2-0.2,0.4-0.4,0.4
			C35.5,44.5,35.3,44.3,35.3,44z"/>
	</g>
	<g>
		<path class="st0" d="M32,31.4H0.7c-0.4,0-0.7,0.3-0.7,0.7v31.2C0,63.7,0.3,64,0.7,64H32c0.4,0,0.7-0.3,0.7-0.7V32.1
			C32.8,31.7,32.4,31.4,32,31.4z M31.3,62.5H1.5V32.8h29.8V62.5z"/>
		<path class="st0" d="M20.3,42.7C20.3,42.7,20.3,42.7,20.3,42.7c-1.1-0.8-2.5-1.2-3.9-1.2c-1.4,0-2.8,0.4-3.9,1.2c0,0,0,0,0,0
			s0,0,0,0C10.8,44,9.7,45.9,9.7,48c0,3.6,3,6.5,6.7,6.5s6.7-2.9,6.7-6.5C23.1,45.9,22,44,20.3,42.7C20.3,42.8,20.3,42.7,20.3,42.7z
			 M16.4,50.2c-1.2,0-2.2-1-2.2-2.2s1-2.2,2.2-2.2s2.2,1,2.2,2.2S17.6,50.2,16.4,50.2z M18.8,43.5l-0.9,1.2c-0.5-0.2-1-0.3-1.5-0.3
			s-1.1,0.1-1.5,0.3L14,43.5c0.7-0.4,1.5-0.6,2.4-0.6C17.2,42.9,18.1,43.1,18.8,43.5z M12.8,44.4l0.9,1.2c-0.6,0.6-1,1.5-1,2.4
			c0,0.1,0,0.3,0,0.4l-1.4,0.4c0-0.3-0.1-0.6-0.1-0.9C11.2,46.6,11.8,45.3,12.8,44.4z M11.7,50.2l1.4-0.4c0.5,0.9,1.4,1.5,2.5,1.8
			V53C13.9,52.8,12.5,51.7,11.7,50.2z M17.1,53v-1.5c1.1-0.2,2-0.9,2.5-1.8l1.4,0.4C20.3,51.7,18.8,52.8,17.1,53z M21.6,48
			c0,0.3,0,0.6-0.1,0.9l-1.4-0.4c0-0.1,0-0.3,0-0.4c0-0.9-0.4-1.8-1-2.4l0.9-1.2C21,45.3,21.6,46.6,21.6,48z"/>
		<path class="st0" d="M3.7,57.3v2.3c0,0.4,0.3,0.7,0.7,0.7h23.9c0.4,0,0.7-0.3,0.7-0.7V43.2c0-0.4-0.3-0.7-0.7-0.7
			c-0.4,0-0.7,0.3-0.7,0.7v15.8H5.2v-1.6c0.7-0.3,1.2-1,1.2-1.7V52c0-0.8-0.5-1.4-1.2-1.7v-4.5c0.7-0.3,1.2-1,1.2-1.7v-3.6
			c0-0.8-0.5-1.4-1.2-1.7v-1.6h22.4v3.6c0,0.4,0.3,0.7,0.7,0.7s0.7-0.3,0.7-0.7v-4.3c0-0.4-0.3-0.7-0.7-0.7H4.4
			c-0.4,0-0.7,0.3-0.7,0.7v2.3c-0.7,0.3-1.2,1-1.2,1.7V44c0,0.8,0.5,1.4,1.2,1.7v4.5c-0.7,0.3-1.2,1-1.2,1.7v3.6
			C2.5,56.4,3,57,3.7,57.3z M4.9,52v3.6c0,0.2-0.2,0.4-0.4,0.4C4.2,56,4,55.8,4,55.6V52c0-0.2,0.2-0.4,0.4-0.4S4.9,51.7,4.9,52z
			 M4,44v-3.6C4,40.2,4.2,40,4.4,40c0.2,0,0.4,0.2,0.4,0.4V44c0,0.2-0.2,0.4-0.4,0.4C4.2,44.5,4,44.3,4,44z"/>
	</g>
</g>
<g id="Facilities">
</g>
</svg>
