<?xml version="1.0" encoding="utf-8"?>
<!-- Generator: Adobe Illustrator 20.1.0, SVG Export Plug-In . SVG Version: 6.00 Build 0)  -->
<svg version="1.1" id="Layer_1" xmlns="http://www.w3.org/2000/svg" xmlns:xlink="http://www.w3.org/1999/xlink" x="0px" y="0px"
	 viewBox="0 0 64 64" style="enable-background:new 0 0 64 64;" xml:space="preserve">
<style type="text/css">
	.st0{fill:#7E603B;}
</style>
<g id="Font">
	<g>
		<g id="Layer_1_121_">
			<g>
				<circle class="st0" cx="26.5" cy="41.4" r="2.9"/>
				<path class="st0" d="M54.4,29.9V19.1H11.9v10.9c-1.3,2.7-2.2,6.2-2.2,9.6c0.1,12.9,10.7,23.4,23.5,23.4s23.4-10.5,23.4-23.4
					C56.6,36.1,55.9,32.5,54.4,29.9z M33.2,57.6c-9.9,0-18.1-8-18.1-18.1c0-0.4,0-0.7,0-1c1,0.3,2.2,0.4,3.2,0.4
					c6.5,0,12.5-4,14.9-9.5c2.3,5.6,8.3,9.5,14.9,9.5c1,0,2.2-0.1,3.2-0.4c0,0.4,0,0.7,0,1C51.4,49.5,43.2,57.6,33.2,57.6z"/>
				<circle class="st0" cx="39.9" cy="41.4" r="2.9"/>
				<path class="st0" d="M54.4,6.2c0-2.4-2.6-4.3-4.9-4.3H16.8c-2.4,0-4.9,1.9-4.9,4.3v7.6h42.5L54.4,6.2L54.4,6.2z"/>
			</g>
		</g>
	</g>
</g>
<g id="Facilities">
</g>
</svg>
