<?xml version="1.0" encoding="utf-8"?>
<!-- Generator: Adobe Illustrator 20.1.0, SVG Export Plug-In . SVG Version: 6.00 Build 0)  -->
<svg version="1.1" xmlns="http://www.w3.org/2000/svg" xmlns:xlink="http://www.w3.org/1999/xlink" x="0px" y="0px"
	 viewBox="0 0 64 64" style="enable-background:new 0 0 64 64;" xml:space="preserve">
<style type="text/css">
	.st0{fill:#7E603B;}
</style>
<g id="Font">
	<g>
		<g>
			<path class="st0" d="M21.7,30.7c2.2,0,4.1,1.8,4.1,4.1s-1.8,4.1-4.1,4.1c-2.2,0-4.1-1.8-4.1-4.1S19.5,30.7,21.7,30.7z"/>
			<path class="st0" d="M61.2,33.9l2.7-21.7L44.2,4.8L20.6,16.1L0,7.4l2.8,23.1L0.1,53.2L22,57.3l22.3-4.2L64,57.6L61.2,33.9z
				 M44.1,7.1l17.5,6.6l-1.2,9.5L43,18.7L44.1,7.1z M41.8,8.3l-0.9,9.9l0,0l-12,1.6L28.8,20c0,0.1-1.4,5.2-2.9,7.6
				c-1-0.6-2-0.9-3.2-1.1l-1-8.6L41.8,8.3z M40,30.4L29.5,32c-0.6-1.6-1.6-3-2.9-3.9c1.4-2.2,2.6-6.4,2.9-7.5L40.8,19L40,30.4z
				 M19.6,18l1,8.5c-3.2,0.4-5.8,2.7-6.7,5.7l-8.9-1.4l-0.9-8.3c3-0.2,5.2-1.2,6.6-2.9c1.3-1.5,1.7-3.4,1.7-4.7L19.6,18z M2.6,10.8
				l9,3.8c0,1.3-0.3,3.1-1.5,4.6c-1.3,1.5-3.3,2.4-6.1,2.6L2.6,10.8z M2.5,51.5l2.2-18.6l8.8,1.4c0,0.1,0,0.3,0,0.4
				c0,1.9,0.7,3.7,1.8,5.1l-4.6,3.7l-1.4,9.3L2.5,51.5z M19.7,54.7L10,52.9l1.4-9l4.4-3.5c1.3,1.4,3.1,2.3,5.2,2.5L19.7,54.7z
				 M15.1,34.7c0-3.7,3-6.6,6.6-6.6c3.7,0,6.6,3,6.6,6.6c0,3.7-3,6.6-6.6,6.6C18.1,41.3,15.1,38.4,15.1,34.7z M22,55.2l-0.2,0
				l1.3-12.3c3.9-0.7,6.9-4.1,6.9-8.2c0-0.2,0-0.4,0-0.7l10.2-1.5l0.9,8.7c-4.5,0.2-7.8,1.6-10,4.1c-2.5,3-2.6,6.7-2.5,8.5L22,55.2z
				 M29.5,53.7c-0.1-1.7,0-5.2,2.3-7.8c2-2.4,5.1-3.7,9.4-3.8l0.9,9.3L29.5,53.7z M42.9,19.5l17.4,4.4l-1,8.2l-17.1-2.1L42.9,19.5z
				 M56.9,39.2L49,38.3l1.4,14l-6.3-1.4l-1.8-18.8l0.2,0l16.6,2.1l2.5,20.6l-10.3-2.4l-1.4-13.3l7,0.8L56.9,39.2z"/>
		</g>
	</g>
</g>
<g id="Facilities">
</g>
</svg>
