<?xml version="1.0" encoding="utf-8"?>
<!-- Generator: Adobe Illustrator 20.1.0, SVG Export Plug-In . SVG Version: 6.00 Build 0)  -->
<svg version="1.1" xmlns="http://www.w3.org/2000/svg" xmlns:xlink="http://www.w3.org/1999/xlink" x="0px" y="0px"
	 viewBox="0 0 64 64" style="enable-background:new 0 0 64 64;" xml:space="preserve">
<style type="text/css">
	.st0{fill:#7E603B;}
</style>
<g id="Font">
	<g>
		<g>
			<path class="st0" d="M47.9,0H18.6c-4.7,0-8.5,3.8-8.5,8.5v30.6c0,4.7,3.8,8.5,8.5,8.5h11.8v9.2c-2.6,0.8-4.7,2.8-5.7,5.3
				c-0.2,0.4-0.1,0.9,0.1,1.3c0.3,0.4,0.7,0.6,1.2,0.6h14.5c0.5,0,0.9-0.2,1.2-0.6c0.3-0.4,0.3-0.9,0.1-1.3c-1-2.5-3.1-4.4-5.7-5.3
				v-9.2h11.9c4.7,0,8.5-3.8,8.5-8.5V8.5C56.4,3.8,52.6,0,47.9,0z M52.9,37.8c0,3.4-2.7,6.1-6.1,6.1h-27c-3.4,0-6.1-2.8-6.1-6.1V9.7
				c0-3.4,2.8-6.1,6.1-6.1h27c3.4,0,6.1,2.7,6.1,6.1V37.8z"/>
			<path class="st0" d="M46.8,6.4h-27c-1.8,0-3.3,1.5-3.3,3.3v28.1c0,1.8,1.5,3.3,3.3,3.3h27c1.8,0,3.3-1.4,3.3-3.3V9.7
				C50,7.9,48.6,6.4,46.8,6.4z M39.9,24.2c-1.8,1.6-4.4,2.4-7.4,2.4c-0.7,0-1.3,0-1.8-0.1v8.1h-5V12.2c1.6-0.3,3.8-0.5,6.9-0.5
				c3.2,0,5.4,0.6,6.9,1.8c1.4,1.1,2.4,3,2.4,5.2C42,21,41.2,22.9,39.9,24.2z"/>
			<path class="st0" d="M32.9,15.6c-1,0-1.8,0.1-2.1,0.2v6.7c0.5,0.1,1,0.1,1.7,0.1c2.7,0,4.4-1.4,4.4-3.7
				C36.9,16.9,35.4,15.6,32.9,15.6z"/>
		</g>
	</g>
</g>
<g id="Facilities">
</g>
</svg>
