<?xml version="1.0" encoding="utf-8"?>
<!-- Generator: Adobe Illustrator 20.1.0, SVG Export Plug-In . SVG Version: 6.00 Build 0)  -->
<svg version="1.1" id="Layer_1" xmlns="http://www.w3.org/2000/svg" xmlns:xlink="http://www.w3.org/1999/xlink" x="0px" y="0px"
	 viewBox="0 0 64 64" style="enable-background:new 0 0 64 64;" xml:space="preserve">
<style type="text/css">
	.st0{fill:#7E603B;}
</style>
<g id="Font">
	<g>
		<g>
			<path class="st0" d="M57.4,54.1c0,1.6-1.2,2.8-2.7,2.8H9.3c-1.5,0-2.8-1.2-2.8-2.8V9.6c0-1.6,1.2-2.9,2.8-2.9h45.4
				c1.5,0,2.7,1.2,2.7,2.9V54.1L57.4,54.1z M57.5,3.5H6.5c-1.7,0-3,1.4-3,3.2v50.5c0,1.8,1.3,3.2,3,3.2h50.9c1.7,0,3-1.4,3-3.3V6.7
				C60.5,4.9,59.2,3.5,57.5,3.5L57.5,3.5z"/>
			<path class="st0" d="M20,10.3c2.5,0,4.5,2.2,4.5,5s-2,5-4.5,5s-4.5-2.2-4.5-5C15.4,12.5,17.5,10.3,20,10.3L20,10.3z"/>
			<path class="st0" d="M25.2,22.5H14.4c-1.8,0-3.2,1.4-3.2,3.3v10.2c0,1.6,1.2,2.9,2.6,3.2l0,0c0,0,0.9,0,1.1,1.2
				c0.4,2.4,1.1,8,1.2,10.2c0.4,2.9,2,2.9,2,2.9s1.5,0.4,3.5,0s2.1-2.9,2.1-2.9L25,40.1c0.1-0.9,0.9-1,0.9-1l0,0
				c1.5-0.3,2.7-1.6,2.7-3.2V25.8C28.4,23.9,27,22.5,25.2,22.5L25.2,22.5z"/>
			<path class="st0" d="M52,25.3L52,25.3l-7.5-8.1l0,0c-1.2-1.3-2.2-0.5-2.6-0.2l-0.2,0.2l0,0l-7.1,7.7c-2.6,2.9-0.4,3.5,0,3.6H52
				C52,28.4,54.4,27.9,52,25.3L52,25.3z"/>
			<path class="st0" d="M52.2,35.6H34.4l0,0c-2.5,0-1.1,2-0.4,2.8l0.4,0.4l7.5,8.2c0.3,0.4,1.5,1.3,2.8-0.1l7.5-8.1
				C55,35.7,52.3,35.6,52.2,35.6L52.2,35.6z"/>
		</g>
	</g>
</g>
<g id="Facilities">
</g>
</svg>
