<?xml version="1.0" encoding="utf-8"?>
<!-- Generator: Adobe Illustrator 20.1.0, SVG Export Plug-In . SVG Version: 6.00 Build 0)  -->
<svg version="1.1" xmlns="http://www.w3.org/2000/svg" xmlns:xlink="http://www.w3.org/1999/xlink" x="0px" y="0px"
	 viewBox="0 0 64 64" style="enable-background:new 0 0 64 64;" xml:space="preserve">
<style type="text/css">
	.st0{fill:#7E603B;}
</style>
<g id="Font">
	<g>
		<g>
			<path class="st0" d="M0,44.3c0,1,0.7,1.7,1.7,1.7h2.4c-1.7,1.4-2.7,3.4-2.7,5.4c0,4.1,3.4,7.1,7.1,7.1s7.1-3.4,7.1-7.1
				c0-2.4-1-4.1-2.7-5.4h21.3c-1.7,1.4-2.7,3.4-2.7,5.4c0,4.1,3.4,7.1,7.1,7.1c3.7,0,7.1-3.4,7.1-7.1c0-2.4-1-4.1-2.7-5.4h7.4
				c1,0,1.7-0.7,1.7-1.7V15.5h10.2c1,0,1.7-0.7,1.7-1.7c0-1-0.3-1.7-1.4-1.7H50.8c-1,0-1.7,0.7-1.7,1.7v28.8H1.7
				C0.7,42.6,0,43.3,0,44.3z M8.5,55.5c-2,0-3.7-1.7-3.7-3.7c0-2,1.7-3.7,3.7-3.7s3.7,1.7,3.7,3.7C12.2,53.8,10.5,55.5,8.5,55.5z
				 M38.9,55.5c-2,0-3.7-1.7-3.7-3.7c0-2,1.7-3.7,3.7-3.7s3.7,1.7,3.7,3.7C42.7,53.8,41,55.5,38.9,55.5z"/>
			<path class="st0" d="M1.7,13.8v23.7c0,1,0.7,1.7,1.7,1.7H44c1,0,1.7-0.7,1.7-1.7V13.8c0-1-0.7-1.7-1.7-1.7H32.2V7.1
				c0-1-0.7-1.7-1.7-1.7H16.9c-1,0-1.7,0.7-1.7,1.7v5.1H3.4C2.4,12.2,1.7,12.8,1.7,13.8z M42.3,15.5v20.3h-6.8v-6.8
				c1,0,1.7-0.7,1.7-1.7c0-1-0.7-1.7-1.7-1.7V15.5L42.3,15.5L42.3,15.5z M18.6,8.8h10.2v3.4H18.6V8.8z M32.2,15.5v10.2
				c-1,0-1.7,0.7-1.7,1.7c0,1,0.7,1.7,1.7,1.7v6.8H15.2v-6.8c1,0,1.7-0.7,1.7-1.7c0-1-0.7-1.7-1.7-1.7V15.5L32.2,15.5L32.2,15.5z
				 M5.1,15.5h6.8v10.2c-1,0-1.7,0.7-1.7,1.7c0,1,0.7,1.7,1.7,1.7v6.8H5.1V15.5z"/>
		</g>
	</g>
</g>
<g id="Facilities">
</g>
</svg>
