<?xml version="1.0" encoding="utf-8"?>
<!-- Generator: Adobe Illustrator 20.1.0, SVG Export Plug-In . SVG Version: 6.00 Build 0)  -->
<svg version="1.1" xmlns="http://www.w3.org/2000/svg" xmlns:xlink="http://www.w3.org/1999/xlink" x="0px" y="0px"
	 viewBox="0 0 64 64" style="enable-background:new 0 0 64 64;" xml:space="preserve">
<style type="text/css">
	.st0{fill:#7E603B;}
</style>
<g id="Font">
	<g>
		<path class="st0" d="M64,32c0,17.6-14.4,32-32,32C14.4,64,0,49.6,0,32S14.4,0,32,0c6.4,0,12.7,2,18,5.6l4.9-4.9l4,15.2l-15.2-4
			l3.4-3.4C42.7,5.5,37.4,3.9,32,3.9c-15.5,0-28,12.6-28,28C3.9,47.5,16.5,60,32,60C47.5,60,60,47.5,60,32L64,32L64,32z M24,32.3
			c-2.7,1.9-4.5,3.5-5.5,4.9c-1,1.4-1.5,3-1.5,5v0h14.4v-3.7h-9.2l0,0c0.7-1,2-2.1,3.9-3.3c2.1-1.3,3.5-2.5,4.2-3.5
			c0.7-1.1,1.1-2.4,1.1-4c0-2-0.7-3.6-2-4.8c-1.3-1.2-3-1.9-5.1-1.9c-2.2,0-4,0.7-5.3,2c-1.3,1.3-1.9,3.2-1.8,5.5h4.1
			c0-1.2,0.2-2.2,0.7-2.9c0.5-0.7,1.3-1.1,2.2-1.1c0.9,0,1.6,0.3,2.1,0.9c0.5,0.6,0.8,1.3,0.8,2.3c0,0.9-0.2,1.6-0.7,2.3
			C26.1,30.7,25.3,31.5,24,32.3z M41.1,42.2v-4.7h-8.4v-1.8v-1.8L40.5,21h2.3h2.3v13.2h2.4v3.3h-2.4v4.7L41.1,42.2L41.1,42.2z
			 M41.1,34.2v-8.8L36,33.9l-0.2,0.3L41.1,34.2L41.1,34.2z M33.3,7.2h-2v4h2V7.2z M33.3,52.1h-2v4h2V52.1z M56.7,32.6v-2h-4v2H56.7z
			 M11.9,32.6v-2h-4v2H11.9z"/>
	</g>
</g>
<g id="Facilities">
</g>
</svg>
