<?xml version="1.0" encoding="utf-8"?>
<!-- Generator: Adobe Illustrator 20.1.0, SVG Export Plug-In . SVG Version: 6.00 Build 0)  -->
<svg version="1.1" xmlns="http://www.w3.org/2000/svg" xmlns:xlink="http://www.w3.org/1999/xlink" x="0px" y="0px"
	 viewBox="0 0 64 64" style="enable-background:new 0 0 64 64;" xml:space="preserve">
<style type="text/css">
	.st0{fill:#7E603B;}
</style>
<g id="Font">
	<g>
		<g>
			<g>
				<g>
					<path class="st0" d="M55.2,20.2h-8.7c-3.6-4.9-9.3-7.9-15.4-7.9c-6.4,0-12.3,3.2-15.8,8.6H8.8C4,20.9,0,24.8,0,29.7v3.1
						c0,4.9,4,8.8,8.8,8.8h6.4c3.5,5.4,9.4,8.6,15.8,8.6c6.6,0,12.8-3.5,16.2-9.2h7.9c4.9,0,8.8-4,8.8-8.8V29
						C64,24.1,60.1,20.2,55.2,20.2z M26.4,25.4L23,37.2h-1.8L19.7,31c-0.3-1.3-0.5-2.3-0.7-3.2c-0.2,1-0.5,2-0.8,3.2l-1.7,6.2h-1.8
						l0-0.1l-3-11.9h1.9l0,0.1l1.4,5.9c0.3,1.3,0.6,2.5,0.8,3.5c0.2-1,0.5-2.3,0.9-3.5l1.6-6H20l0,0.1l1.4,6
						c0.3,1.1,0.5,2.4,0.7,3.5c0.2-1,0.5-2.1,0.8-3.2l0.1-0.3l1.6-6h1.8L26.4,25.4z M29,37.2h-1.8v-8.6H29L29,37.2L29,37.2z
						 M28.9,27.1c-0.2,0.2-0.5,0.3-0.8,0.3c-0.6,0-1-0.5-1-1.1c0-0.6,0.5-1.1,1.1-1.1c0.6,0,1.1,0.5,1.1,1.1
						C29.2,26.6,29.1,26.9,28.9,27.1z M63.1,32.1c0,4.3-3.5,7.9-7.9,7.9H39.7c-3.2,0-6,0-7.5-0.1c1.5-0.7,3.8-1.8,3.8-3.9v-7
						c0-4.3,3.5-7.9,7.9-7.9h11.3c4.3,0,7.9,3.5,7.9,7.9L63.1,32.1L63.1,32.1z"/>
				</g>
				<g>
					<polygon class="st0" points="40.3,37 42,37 42,31.9 46.2,31.9 46.2,30.4 42,30.4 42,27 46.5,27 46.5,25.5 40.3,25.5 					"/>
				</g>
			</g>
			<g>
				<rect x="47.9" y="28.7" class="st0" width="1.7" height="8.3"/>
			</g>
			<g>
				<path class="st0" d="M48.7,25.5c-0.6,0-1,0.5-1,1c0,0.6,0.4,1,1,1c0.3,0,0.6-0.1,0.8-0.3c0.2-0.2,0.3-0.4,0.3-0.7
					C49.7,25.9,49.3,25.5,48.7,25.5z"/>
			</g>
		</g>
	</g>
</g>
<g id="Facilities">
</g>
</svg>
