<?xml version="1.0" encoding="utf-8"?>
<!-- Generator: Adobe Illustrator 20.1.0, SVG Export Plug-In . SVG Version: 6.00 Build 0)  -->
<svg version="1.1" xmlns="http://www.w3.org/2000/svg" xmlns:xlink="http://www.w3.org/1999/xlink" x="0px" y="0px"
	 viewBox="0 0 64 64" style="enable-background:new 0 0 64 64;" xml:space="preserve">
<style type="text/css">
	.st0{fill:#7E603B;}
</style>
<g id="Font">
	<g>
		<g>
			<path class="st0" d="M32,64c17.7,0,32-14.3,32-32S49.7,0,32,0C14.3,0,0,14.3,0,32C0,49.7,14.3,64,32,64z M32,5.4
				c14.7,0,26.6,11.9,26.6,26.6c0,6.1-2.1,11.8-5.6,16.3L41.1,36.4h6.2v-9.3H31.8L15.6,11.1C20.2,7.5,25.8,5.4,32,5.4z M11.1,15.7
				l11.5,11.5H8.7v9.3h23.2l16.5,16.5c-4.5,3.6-10.2,5.7-16.4,5.7C17.3,58.6,5.4,46.7,5.4,32C5.4,25.8,7.5,20.2,11.1,15.7z"/>
			<rect x="48.7" y="27.2" class="st0" width="2.9" height="9.3"/>
			<rect x="53" y="27.2" class="st0" width="2.9" height="9.3"/>
			<path class="st0" d="M40.6,17.5c0,0,10.8,0,13.2,6.9c0,0-0.5-10.9-13.9-10.7c-13.3,0.2-12.4-6.2-12.4-6.2S23.8,15.7,40.6,17.5z"
				/>
			<path class="st0" d="M50.7,26.3c0,0-0.4-7.6-11.3-7.5c-10.9,0.1-10.2-4.3-10.2-4.3s-3,5.7,10.8,7C39.9,21.5,48.7,21.4,50.7,26.3z
				"/>
		</g>
	</g>
</g>
<g id="Facilities">
</g>
</svg>
