<?xml version="1.0" encoding="utf-8"?>
<!-- Generator: Adobe Illustrator 20.1.0, SVG Export Plug-In . SVG Version: 6.00 Build 0)  -->
<svg version="1.1" xmlns="http://www.w3.org/2000/svg" xmlns:xlink="http://www.w3.org/1999/xlink" x="0px" y="0px"
	 viewBox="0 0 64 64" style="enable-background:new 0 0 64 64;" xml:space="preserve">
<style type="text/css">
	.st0{fill:#7E603B;}
</style>
<g id="Font">
	<path class="st0" d="M4,1.2l41,0v3.3H5.2v54.8h39.8v3.5l-41,0c-1.6,0-2.3-0.8-2.3-2.3V3.6C1.7,2,2.5,1.3,4,1.2z"/>
	<path class="st0" d="M59.9,8.1h-2.3V3.5c0-1.5-0.6-2.3-2.3-2.3l-4.5,0V0h-3.4v64h3.4v-1.2h4.3c1.8,0,2.5-0.9,2.6-2.6V31.1h2
		c1.9-0.1,2.8-0.9,2.7-2.7V10.7C62.3,8.8,61.8,8.2,59.9,8.1z M54.2,59.4h-3.5V4.5h3.5V59.4z M59.9,27.4c0,0.8-0.8,1.1-2.2,1.1V10.3
		c0.9-0.1,2.2,0.1,2.2,1V27.4z"/>
	<path class="st0" d="M18.7,24.1V12.6h1.2c0.3-1.3,0.1-2.5-1.1-3.5h-4.6c-1.1,0.9-1.3,2.1-1.2,3.4l1,0V24c-3.2,0.5-5.6,2.7-5.6,5.6
		v26.1c0,1.8,0.7,2.3,2.5,2.5h11.4c1.6-0.1,2.2-1,2.2-2.2V29.9C24.5,26.6,21.9,24.5,18.7,24.1z M13,54.8h-1.1V43.5H13V54.8z
		 M13,35.4h-1.1v-6.9H13V35.4z"/>
	<path class="st0" d="M37.1,26.1V12.6h1.4c0.1-1.6-0.3-2.9-1.4-3.4h-4.5c-1.3,0.6-1.7,1.8-1.6,3.4h1.5v13.7c-2.7,3-4.6,7.4-4.6,11.4
		v17.3c-0.1,1.6,0.7,2.2,2.4,2.3h9.1c1.6,0,2.3-0.8,2.2-2.2V37.8C41.6,34.2,39.8,29,37.1,26.1z M33.6,54.8h-3.4v-4.5h3.4V54.8z
		 M33.6,49.1h-3.4v-5.7h3.4V49.1z M33.6,41.2h-3.4v-4.6c0-1.4,1.9-3.2,3.4-3.4V41.2z"/>
</g>
<g id="Facilities">
</g>
</svg>
