<?xml version="1.0" encoding="utf-8"?>
<!-- Generator: Adobe Illustrator 20.1.0, SVG Export Plug-In . SVG Version: 6.00 Build 0)  -->
<svg version="1.1" id="Layer_1" xmlns="http://www.w3.org/2000/svg" xmlns:xlink="http://www.w3.org/1999/xlink" x="0px" y="0px"
	 viewBox="0 0 64 64" style="enable-background:new 0 0 64 64;" xml:space="preserve">
<style type="text/css">
	.st0{fill:#7E603B;}
</style>
<g id="Font">
	<g>
		<path class="st0" d="M60.7,2.4H4.1C3.3,2.4,2.8,3,2.8,3.7v56.5c0,0.9,0.6,1.3,1.2,1.3h56.5c0.8,0,1.2-0.6,1.2-1.2V3.7
			C62,2.9,61.5,2.4,60.7,2.4z M59.4,58.9H5.5V5.1h53.8V58.9z"/>
		<path class="st0" d="M39.5,22.3C39.4,22.2,39.4,22.2,39.5,22.3C37.4,20.9,35,20,32.4,20c-2.6,0-5,0.9-7,2.2c0,0-0.1,0-0.1,0.1
			c0,0-0.1,0-0.1,0.1c-3,2.1-4.8,5.7-4.8,9.6c0,6.6,5.4,12,12,12s12-5.4,12-12C44.4,28.1,42.6,24.5,39.5,22.3L39.5,22.3z M32.4,35.9
			c-2.2,0-3.9-1.7-3.9-3.9s1.7-3.9,3.9-3.9c2.2,0,3.9,1.7,3.9,3.9S34.6,35.9,32.4,35.9z M36.7,23.7l-1.5,2.2
			c-0.9-0.4-1.7-0.7-2.8-0.7c-1.1,0-1.9,0.2-2.8,0.7l-1.5-2.2c1.2-0.7,2.8-1.2,4.3-1.2C34,22.7,35.5,23.1,36.7,23.7z M25.9,25.3
			l1.5,2.2c-1.2,1.2-1.7,2.8-1.7,4.5c0,0.3,0,0.5,0,0.8l-2.5,0.9c-0.1-0.6-0.1-1.1-0.1-1.5C23.1,29.4,24,27,25.9,25.3z M24,36.1
			l2.6-0.9c1,1.6,2.6,2.9,4.4,3.3v2.7C28,40.8,25.4,38.8,24,36.1z M33.7,41.2v-2.7c1.9-0.4,3.6-1.5,4.4-3.3l2.6,0.9
			C39.4,38.8,36.8,40.8,33.7,41.2z M41.7,32c0,0.6-0.1,1.2-0.1,1.5L39,32.7c0-0.3,0-0.5,0-0.8c0-1.7-0.7-3.4-1.7-4.5l1.5-2.2
			C40.7,27,41.7,29.4,41.7,32z"/>
		<path class="st0" d="M9.5,49.3v4.2c0,0.8,0.6,1.2,1.2,1.2h43.1c0.8,0,1.2-0.6,1.2-1.2V23.1c0-0.8-0.6-1.2-1.2-1.2
			c-0.8,0-1.2,0.6-1.2,1.2v29.1H12.1v-3c1.2-0.6,2.1-1.7,2.1-3.3v-6.5c0-1.4-1-2.7-2.1-3.3v-8.3c1.2-0.6,2.1-1.7,2.1-3.3v-6.6
			c0-1.4-1-2.7-2.1-3.3v-3h40.4v6.6c0,0.8,0.6,1.2,1.2,1.2c0.7,0,1.2-0.6,1.2-1.2v-7.8c0-0.8-0.6-1.2-1.2-1.2H10.9
			c-0.8,0-1.2,0.6-1.2,1.2v4.2c-1.2,0.6-2.1,1.7-2.1,3.3v6.6c0,1.4,1,2.7,2.1,3.3v8.3c-1.2,0.6-2.1,1.7-2.1,3.3v6.6
			C7.3,47.5,8.3,48.7,9.5,49.3z M11.7,39.4V46c0,0.5-0.4,0.9-0.9,0.9S9.9,46.5,9.9,46v-6.6c0-0.5,0.4-0.9,0.9-0.9
			S11.7,38.9,11.7,39.4z M10,24.6V18c0-0.5,0.4-0.9,0.9-0.9s0.9,0.4,0.9,0.9v6.6c0,0.5-0.4,0.9-0.9,0.9C10.4,25.5,10,25.1,10,24.6z"
			/>
	</g>
</g>
<g id="Facilities">
</g>
</svg>
