<?xml version="1.0" encoding="utf-8"?>
<!-- Generator: Adobe Illustrator 20.1.0, SVG Export Plug-In . SVG Version: 6.00 Build 0)  -->
<svg version="1.1" xmlns="http://www.w3.org/2000/svg" xmlns:xlink="http://www.w3.org/1999/xlink" x="0px" y="0px"
	 viewBox="0 0 64 64" style="enable-background:new 0 0 64 64;" xml:space="preserve">
<style type="text/css">
	.st0{fill:#7E603B;}
</style>
<g id="Font">
	<g>
		<g>
			<path class="st0" d="M43.3,16c0.3,0,0.6-0.3,0.6-0.6v-2.6c0-0.3-0.3-0.6-0.6-0.6s-0.6,0.3-0.6,0.6v2.6C42.7,15.7,43,16,43.3,16z"
				/>
			<path class="st0" d="M45.8,16c0.3,0,0.6-0.3,0.6-0.6v-2.6c0-0.3-0.3-0.6-0.6-0.6s-0.6,0.3-0.6,0.6v2.6C45.2,15.7,45.5,16,45.8,16
				z"/>
			<path class="st0" d="M48.3,16c0.3,0,0.6-0.3,0.6-0.6v-2.6c0-0.3-0.3-0.6-0.6-0.6s-0.6,0.3-0.6,0.6v2.6C47.7,15.7,48,16,48.3,16z"
				/>
			<path class="st0" d="M43.3,21.1c0.3,0,0.6-0.3,0.6-0.6v-2.6c0-0.3-0.3-0.6-0.6-0.6s-0.6,0.3-0.6,0.6v2.6
				C42.7,20.8,43,21.1,43.3,21.1z"/>
			<path class="st0" d="M45.8,21.1c0.3,0,0.6-0.3,0.6-0.6v-2.6c0-0.3-0.3-0.6-0.6-0.6s-0.6,0.3-0.6,0.6v2.6
				C45.2,20.8,45.5,21.1,45.8,21.1z"/>
			<path class="st0" d="M48.3,21.1c0.3,0,0.6-0.3,0.6-0.6v-2.6c0-0.3-0.3-0.6-0.6-0.6s-0.6,0.3-0.6,0.6v2.6
				C47.7,20.8,48,21.1,48.3,21.1z"/>
			<path class="st0" d="M43.3,26.2c0.3,0,0.6-0.3,0.6-0.6V23c0-0.3-0.3-0.6-0.6-0.6s-0.6,0.3-0.6,0.6v2.6C42.7,26,43,26.2,43.3,26.2
				z"/>
			<path class="st0" d="M45.8,26.2c0.3,0,0.6-0.3,0.6-0.6V23c0-0.3-0.3-0.6-0.6-0.6s-0.6,0.3-0.6,0.6v2.6
				C45.2,26,45.5,26.2,45.8,26.2z"/>
			<path class="st0" d="M48.3,26.2c0.3,0,0.6-0.3,0.6-0.6V23c0-0.3-0.3-0.6-0.6-0.6s-0.6,0.3-0.6,0.6v2.6C47.7,26,48,26.2,48.3,26.2
				z"/>
			<path class="st0" d="M0,52.5v1.3V64h64V53.8v-1.3V0H0V52.5z M61.5,51.2H59V4.5c0-0.3-0.3-0.6-0.6-0.6H45.8
				c-0.3,0-0.6,0.3-0.6,0.6v3.2h-4.1c-0.5,0-0.9,0.4-0.9,1v0.6c0,0.5,0.4,1,0.9,1h9.4c0.5,0,0.9-0.4,0.9-1V8.6c0-0.5-0.4-1-0.9-1
				h-4.1V5.1h11.3v20.4c0-0.7-0.4-1.2-0.8-1.2h-0.1c-0.5,0-0.3,0.5-0.3,1.2v2.7c0,0.7-0.2,1.2,0.3,1.2h0.1c0.5,0,0.8-0.5,0.8-1.2v23
				H33.9V2.6h27.6L61.5,51.2L61.5,51.2z M32.6,51.2h-3.8V2.6h3.8V51.2z M2.5,2.6h25.1v48.6H2.5V2.6z"/>
			<path class="st0" d="M23.3,19.2h-0.2c-1,0-1.8,0.8-1.8,1.8v7.8c0,1,0.8,1.8,1.8,1.8h0.2c1,0,1.8-0.8,1.8-1.8V21
				C25.1,20,24.3,19.2,23.3,19.2z M23.8,28.9c0,0.3-0.3,0.6-0.5,0.6h-0.2c-0.3,0-0.5-0.2-0.5-0.6V21c0-0.3,0.3-0.6,0.5-0.6h0.2
				c0.3,0,0.5,0.2,0.5,0.6V28.9z"/>
			<path class="st0" d="M36.9,30.7h0.2c1,0,1.8-0.8,1.8-1.8V21c0-1-0.8-1.8-1.8-1.8h-0.2c-1,0-1.8,0.8-1.8,1.8v7.8
				C35.1,29.9,36,30.7,36.9,30.7z M36.4,21c0-0.3,0.3-0.6,0.5-0.6h0.2c0.3,0,0.5,0.2,0.5,0.6v7.8c0,0.3-0.3,0.6-0.5,0.6h-0.2
				c-0.3,0-0.5-0.2-0.5-0.6V21z"/>
		</g>
	</g>
</g>
<g id="Facilities">
</g>
</svg>
