<?xml version="1.0" encoding="utf-8"?>
<!-- Generator: Adobe Illustrator 20.1.0, SVG Export Plug-In . SVG Version: 6.00 Build 0)  -->
<svg version="1.1" id="Layer_1" xmlns="http://www.w3.org/2000/svg" xmlns:xlink="http://www.w3.org/1999/xlink" x="0px" y="0px"
	 viewBox="0 0 64 64" style="enable-background:new 0 0 64 64;" xml:space="preserve">
<style type="text/css">
	.st0{fill:#7E603B;}
</style>
<g id="Font">
	<g>
		<path class="st0" d="M60.1,36c-0.4-0.5-0.9-0.7-1.7-0.7h-53c-0.6,0-1.2,0.3-1.7,0.7c-0.4,0.5-0.5,1.1-0.3,1.8L10.2,61
			c0.3,0.8,1,1.5,1.9,1.5h39.7c0.8,0,1.8-0.5,1.9-1.5l6.6-23.2C60.6,37.2,60.5,36.5,60.1,36z M50.3,58.4H13.7L8.2,39.3h47.7
			L50.3,58.4z"/>
		<path class="st0" d="M17.1,32.1h33.2c1.1,0,2-0.8,2-2V17c2-1.7,3.3-4,3.3-6.7c0-4.8-3.9-8.6-8.6-8.6H13.8c-1.1,0-2,0.8-2,2v13.1
			c-2,1.7-3.3,3.9-3.3,6.7C8.5,28.2,12.3,32.1,17.1,32.1z M15.7,12.2h27.9c1.1,0,2-0.8,2-2s-0.8-2-2-2H15.7V5.6h31.1
			c2.6,0,4.7,2.1,4.7,4.7s-2.1,4.7-4.7,4.7H15.7V12.2z M17.1,18.9h31.1v2.6H20.4c-1.1,0-2,0.8-2,2s0.8,2,2,2h27.9v2.6H17.1
			c-2.6,0-4.7-2.1-4.7-4.7S14.5,18.9,17.1,18.9z"/>
		<path class="st0" d="M13.5,43.6l3.3,11.6c0.3,0.8,1,1.5,1.9,1.5c0.2,0,0.4,0,0.6-0.1c1-0.3,1.7-1.5,1.5-2.5l-3.3-11.6
			c-0.3-1-1.5-1.7-2.5-1.5C13.9,41.4,13.1,42.6,13.5,43.6z"/>
		<path class="st0" d="M32,56.7c1.1,0,2-0.8,2-2V43c0-1.1-0.8-2-2-2c-1.1,0-2,0.8-2,2v11.7C30,55.7,30.9,56.7,32,56.7z"/>
		<path class="st0" d="M44.7,56.6c0.2,0.1,0.4,0.1,0.5,0.1c0.8,0,1.8-0.5,1.9-1.5l3.3-11.7c0.3-1-0.3-2.2-1.5-2.5
			c-1-0.3-2.2,0.3-2.5,1.5l-3.3,11.7C43,55.2,43.6,56.4,44.7,56.6z"/>
	</g>
</g>
<g id="Facilities">
</g>
</svg>
