<?xml version="1.0" encoding="utf-8"?>
<!-- Generator: Adobe Illustrator 20.1.0, SVG Export Plug-In . SVG Version: 6.00 Build 0)  -->
<svg version="1.1" xmlns="http://www.w3.org/2000/svg" xmlns:xlink="http://www.w3.org/1999/xlink" x="0px" y="0px"
	 viewBox="0 0 64 64" style="enable-background:new 0 0 64 64;" xml:space="preserve">
<style type="text/css">
	.st0{fill:#7E603B;}
</style>
<g id="Font">
	<g>
		<g>
			<path class="st0" d="M58,20.5c-0.9,0-1.7,0.8-1.7,1.7v6.6h-1.9v-1.5c0-3.7-3-6.8-6.8-6.8c-2,0-3.8,0.9-5.1,2.3
				c-1.2-1.4-3.1-2.3-5.1-2.3c-2,0-3.8,0.9-5.1,2.3c-1.2-1.4-3.1-2.3-5.1-2.3c-2,0-3.8,0.9-5.1,2.3c-1.2-1.4-3.1-2.3-5.1-2.3
				c-3.7,0-6.8,3-6.8,6.8v1.5H7.1c-0.9,0-1.7,0.8-1.7,1.7c0,0.9,0.8,1.7,1.7,1.7h3.4v25.1c0,3.7,3,6.8,6.8,6.8c2,0,3.8-0.9,5.1-2.3
				c1.2,1.4,3.1,2.3,5.1,2.3s3.8-0.9,5.1-2.3c1.2,1.4,3.1,2.3,5.1,2.3s3.8-0.9,5.1-2.3c1.2,1.4,3.1,2.3,5.1,2.3c3.7,0,6.8-3,6.8-6.8
				V32.2H58c0.9,0,1.7-0.8,1.7-1.7v-8.3C59.7,21.3,58.9,20.5,58,20.5z M51.1,32.2v25.1c0,1.9-1.5,3.4-3.4,3.4
				c-1.9,0-3.4-1.5-3.4-3.4V32.2v-3.4v-1.5c0-1.9,1.5-3.4,3.4-3.4c1.9,0,3.4,1.5,3.4,3.4v1.5L51.1,32.2L51.1,32.2z M40.9,57.2
				c0,1.9-1.5,3.4-3.4,3.4c-1.9,0-3.4-1.5-3.4-3.4V32.2v-3.4v-1.5c0-1.9,1.5-3.4,3.4-3.4c1.9,0,3.4,1.5,3.4,3.4v1.5v3.4V57.2z
				 M30.8,57.2c0,1.9-1.5,3.4-3.4,3.4c-1.9,0-3.4-1.5-3.4-3.4V32.2v-3.4v-1.5c0-1.9,1.5-3.4,3.4-3.4c1.9,0,3.4,1.5,3.4,3.4v1.5v3.4
				V57.2z M20.6,57.2c0,1.9-1.5,3.4-3.4,3.4c-1.9,0-3.4-1.5-3.4-3.4V32.2v-3.4v-1.5c0-1.9,1.5-3.4,3.4-3.4c1.9,0,3.4,1.5,3.4,3.4
				v1.5v3.4V57.2z"/>
			<path class="st0" d="M21.3,0.6c-1.5,1.8-2.1,3.7-1.4,6c0.7,2.3,3,4.3,1.2,6.7c-1.3,1.7,1,4.1,2.4,2.4c1.5-1.9,2.1-3.9,1.4-6.3
				c-0.7-2.2-3-4.3-1.2-6.4C25.1,1.3,22.7-1.1,21.3,0.6z"/>
			<path class="st0" d="M33.6,15.6c1.5-1.9,2.1-3.9,1.4-6.3c-0.7-2.2-3-4.3-1.2-6.4c1.4-1.6-1-4-2.4-2.4c-1.5,1.8-2.1,3.7-1.4,6
				c0.7,2.3,3,4.3,1.2,6.7C29.9,14.9,32.2,17.3,33.6,15.6z"/>
			<path class="st0" d="M41.5,0.6c-1.5,1.8-2.1,3.7-1.4,6c0.7,2.3,3,4.3,1.2,6.7c-1.3,1.7,1,4.1,2.4,2.4c1.5-1.9,2.1-3.9,1.4-6.3
				c-0.7-2.2-3-4.3-1.2-6.4C45.2,1.3,42.9-1.1,41.5,0.6z"/>
		</g>
	</g>
</g>
<g id="Facilities">
</g>
</svg>
