<?xml version="1.0" encoding="utf-8"?>
<!-- Generator: Adobe Illustrator 20.1.0, SVG Export Plug-In . SVG Version: 6.00 Build 0)  -->
<svg version="1.1" id="Capa_1" xmlns="http://www.w3.org/2000/svg" xmlns:xlink="http://www.w3.org/1999/xlink" x="0px" y="0px"
	 viewBox="0 0 70 70" style="enable-background:new 0 0 70 70;" xml:space="preserve">
<style type="text/css">
	.st0{fill:#7E603B;}
</style>
<g>
	<path class="st0" d="M57.4,36.3l1.8-3.6c0,0,0,0,0-0.1c1.4-0.2,2.5-1.1,2.9-2.7c0.4-1.5,0.6-3,0.6-4.6c0-9.9-7-20.6-22.3-20.6
		C25.8,4.8,18,15.4,18,25.4c0,1.7,0.3,3.2,0.7,4.9c0,0.1,0.8,2.2,2.9,2.7l2.1,3.6c-1.9,1.4-3.7,3.1-5.2,4.8l-5.3-3.2
		c0-0.1,0-0.3-0.1-0.4c-0.2-0.7-0.6-1.2-1.2-1.5c-1.1-0.6-2.7-0.2-3.4,0.9c-0.9-1-2.1-1.5-3.4-1.5c-2.5,0-4.6,2.1-4.6,4.6
		c0,2.3,1.7,4.2,3.9,4.6c-0.2,0.5-0.2,1,0,1.5c0.2,0.7,0.6,1.2,1.2,1.5c0.4,0.2,0.8,0.4,1.2,0.4c0.4,0,0.7-0.1,1.1-0.3l5.3,3
		c-0.9,2.8-1.4,5.8-1.4,8.8c0,1.8,0.2,3.6,0.5,5.3c0.1,0.5,0.5,0.9,1,0.9h54.8c0.5,0,0.9-0.4,1-0.9c0.4-1.8,0.5-3.6,0.5-5.3
		C69.6,50.2,64.7,41.6,57.4,36.3z M38.1,30.8c-0.6-1.3,0-2.9,1.3-3.5s2.9,0,3.5,1.3c0.4,0.8,0.3,1.7-0.2,2.5c-0.7,0-1.3,0-2,0
		c-0.9,0-1.7,0-2.5,0.1C38.2,31.1,38.1,31,38.1,30.8z M40.7,33.1c4.6,0,8.9,1.1,12.8,3.2c-10.7,5.2-21.8,1.9-26.1,0.4
		C31.4,34.4,35.9,33.1,40.7,33.1z M44.9,31.3c0.4-1.1,0.4-2.4-0.1-3.5c-1.1-2.4-3.9-3.4-6.1-2.4c-2.3,1.1-3.3,3.7-2.5,6
		c-3.9,0.6-7.6,2.1-10.9,4.1l-1.7-2.7c0.4-0.2,0.6-0.4,0.9-0.7c0.6-0.8,0.8-1.8,0.5-3.1c-0.1-0.3-0.1-0.5-0.2-0.8
		c-0.2-1-0.4-1.8-0.4-2.7c0-7.4,7.1-13.4,15.9-13.4s15.9,6,15.9,13.4c0,0.9-0.1,1.8-0.3,2.6c-0.2,0.4-0.7,1.9,0,3.2
		c0.3,0.6,0.8,1.1,1.4,1.2l-1.5,2.9C52.6,33.3,48.8,32,44.9,31.3z M20.5,29.8c-0.4-1.4-0.6-2.9-0.6-4.3c0-9.1,7.2-18.8,20.6-18.8
		C54.6,6.6,61,16.4,61,25.5c0,1.4-0.2,2.7-0.5,4c-0.3,1-0.8,1.4-1.7,1.4c-0.4,0-0.6-0.1-0.6-0.1c-0.4-0.1-0.5-0.3-0.5-0.4
		c-0.3-0.5,0-1.5,0.1-1.8c0-0.1,0-0.1,0.1-0.2c0.3-1.1,0.4-2,0.4-3.1c0-8.4-7.9-15.2-17.7-15.2s-17.7,6.8-17.7,15.2
		c0,1.1,0.2,2.1,0.4,3.1c0.1,0.3,0.1,0.5,0.2,0.8c0.2,0.7,0.1,1.3-0.2,1.6c-0.2,0.3-0.5,0.4-0.6,0.4C21,31.3,20.5,29.8,20.5,29.8z
		 M2.5,40.5c0-1.5,1.1-2.6,2.6-2.6c1,0,1.8,0.5,2.4,1.4l0,0l-2.1,3.9c-0.1,0-0.2,0-0.3,0C3.7,43.1,2.5,41.9,2.5,40.5z M6.5,46.4
		c-0.2-0.1-0.4-0.2-0.4-0.4c-0.1-0.2,0-0.4,0.1-0.6l0.4-0.8c0.1-0.1,0.1-0.2,0.2-0.3l3.3-6.1c0.2-0.3,0.4-0.4,0.7-0.4
		c0.1,0,0.3,0,0.4,0.1c0.2,0.1,0.3,0.3,0.4,0.4c0,0.2,0,0.3,0,0.4l-4.1,7.5C7.2,46.5,6.7,46.6,6.5,46.4z M9.5,46.7l3.4-6.2l4.4,2.6
		c-1.3,1.8-2.5,3.9-3.3,6.1L9.5,46.7z M67.3,64.1h-53c-0.2-1.4-0.4-2.8-0.4-4.1c0-9,4.5-17,11.4-21.9c1.9,0.9,8,3.2,15.4,3.2
		c4.6,0,9.8-1,14.9-3.7c7.3,4.8,12,13.1,12,22.3C67.5,61.3,67.5,62.7,67.3,64.1z"/>
	<path class="st0" d="M68.1,66.7H13.3c-0.7,0-1.3-0.5-1.4-1.2c-0.3-1.7-0.5-3.6-0.5-5.4c0-2.8,0.4-5.7,1.3-8.6l-4.8-2.7
		C7.1,49,6.4,49,5.4,48.5c-0.7-0.3-1.2-0.9-1.5-1.8c-0.1-0.4-0.2-0.8-0.1-1.3c-2.3-0.6-3.8-2.7-3.8-5c0-2.8,2.3-5.1,5.1-5.1
		c1.3,0,2.5,0.5,3.4,1.3c0.9-0.9,2.5-1.2,3.7-0.6c0.7,0.3,1.2,0.9,1.4,1.7c0.1,0.1,0.1,0.2,0.1,0.3l4.8,2.9c1.4-1.6,3-3.1,4.7-4.4
		l-1.8-3.1c-2-0.6-2.9-2.4-3-3l0,0c-0.5-1.9-0.7-3.4-0.7-5c0-10.2,8-21,22.8-21c15.6,0,22.8,10.9,22.8,21c0,1.7-0.2,3.2-0.6,4.7
		c-0.4,1.6-1.5,2.7-3,3l-1.6,3.2C65.6,41.8,70.1,50.7,70,60c0,1.8-0.2,3.7-0.5,5.4C69.3,66.2,68.8,66.7,68.1,66.7z M7.9,47.7
		l5.9,3.3l-0.1,0.3c-0.9,2.9-1.4,5.9-1.4,8.7c0,1.7,0.2,3.6,0.5,5.3c0.1,0.3,0.3,0.5,0.5,0.5h54.8c0.4,0,0.5-0.3,0.5-0.5
		c0.3-1.7,0.5-3.5,0.5-5.3c0.1-9.2-4.4-17.9-12-23.3l-0.3-0.2l2-3.8v-0.4l0.4,0c1.2-0.2,2.1-1,2.5-2.4c0.4-1.4,0.6-2.8,0.6-4.4
		c0-9.7-6.9-20.1-21.9-20.1c-14.2,0-21.9,10.4-21.9,20.1c0,1.5,0.2,3,0.7,4.8l0,0c0.1,0.2,0.8,1.9,2.6,2.4l0.2,0l2.4,4.1L24,37
		c-1.8,1.3-3.6,3-5.1,4.7L18.7,42l-5.9-3.5v-0.2c0,0,0-0.1,0-0.1l-0.1-0.1l0,0c-0.1-0.6-0.5-1-1-1.2c-1-0.5-2.3-0.2-2.9,0.7L8.6,38
		l-0.4-0.4c-0.8-0.9-1.9-1.3-3.1-1.3c-2.3,0-4.2,1.9-4.2,4.2c0,2,1.5,3.8,3.6,4.2L5,44.8l-0.2,0.5c-0.1,0.4-0.1,0.8,0,1.2
		c0.1,0.6,0.5,1,1,1.2c0.9,0.4,1.3,0.4,1.9,0.1L7.9,47.7z M67.7,64.6H13.9l0-0.4c-0.2-1.4-0.4-2.8-0.4-4.2c0-8.8,4.3-17.1,11.6-22.3
		l0.2-0.1l0.2,0.1c1.7,0.8,7.6,3.2,15.2,3.2c5.2,0,10.2-1.2,14.7-3.6l0.2-0.1l0.2,0.1c7.6,5.1,12.2,13.5,12.2,22.7l0,0.3
		c-0.1,1.3-0.2,2.5-0.3,3.9L67.7,64.6z M14.7,63.7h52.2c0.1-1.2,0.2-2.3,0.3-3.4l0-0.3c0-8.7-4.3-16.9-11.6-21.8
		c-4.6,2.4-9.6,3.6-14.9,3.6c-7.5,0-13.4-2.3-15.4-3.2c-6.9,5-11,13-11,21.4C14.4,61.2,14.5,62.4,14.7,63.7z M14.2,49.8l-5.3-3
		l3.8-7l5.2,3.1l-0.3,0.4c-1.3,1.8-2.4,3.9-3.3,6L14.2,49.8z M10.1,46.5l3.7,2.1c0.8-1.9,1.8-3.7,2.9-5.4L13,41.1L10.1,46.5z
		 M6.8,47c-0.2,0-0.4,0-0.6-0.2c-0.2-0.1-0.5-0.3-0.6-0.7c-0.1-0.3,0-0.7,0.1-0.9l0.5-0.9c0-0.1,0.1-0.1,0.1-0.2L9.8,38
		c0.3-0.4,0.6-0.6,1.1-0.6c0.1,0,0.4,0,0.6,0.2c0.3,0.2,0.4,0.4,0.5,0.6l0,0.1v0.7l-4.2,7.7l-0.1,0.1C7.5,46.8,7.1,47,6.8,47z
		 M6.6,46c0,0,0.1,0,0.1,0l0,0c0.1,0,0.2,0,0.4,0l4-7.3v-0.2c0-0.1-0.1-0.1-0.1-0.2l-0.1-0.1c0,0,0,0-0.1,0c-0.2,0-0.3,0-0.3,0.2
		l-3.4,6.2c0,0.1-0.1,0.1-0.1,0.2l-0.4,0.7c-0.1,0.1-0.1,0.2-0.1,0.2L6.6,46L6.6,46C6.6,46,6.6,46,6.6,46z M5.7,43.5H5.2
		c-1.7,0-3.1-1.4-3.1-3.1c0-1.7,1.3-3.1,3.1-3.1c1.1,0,2.1,0.6,2.7,1.6L8,39.2L5.7,43.5z M5.2,38.3c-1.2,0-2.2,0.9-2.2,2.2
		c0,1.2,1,2.2,2.2,2.2h0L7,39.3C6.6,38.6,5.9,38.3,5.2,38.3z M40.8,39.6c-5.5,0-10.4-1.4-13.5-2.5l-0.9-0.3l0.8-0.5
		c4.1-2.4,8.8-3.7,13.5-3.7c4.6,0,9,1.1,13,3.3l0.7,0.4l-0.8,0.4C49.3,38.9,44.9,39.6,40.8,39.6z M28.5,36.6
		c5.4,1.8,14.8,3.8,24.1-0.3c-3.7-1.8-7.6-2.8-11.8-2.8C36.5,33.5,32.3,34.6,28.5,36.6z M25.2,36.2L23,32.7l0.4-0.2
		c0.3-0.2,0.5-0.3,0.7-0.6c0.5-0.7,0.7-1.6,0.4-2.7c0-0.1-0.1-0.3-0.1-0.4c0-0.1,0-0.2-0.1-0.3l-0.1-0.3c-0.2-0.9-0.3-1.7-0.3-2.5
		c0-7.6,7.3-13.8,16.3-13.8c9,0,16.3,6.2,16.3,13.8c0,0.9-0.1,1.8-0.3,2.7l0,0.1c-0.1,0.3-0.6,1.7,0,2.7c0.2,0.5,0.6,0.9,1.1,1
		l0.5,0.1l-2,3.8l-0.4-0.3c-3.1-2.1-6.8-3.4-10.9-4.1l-0.5-0.1l0.2-0.5c0.4-1,0.3-2.1-0.1-3.2c-0.5-1-1.3-1.8-2.4-2.2
		c-1.1-0.4-2.2-0.4-3.2,0.1c-2.1,0.9-3,3.3-2.2,5.4l0.2,0.5l-0.5,0.1c-3.7,0.6-7.3,1.9-10.7,4.1L25.2,36.2z M24.3,33l1.2,2
		c3.2-2,6.6-3.3,10.1-3.9c-0.6-2.4,0.5-4.9,2.8-6c1.2-0.6,2.6-0.6,3.8-0.1c1.3,0.5,2.3,1.4,2.9,2.7c0.4,1.2,0.5,2.3,0.3,3.3
		c3.8,0.7,7.3,1.9,10.3,3.8l1-2c-0.5-0.3-1-0.7-1.2-1.3c-0.7-1.3-0.3-2.9,0-3.5c0.2-0.8,0.2-1.7,0.2-2.5c0-7.1-6.9-13-15.4-13
		c-8.5,0-15.4,5.8-15.4,13c0,0.8,0.1,1.6,0.3,2.4l0,0.2c0,0.1,0.1,0.2,0.1,0.4c0,0.1,0,0.2,0.1,0.3c0.3,1.4,0.1,2.6-0.6,3.5
		C24.7,32.7,24.5,32.8,24.3,33z M22.6,31.7c-1.9,0-2.5-1.7-2.5-1.8l0,0c-0.4-1.3-0.6-2.8-0.6-4.4c0-9.3,7.4-19.3,21-19.3
		c14.4,0,20.9,10,20.9,19.3c0,1.4-0.2,2.8-0.5,4.1c-0.3,1.1-1,1.7-2.1,1.7c-0.4,0-0.7-0.1-0.8-0.1c-0.4-0.1-0.7-0.3-0.8-0.6
		c-0.3-0.7,0-1.7,0.1-2c0-0.1,0.1-0.2,0.1-0.3c0.2-0.9,0.3-1.8,0.3-2.9c0-8.2-7.7-14.8-17.3-14.8c-9.5,0-17.3,6.6-17.3,14.8
		c0,1,0.1,1.9,0.4,3c0,0.1,0.1,0.3,0.1,0.4c0,0.1,0,0.2,0.1,0.3c0.2,0.9,0.1,1.6-0.3,2C23.3,31.6,22.8,31.7,22.6,31.7z M20.9,29.6
		c0,0.1,0.5,1.2,1.7,1.2c0,0,0.2-0.1,0.2-0.2c0.2-0.2,0.3-0.6,0.1-1.2c0-0.1-0.1-0.3-0.1-0.4c0-0.1,0-0.2-0.1-0.3
		c-0.3-1.2-0.5-2.2-0.5-3.2c0-8.6,8.1-15.7,18.1-15.7s18.1,7,18.1,15.7c0,1.2-0.1,2.2-0.4,3.2l0,0.1l-0.1,0.1
		C58,29.3,57.9,30,58,30.3l0,0c0,0,0.1,0.1,0.2,0.1c0,0,0.2,0.1,0.5,0.1c0.7,0,1-0.3,1.2-1.1c0.3-1.3,0.5-2.6,0.5-3.9
		c0-8.9-6.3-18.4-20.1-18.4c-13.1,0-20.1,9.5-20.1,18.4C20.3,27,20.5,28.4,20.9,29.6z M58,30.3L58,30.3L58,30.3z M38.1,31.6L38,31.5
		c-0.1-0.1-0.3-0.3-0.3-0.6c-0.3-0.7-0.3-1.5,0-2.3c0.3-0.8,0.9-1.4,1.6-1.7c0.7-0.3,1.6-0.4,2.4-0.1c0.8,0.3,1.4,0.9,1.7,1.6
		c0.4,0.9,0.3,1.9-0.2,2.9L43,31.5h-2.3c-0.9,0-1.6,0-2.4,0.1L38.1,31.6z M38.1,30.8l0.1,0l0,0H38.1z M40.5,27.5
		c-0.3,0-0.6,0.1-0.9,0.2c-0.5,0.2-0.9,0.7-1.2,1.2c-0.2,0.6-0.2,1.1,0.1,1.7l0,0.1c0.7-0.1,1.4-0.1,2.2-0.1h1.7
		c0.3-0.6,0.3-1.3,0-1.8c-0.2-0.5-0.7-0.9-1.2-1.1C41,27.6,40.8,27.5,40.5,27.5z"/>
</g>
</svg>
