<?xml version="1.0" encoding="utf-8"?>
<!-- Generator: Adobe Illustrator 20.1.0, SVG Export Plug-In . SVG Version: 6.00 Build 0)  -->
<svg version="1.1" xmlns="http://www.w3.org/2000/svg" xmlns:xlink="http://www.w3.org/1999/xlink" x="0px" y="0px"
	 viewBox="0 0 64 64" style="enable-background:new 0 0 64 64;" xml:space="preserve">
<style type="text/css">
	.st0{fill:#7E603B;}
</style>
<g id="Font">
	<path class="st0" d="M10.3,11.6c-0.1-0.1-0.2-0.1-0.3-0.1c-0.1,0-0.2,0.1-0.3,0.1c-1.1,1.4-2.1,1.5-3.3,0.4c-2-2.3-4.2-2.3-6.3,0
		c-0.1,0.1-0.1,0.3,0,0.5l0.6,0.8c0.1,0.1,0.2,0.1,0.3,0.2c0.1,0,0.2,0,0.3-0.1c1.2-1.5,2.4-1.6,3.6-0.5c0.8,1,1.9,1.6,3.2,1.7
		c1.3-0.1,2.4-0.9,3-2c0.1-0.2,0.1-0.4-0.1-0.5L10.3,11.6z"/>
	<path class="st0" d="M10.3,16.5c-0.1-0.1-0.2-0.1-0.3-0.1c-0.1,0-0.2,0.1-0.3,0.1c-1.1,1.4-2.1,1.5-3.3,0.4c-2-2.3-4.2-2.3-6.3,0
		c-0.1,0.1-0.1,0.3,0,0.5l0.6,0.8c0.1,0.1,0.2,0.1,0.3,0.2c0.1,0,0.2,0,0.3-0.1c1.2-1.4,2.4-1.6,3.6-0.4c0.8,1,1.9,1.6,3.2,1.7
		c1.3-0.1,2.4-0.9,3-2c0.1-0.2,0.1-0.4-0.1-0.5L10.3,16.5z"/>
	<path class="st0" d="M10.3,21.5c-0.2-0.1-0.4-0.1-0.5,0.1c0,0,0,0,0,0C8.7,23,7.6,23,6.4,22c-2-2.3-4.2-2.3-6.3,0
		c-0.1,0.1-0.1,0.3,0,0.5l0.6,0.8c0.1,0.1,0.2,0.1,0.3,0.2c0.1,0,0.2,0,0.3-0.1c1.3-1.5,2.4-1.6,3.6-0.4c0.8,1,1.9,1.6,3.2,1.7
		c1.3-0.1,2.4-0.9,3-2c0.1-0.2,0.1-0.4-0.1-0.5L10.3,21.5z"/>
	<path class="st0" d="M59.7,8.7c-0.5-0.3-1.2-0.2-1.5,0.3C58.1,9.2,58,9.4,58,9.6v16.3c0,0.4,0.2,0.8,0.6,1c0.2,0.1,0.4,0.1,0.5,0.1
		c0.2,0,0.4-0.1,0.6-0.2c2.6-1.6,4.2-5,4.3-9S62.4,10.4,59.7,8.7z M60.1,23.3v-11c1.1,1.7,1.6,3.6,1.5,5.6
		C61.6,19.7,61.1,21.6,60.1,23.3z"/>
	<path class="st0" d="M56.3,7C53.1,5.7,49.5,5,46,5C41.3,5,36.7,6,31.8,7.2C26.3,8.4,20.6,9.7,14,9.8c-0.6,0-1.1,0.5-1.2,1.1v13.8
		c0,0.3,0.2,0.6,0.4,0.8c0.2,0.2,0.5,0.3,0.9,0.3c2.6-0.1,5.3,0.1,7.9,0.4c0.9,0.2,1.8,0.3,2.8,0.4c5.1,0.8,10.8,1.6,12.6,4.8
		c-0.8,0.4-1.4,1.2-1.4,2.1v3.2c-0.1,0.8,0.3,1.6,0.9,2c-0.5,0.4-0.9,1-0.9,1.7V42c0.1,0.9,0.7,1.8,1.6,2.1c0,0.2,0.1,0.4,0,0.6
		c-0.1,8.6,0.7,13.1,2.7,15.1c0.7,0.7,1.7,1.1,2.7,1.1h0.4c1,0,1.9-0.4,2.6-1.1c1.9-1.9,1.7-5.9,1.6-10.5c-0.2-2.4-0.1-4.8,0.1-7.2
		c1.4-10.6,3.5-11.5,6.5-12.6c0.8-0.3,1.6-0.6,2.3-1c0.4-0.2,0.6-0.6,0.6-1V8C57,7.6,56.7,7.2,56.3,7z M55,26.8
		c-0.6,0.1-1.1,0.3-1.6,0.6c-4,1.6-6.5,3.3-8,14.4c-0.2,2.5-0.3,5.1-0.1,7.6c0.1,3.7,0.3,7.9-1,9.1c-0.3,0.4-0.7,0.6-1.1,0.6l0,0
		c0-0.1-0.1-0.1-0.1-0.2c-0.5,0-1-0.2-1.3-0.6c-2.1-2.2-2-10.7-2-13.4c0.1-0.5,0.1-1.1,0.1-1.6c0-0.3-0.1-0.6-0.3-0.9
		c-0.2-0.2-0.5-0.4-0.8-0.4h-0.4c0-0.1,0-0.2,0-0.2V40h0.6c0.5,0.1,1-0.2,1.1-0.7c0,0,0-0.1,0-0.1c0-0.5,0-0.9,0.1-1.3
		c0-0.3-0.1-0.5-0.3-0.7C39.8,37,39.5,37,39.2,37h-1.1c0,0,0,0.1,0,0.1V34h0.7c0.4-0.1,0.7-0.3,0.9-0.6c0.2-0.3,0.3-0.7,0.2-1
		c-1.2-5.6-8.5-6.8-14.8-7.8c-0.9-0.1-2-0.3-3-0.5c-2.4-0.4-4.8-0.6-7.2-0.6V12c7-0.2,12-1.4,17.2-2.7c4.7-1.1,9.5-2.1,13.9-2.1
		c3.1,0,6.1,0.5,9,1.6V26.8L55,26.8z"/>
	<path class="st0" d="M18,13.9h-0.5c-0.2,0-0.4,0.1-0.5,0.3c-0.1,0.2-0.2,0.4-0.1,0.6v2.3c0,0.2,0,0.4,0.1,0.6
		c0.1,0.1,0.3,0.2,0.4,0.2l0,0c5.5,0,10.5-1.3,15.3-2.5c4.5-1.1,8.8-2.1,13.1-2.1c2.1,0,4.2,0.3,6.2,0.9c0.2,0.1,0.5,0,0.7-0.1
		c0.2-0.2,0.3-0.4,0.3-0.7v-2.2c0-0.4-0.2-0.7-0.6-0.9c-2.1-0.7-4.2-1.1-6.4-1c-4.3,0-8.9,1.1-13.7,2.3S22.6,13.9,18,13.9z"/>
</g>
<g id="Facilities">
</g>
</svg>
