<?xml version="1.0" encoding="utf-8"?>
<!-- Generator: Adobe Illustrator 20.1.0, SVG Export Plug-In . SVG Version: 6.00 Build 0)  -->
<svg version="1.1" id="Layer_1" xmlns="http://www.w3.org/2000/svg" xmlns:xlink="http://www.w3.org/1999/xlink" x="0px" y="0px"
	 viewBox="0 0 64 64" style="enable-background:new 0 0 64 64;" xml:space="preserve">
<style type="text/css">
	.st0{fill:#7E603B;}
</style>
<g id="Font">
	<path class="st0" d="M23,58.3c-0.2,0.6-0.8,0.9-1.3,0.9c-0.2,0-0.3,0-0.5-0.1c-1.9-0.7-3.6-1.6-5.3-2.6c-0.7-0.5-0.8-1.3-0.5-2
		c0.5-0.7,1.3-0.9,2-0.5c1.5,0.9,3,1.7,4.7,2.4C22.9,56.7,23.3,57.6,23,58.3z M5.1,38.4c0.8-0.1,1.3-0.8,1.1-1.6
		C6,35.1,5.9,33.3,6,31.5c0-0.8-0.6-1.4-1.3-1.5c-0.8,0-1.4,0.6-1.5,1.3c-0.1,2,0,4,0.4,5.9c0.1,0.7,0.8,1.2,1.4,1.2
		C5,38.4,5,38.4,5.1,38.4z M40,14c0.1,0.1,0.3,0.1,0.4,0.2c0.2,0.1,0.4,0.1,0.6,0.1c0.6,0,1-0.3,1.3-0.8c0.3-0.8,0-1.6-0.8-1.9
		c-0.2-0.1-0.3-0.1-0.5-0.2c-0.8-0.3-1.6,0.1-1.9,0.8C39,12.8,39.2,13.7,40,14z M40.5,9.1c1.7,0.6,3.2,1.4,4.7,2.4
		c0.3,0.2,0.5,0.2,0.8,0.2c0.5,0,0.9-0.2,1.2-0.7c0.5-0.7,0.2-1.5-0.5-2c-1.6-1-3.4-1.9-5.3-2.6c-0.8-0.3-1.6,0.1-1.8,0.8
		C39.3,8,39.7,8.9,40.5,9.1z M53.2,29.4c-0.8,0.1-1.3,0.8-1.2,1.6c0,0.1,0,0.3,0.1,0.4c0.1,0.8,0.7,1.2,1.4,1.2c0.1,0,0.1,0,0.2,0
		c0.8-0.1,1.3-0.8,1.2-1.6c0-0.2,0-0.3-0.1-0.5C54.7,29.7,54,29.2,53.2,29.4z M9.3,36.3c0.1,0,0.1,0,0.2,0c0.8-0.1,1.3-0.8,1.2-1.6
		c0-0.1,0-0.3-0.1-0.4C10.5,33.6,9.9,33,9,33.1c-0.8,0.1-1.3,0.8-1.2,1.6c0,0.2,0,0.3,0.1,0.5C8,35.8,8.5,36.3,9.3,36.3z M59.2,28.4
		c-0.1-0.8-0.9-1.3-1.6-1.1c-0.8,0.1-1.3,0.8-1.1,1.6c0.3,1.7,0.4,3.5,0.3,5.3c0,0.8,0.6,1.4,1.3,1.5c0,0,0,0,0.1,0
		c0.8,0,1.4-0.6,1.4-1.3C59.6,32.3,59.5,30.3,59.2,28.4z M58.8,42.3c0.5,1.4,0.3,3-0.5,4.2l-0.7,1.1c-0.8,1.3-2,2.3-3.5,2.5
		c-1.4,0.3-2.7,0.1-4-0.7l-13.4-8.8l0.9,16c0.1,1.4-0.4,2.7-1.4,3.7c-1,1-2.5,1.7-4,1.7H31c-1.5,0-2.9-0.7-4-1.7
		c-0.9-1-1.5-2.4-1.4-3.7l0.8-16l-13.4,8.8c-1.1,0.8-2.6,0.9-4,0.7c-1.4-0.4-2.7-1.3-3.5-2.5L5,46.5c-0.8-1.3-0.9-2.8-0.5-4.2
		c0.4-1.3,1.3-2.5,2.5-3L21.7,32L7.4,24.8c-1.2-0.7-2.2-1.7-2.5-3c-0.5-1.4-0.3-3,0.5-4.2L6,16.4c0.8-1.3,2-2.3,3.5-2.5
		c1.4-0.3,2.7-0.1,4,0.7l13.4,8.8l-1-16.1c0-1.4,0.5-2.7,1.4-3.8c1-1,2.5-1.7,4-1.7h1.2c1.5,0,2.9,0.7,4,1.7c0.9,1,1.5,2.4,1.4,3.7
		l-0.8,16l13.4-8.8c1.1-0.8,2.6-0.9,4-0.7c1.4,0.4,2.7,1.3,3.5,2.5l0.7,1.1c0.8,1.3,0.9,2.8,0.5,4.3c-0.4,1.3-1.3,2.5-2.6,3L42,32
		l14.3,7.2C57.6,39.8,58.4,40.9,58.8,42.3z M26.5,37.6c-1-1-1.8-2.3-2.2-3.7L8.6,41.7c-0.5,0.3-0.9,0.8-1,1.3
		c-0.2,0.7-0.1,1.4,0.3,2.1l0.7,1.1c0.4,0.6,0.9,1,1.6,1.2c0.6,0.2,1.2,0.1,1.7-0.3L26.5,37.6z M26.5,26.4l-14.7-9.6
		c-0.4-0.2-0.8-0.4-1.1-0.4c-0.2,0-0.4,0-0.6,0.1c-0.7,0.2-1.3,0.6-1.6,1.2l-0.7,1.1c-0.4,0.6-0.5,1.3-0.3,2.1c0.2,0.6,0.6,1,1,1.3
		l15.9,7.9C24.7,28.8,25.4,27.5,26.5,26.4z M28.8,7.1l0.9,17.6c0.7-0.2,1.2-0.3,1.9-0.3l0,0l0,0l0,0l0,0l0,0l0,0l0,0l0,0l0,0l0,0
		l0,0l0,0l0,0l0,0l0,0l0,0l0,0l0,0l0,0l0,0l0,0l0,0l0,0l0,0l0,0l0,0l0,0l0,0l0,0l0,0l0,0l0,0l0,0l0,0l0,0l0,0l0,0l0,0l0,0l0,0l0,0
		l0,0l0,0l0,0l0,0l0,0l0,0l0,0l0,0l0,0l0,0l0,0l0,0c0.7,0,1.2,0.1,1.9,0.3l0.9-17.6c0-0.6-0.2-1.2-0.4-1.7c-0.1-0.6-0.8-0.8-1.6-0.8
		h-1.2c-0.7,0-1.4,0.3-1.9,0.8C28.9,5.9,28.7,6.5,28.8,7.1z M35,56.9L34,39.4c-0.6,0.2-1.2,0.3-1.9,0.3l0,0l0,0l0,0l0,0l0,0l0,0l0,0
		l0,0l0,0l0,0l0,0l0,0l0,0l0,0l0,0l0,0l0,0l0,0l0,0l0,0l0,0l0,0l0,0l0,0l0,0l0,0l0,0l0,0l0,0l0,0l0,0l0,0l0,0l0,0l0,0l0,0l0,0l0,0
		l0,0l0,0l0,0l0,0l0,0l0,0l0,0l0,0l0,0l0,0l0,0l0,0l0,0c-0.7,0-1.3-0.1-1.9-0.3l-0.9,17.6c0,0.6,0.2,1.1,0.6,1.6
		c0.5,0.5,1.1,0.8,1.9,0.8H33c0.7,0,1.4-0.3,1.9-0.8C35.1,58.1,35.1,57.5,35,56.9z M36.7,32c0-0.1,0-0.2,0-0.3l0,0
		c-0.2-2.5-2.3-4.4-4.7-4.4l0,0l0,0l0,0l0,0l0,0l0,0l0,0l0,0l0,0l0,0l0,0l0,0l0,0c-2.5,0-4.5,2-4.7,4.4l0,0c0,0.1,0,0.2,0,0.3l0,0
		l0,0c0,0.1,0,0.2,0,0.3l0,0c0.2,2.5,2.3,4.4,4.7,4.4l0,0l0,0l0,0l0,0l0,0l0,0l0,0l0,0l0,0l0,0l0,0l0,0l0,0c2.6,0,4.5-2,4.7-4.4l0,0
		C36.7,32.2,36.7,32.1,36.7,32L36.7,32L36.7,32z M37.2,26.4c1,1,1.8,2.3,2.2,3.7L55,22.2c0.5-0.3,0.9-0.8,1-1.3
		c0.2-0.7,0.1-1.4-0.3-2.1l-0.7-1.1c-0.4-0.6-0.9-1-1.6-1.2c-0.6-0.2-1.2-0.1-1.7,0.3L37.2,26.4z M56,43c-0.2-0.6-0.6-1-1-1.3
		l-15.7-7.9c-0.4,1.4-1.1,2.7-2.2,3.7l14.7,9.6c0.5,0.3,1.1,0.4,1.7,0.3c0.7-0.2,1.3-0.6,1.6-1.2l0.7-1.1C56.2,44.6,56.3,43.8,56,43
		z M22.6,51.6c-0.1-0.1-0.3-0.1-0.4-0.2c-0.8-0.3-1.6,0-1.9,0.8s0,1.6,0.8,1.9c0.2,0.1,0.3,0.1,0.5,0.2c0.2,0.1,0.4,0.1,0.6,0.1
		c0.6,0,1.1-0.4,1.3-0.9C23.7,52.8,23.4,51.9,22.6,51.6z"/>
</g>
<g id="Facilities">
</g>
</svg>
