<?xml version="1.0" encoding="utf-8"?>
<!-- Generator: Adobe Illustrator 20.1.0, SVG Export Plug-In . SVG Version: 6.00 Build 0)  -->
<svg version="1.1" id="Layer_1" xmlns="http://www.w3.org/2000/svg" xmlns:xlink="http://www.w3.org/1999/xlink" x="0px" y="0px"
	 viewBox="0 0 64 64" style="enable-background:new 0 0 64 64;" xml:space="preserve">
<style type="text/css">
	.st0{fill:#7E603B;}
</style>
<g id="Font">
	<g>
		<path class="st0" d="M63.3,12.6v30.9c0,1.4-0.5,2.6-1.5,3.7c-0.9,0.9-2.3,1.5-3.7,1.5H34.4v4.1h11.4c0.3,0,0.6,0.1,0.8,0.3
			c0.2,0.2,0.3,0.5,0.3,0.8v2c0,0.3-0.1,0.6-0.3,0.8c-0.2,0.2-0.5,0.3-0.8,0.3H18.9c-0.3,0-0.6-0.1-0.8-0.3
			c-0.2-0.2-0.3-0.5-0.3-0.8v-2c0-0.3,0.1-0.6,0.3-0.8c0.2-0.2,0.5-0.3,0.8-0.3h11.4v-4.1H6.6c-1.4,0-2.6-0.5-3.7-1.5
			C2,46.3,1.4,45,1.4,43.6V12.6c0-1.4,0.5-2.6,1.5-3.7c1-0.9,2.3-1.5,3.7-1.5h51.6c1.4,0,2.6,0.5,3.7,1.5
			C62.8,10.1,63.3,11.3,63.3,12.6z M59.1,43.7v-31c0-0.3-0.1-0.5-0.3-0.8c-0.2-0.2-0.5-0.3-0.8-0.3H6.6c-0.3,0-0.5,0.1-0.8,0.3
			c-0.2,0.3-0.3,0.6-0.3,0.8v30.9c0,0.3,0.1,0.5,0.3,0.8c0.2,0.2,0.5,0.3,0.8,0.3h51.6c0.3,0,0.5-0.1,0.8-0.3
			C59,44.2,59.1,44,59.1,43.7z"/>
	</g>
</g>
<g id="Facilities">
</g>
</svg>
