<?xml version="1.0" encoding="utf-8"?>
<!-- Generator: Adobe Illustrator 20.1.0, SVG Export Plug-In . SVG Version: 6.00 Build 0)  -->
<svg version="1.1" id="Layer_1" xmlns="http://www.w3.org/2000/svg" xmlns:xlink="http://www.w3.org/1999/xlink" x="0px" y="0px"
	 viewBox="0 0 64 64" style="enable-background:new 0 0 64 64;" xml:space="preserve">
<style type="text/css">
	.st0{fill:#7E603B;}
</style>
<g id="Font">
	<path class="st0" d="M5.5,21.4C7,22,8.3,22.9,9.4,24c-2.7,0.9-5.8,1.8-4.2,5.1c4,1.4,6.7-3.6,9.5-2.3c2.6,1.3,5.4,3.2,8.1,4.6
		c-0.5,0.5-7.5,4.7-8.4,5.1c-2.1,0.8-5.7-4.1-9.4-2.3c-1.3,4.3,2.4,3,4.4,5.2C7.8,40.1,6.3,41,4.7,42c-1.8,1.2-2.3,2.1-1.1,4
		C6,46.5,6.3,45.9,8,44.9c1.4-0.7,2.3-1.4,3.6-2c0,0.7-1.2,8.4,2.8,5.9c1.5-0.9,1.4-6.2,1.5-8.5l9.1-5v10.2c-1.4,0.9-2.9,2-4.3,3
		c-1.7,1.2-3,1.8-1.7,4.3c2.6,0.9,4.4-1.2,6-2.1c0,1.6,0,3.6,0,5.5c0,1.8,0.3,2.8,2.1,2.8c1.5,0,2.1-0.6,2.1-2.3v-50
		c0.1-1.2-0.7-2.2-1.8-2.3h-0.1C26,4.4,25,4.8,25,6.9c-0.1,1.4,0,3.3,0,5.6c-1.3-0.5-2.5-1.8-3.5-2.2c-1.8-0.7-3.5,0.6-2.8,2.5
		s5.6,3,6.5,5.1V28l-9-5.4c-0.2-2.2,0.3-7.6-1.5-8.4c-4-1.7-2.5,3.7-2.9,6c-1.1-0.7-2.5-1.5-3.9-2.3c-1.1-0.6-3.3-1.9-4.2-0.3
		C2,19.8,4.3,20.9,5.5,21.4L5.5,21.4z M32.6,46.2c7.7-0.5,13.7-5.8,13.7-13.9c0.1-7.7-6.1-14-13.7-14l0,0V46.2L32.6,46.2z
		 M33.7,14.9c4.5-0.3,10.2,3.5,11.7,5.5c3,3.5,4.6,7.9,4.5,12.6c-0.5,9.3-8,16.7-17.4,16.8v4.5c0,0.8,0,1.6,0,2.5c0,0.9,0,1.2,0,2.4
		c0.6-1,1.3-3.2,2.3-4.5c3.6-5.6,10,1.2,11.6,2.3c-1.4-9-1.5-12.5,10.5-10.4c-1.2-1.9-5.1-4.7-4.3-8.6s7.1-4.4,8.4-5.6
		c-2.5-1.2-6.6-1.2-8.1-4.8c-1.8-4.4,3.1-6.7,3.7-9.4c-2.9,0.5-7.4,1.5-9.6-0.9c-2.6-2.8-0.5-8.4-0.7-9.4c-2.5,1.8-5.7,5.7-9.4,3.9
		c-3.4-1.7-3.2-6.4-4.5-7.8v10.9L33.7,14.9L33.7,14.9z"/>
</g>
<g id="Facilities">
</g>
</svg>
